<?xml version="1.0" encoding="utf-8"?>
<!-- Generator: Adobe Illustrator 27.0.0, SVG Export Plug-In . SVG Version: 6.00 Build 0)  -->
<svg version="1.1" id="Layer_1" xmlns="http://www.w3.org/2000/svg" xmlns:xlink="http://www.w3.org/1999/xlink" x="0px" y="0px"
	 viewBox="0 0 765 400" style="enable-background:new 0 0 765 400;" xml:space="preserve">
<style type="text/css">
	.st0{opacity:0.75;fill:url(#SVGID_1_);}
	.st1{fill:none;stroke:#000000;}
	.st2{font-family:'Roboto-Medium';}
	.st3{font-size:27.1303px;}
	.st4{opacity:0.75;}
	.st5{clip-path:url(#SVGID_00000044165646376987110830000018147008517987850648_);fill:#F2EBE0;}
	.st6{clip-path:url(#SVGID_00000044165646376987110830000018147008517987850648_);fill:#F2EBDF;}
	.st7{clip-path:url(#SVGID_00000044165646376987110830000018147008517987850648_);fill:#F2EBDE;}
	.st8{clip-path:url(#SVGID_00000044165646376987110830000018147008517987850648_);fill:#F2EBDD;}
	.st9{clip-path:url(#SVGID_00000044165646376987110830000018147008517987850648_);fill:#F1EBDC;}
	.st10{clip-path:url(#SVGID_00000044165646376987110830000018147008517987850648_);fill:#F1EBDB;}
	.st11{clip-path:url(#SVGID_00000044165646376987110830000018147008517987850648_);fill:#F1EBDA;}
	.st12{clip-path:url(#SVGID_00000044165646376987110830000018147008517987850648_);fill:#F1EBD9;}
	.st13{clip-path:url(#SVGID_00000044165646376987110830000018147008517987850648_);fill:#F1EBD8;}
	.st14{clip-path:url(#SVGID_00000044165646376987110830000018147008517987850648_);fill:#F1EBD7;}
	.st15{clip-path:url(#SVGID_00000044165646376987110830000018147008517987850648_);fill:#F1EAD7;}
	.st16{clip-path:url(#SVGID_00000044165646376987110830000018147008517987850648_);fill:#F1EAD6;}
	.st17{clip-path:url(#SVGID_00000044165646376987110830000018147008517987850648_);fill:#F1EAD5;}
	.st18{clip-path:url(#SVGID_00000044165646376987110830000018147008517987850648_);fill:#F0EAD4;}
	.st19{clip-path:url(#SVGID_00000044165646376987110830000018147008517987850648_);fill:#F0EAD3;}
	.st20{clip-path:url(#SVGID_00000044165646376987110830000018147008517987850648_);fill:#F0EAD2;}
	.st21{clip-path:url(#SVGID_00000044165646376987110830000018147008517987850648_);fill:#F0EAD1;}
	.st22{clip-path:url(#SVGID_00000044165646376987110830000018147008517987850648_);fill:#F0EAD0;}
	.st23{clip-path:url(#SVGID_00000044165646376987110830000018147008517987850648_);fill:#F0EACF;}
	.st24{clip-path:url(#SVGID_00000044165646376987110830000018147008517987850648_);fill:#F0EACE;}
	.st25{clip-path:url(#SVGID_00000044165646376987110830000018147008517987850648_);fill:#F0EACD;}
	.st26{clip-path:url(#SVGID_00000044165646376987110830000018147008517987850648_);fill:#EFEACC;}
	.st27{clip-path:url(#SVGID_00000044165646376987110830000018147008517987850648_);fill:#EFEACB;}
	.st28{clip-path:url(#SVGID_00000044165646376987110830000018147008517987850648_);fill:#EFEACA;}
	.st29{clip-path:url(#SVGID_00000044165646376987110830000018147008517987850648_);fill:#EFEAC9;}
	.st30{clip-path:url(#SVGID_00000044165646376987110830000018147008517987850648_);fill:#EFEAC8;}
	.st31{clip-path:url(#SVGID_00000044165646376987110830000018147008517987850648_);fill:#EFEAC7;}
	.st32{clip-path:url(#SVGID_00000044165646376987110830000018147008517987850648_);fill:#EFEAC6;}
	.st33{clip-path:url(#SVGID_00000044165646376987110830000018147008517987850648_);fill:#EFE9C6;}
	.st34{clip-path:url(#SVGID_00000044165646376987110830000018147008517987850648_);fill:#EEE9C5;}
	.st35{clip-path:url(#SVGID_00000044165646376987110830000018147008517987850648_);fill:#EEE9C4;}
	.st36{clip-path:url(#SVGID_00000044165646376987110830000018147008517987850648_);fill:#EEE9C3;}
	.st37{clip-path:url(#SVGID_00000044165646376987110830000018147008517987850648_);fill:#EEE9C2;}
	.st38{clip-path:url(#SVGID_00000044165646376987110830000018147008517987850648_);fill:#EEE9C1;}
	.st39{clip-path:url(#SVGID_00000044165646376987110830000018147008517987850648_);fill:#EEE9C0;}
	.st40{clip-path:url(#SVGID_00000044165646376987110830000018147008517987850648_);fill:#EEE9BF;}
	.st41{clip-path:url(#SVGID_00000044165646376987110830000018147008517987850648_);fill:#EEE9BE;}
	.st42{clip-path:url(#SVGID_00000044165646376987110830000018147008517987850648_);fill:#EDE9BD;}
	.st43{clip-path:url(#SVGID_00000044165646376987110830000018147008517987850648_);fill:#EDE9BC;}
	.st44{clip-path:url(#SVGID_00000044165646376987110830000018147008517987850648_);fill:#EDE9BB;}
	.st45{clip-path:url(#SVGID_00000044165646376987110830000018147008517987850648_);fill:#EDE9BA;}
	.st46{clip-path:url(#SVGID_00000044165646376987110830000018147008517987850648_);fill:#EDE9B9;}
	.st47{clip-path:url(#SVGID_00000044165646376987110830000018147008517987850648_);fill:#EDE9B8;}
	.st48{clip-path:url(#SVGID_00000044165646376987110830000018147008517987850648_);fill:#EDE9B7;}
	.st49{clip-path:url(#SVGID_00000044165646376987110830000018147008517987850648_);fill:#EDE9B6;}
	.st50{clip-path:url(#SVGID_00000044165646376987110830000018147008517987850648_);fill:#ECE9B5;}
	.st51{clip-path:url(#SVGID_00000044165646376987110830000018147008517987850648_);fill:#ECE8B4;}
	.st52{clip-path:url(#SVGID_00000044165646376987110830000018147008517987850648_);fill:#ECE8B3;}
	.st53{clip-path:url(#SVGID_00000044165646376987110830000018147008517987850648_);fill:#ECE8B2;}
	.st54{clip-path:url(#SVGID_00000044165646376987110830000018147008517987850648_);fill:#ECE8B1;}
	.st55{clip-path:url(#SVGID_00000044165646376987110830000018147008517987850648_);fill:#ECE8B0;}
	.st56{clip-path:url(#SVGID_00000044165646376987110830000018147008517987850648_);fill:#ECE8AF;}
	.st57{clip-path:url(#SVGID_00000044165646376987110830000018147008517987850648_);fill:#ECE8AE;}
	.st58{clip-path:url(#SVGID_00000044165646376987110830000018147008517987850648_);fill:#EBE8AE;}
	.st59{clip-path:url(#SVGID_00000044165646376987110830000018147008517987850648_);fill:#EBE8AD;}
	.st60{clip-path:url(#SVGID_00000044165646376987110830000018147008517987850648_);fill:#EBE8AC;}
	.st61{clip-path:url(#SVGID_00000044165646376987110830000018147008517987850648_);fill:#EBE8AB;}
	.st62{clip-path:url(#SVGID_00000044165646376987110830000018147008517987850648_);fill:#EBE8AA;}
	.st63{clip-path:url(#SVGID_00000044165646376987110830000018147008517987850648_);fill:#EBE8A9;}
	.st64{clip-path:url(#SVGID_00000044165646376987110830000018147008517987850648_);fill:#EBE8A8;}
	.st65{clip-path:url(#SVGID_00000044165646376987110830000018147008517987850648_);fill:#EBE8A7;}
	.st66{clip-path:url(#SVGID_00000044165646376987110830000018147008517987850648_);fill:#EAE8A6;}
	.st67{clip-path:url(#SVGID_00000044165646376987110830000018147008517987850648_);fill:#EAE8A5;}
	.st68{clip-path:url(#SVGID_00000044165646376987110830000018147008517987850648_);fill:#EAE8A4;}
	.st69{clip-path:url(#SVGID_00000044165646376987110830000018147008517987850648_);fill:#EAE7A3;}
	.st70{clip-path:url(#SVGID_00000044165646376987110830000018147008517987850648_);fill:#EAE7A2;}
	.st71{clip-path:url(#SVGID_00000044165646376987110830000018147008517987850648_);fill:#EAE7A1;}
	.st72{clip-path:url(#SVGID_00000044165646376987110830000018147008517987850648_);fill:#EAE7A0;}
	.st73{clip-path:url(#SVGID_00000044165646376987110830000018147008517987850648_);fill:#EAE79F;}
	.st74{clip-path:url(#SVGID_00000044165646376987110830000018147008517987850648_);fill:#E9E79E;}
	.st75{clip-path:url(#SVGID_00000044165646376987110830000018147008517987850648_);fill:#E9E79D;}
	.st76{clip-path:url(#SVGID_00000044165646376987110830000018147008517987850648_);fill:#E9E79C;}
	.st77{clip-path:url(#SVGID_00000044165646376987110830000018147008517987850648_);fill:#E9E79B;}
	.st78{clip-path:url(#SVGID_00000044165646376987110830000018147008517987850648_);fill:#E9E79A;}
	.st79{clip-path:url(#SVGID_00000044165646376987110830000018147008517987850648_);fill:#E9E799;}
	.st80{clip-path:url(#SVGID_00000044165646376987110830000018147008517987850648_);fill:#E9E798;}
	.st81{clip-path:url(#SVGID_00000044165646376987110830000018147008517987850648_);fill:#E9E797;}
	.st82{clip-path:url(#SVGID_00000044165646376987110830000018147008517987850648_);fill:#E8E796;}
	.st83{clip-path:url(#SVGID_00000044165646376987110830000018147008517987850648_);fill:#E8E795;}
	.st84{clip-path:url(#SVGID_00000044165646376987110830000018147008517987850648_);fill:#E8E794;}
	.st85{clip-path:url(#SVGID_00000044165646376987110830000018147008517987850648_);fill:#E8E793;}
	.st86{clip-path:url(#SVGID_00000044165646376987110830000018147008517987850648_);fill:#E8E692;}
	.st87{clip-path:url(#SVGID_00000044165646376987110830000018147008517987850648_);fill:#E8E691;}
	.st88{clip-path:url(#SVGID_00000044165646376987110830000018147008517987850648_);fill:#E8E690;}
	.st89{clip-path:url(#SVGID_00000044165646376987110830000018147008517987850648_);fill:#E8E68F;}
	.st90{clip-path:url(#SVGID_00000044165646376987110830000018147008517987850648_);fill:#E7E68E;}
	.st91{clip-path:url(#SVGID_00000044165646376987110830000018147008517987850648_);fill:#E7E68D;}
	.st92{clip-path:url(#SVGID_00000044165646376987110830000018147008517987850648_);fill:#E7E68C;}
	.st93{clip-path:url(#SVGID_00000044165646376987110830000018147008517987850648_);fill:#E7E68B;}
	.st94{clip-path:url(#SVGID_00000044165646376987110830000018147008517987850648_);fill:#E7E68A;}
	.st95{clip-path:url(#SVGID_00000044165646376987110830000018147008517987850648_);fill:#E7E689;}
	.st96{clip-path:url(#SVGID_00000044165646376987110830000018147008517987850648_);fill:#E7E688;}
	.st97{clip-path:url(#SVGID_00000044165646376987110830000018147008517987850648_);fill:#E6E687;}
	.st98{clip-path:url(#SVGID_00000044165646376987110830000018147008517987850648_);fill:#E6E686;}
	.st99{clip-path:url(#SVGID_00000044165646376987110830000018147008517987850648_);fill:#E6E685;}
	.st100{clip-path:url(#SVGID_00000044165646376987110830000018147008517987850648_);fill:#E6E684;}
	.st101{clip-path:url(#SVGID_00000044165646376987110830000018147008517987850648_);fill:#E6E683;}
	.st102{clip-path:url(#SVGID_00000044165646376987110830000018147008517987850648_);fill:#E6E682;}
	.st103{clip-path:url(#SVGID_00000044165646376987110830000018147008517987850648_);fill:#E6E581;}
	.st104{clip-path:url(#SVGID_00000044165646376987110830000018147008517987850648_);fill:#E6E580;}
	.st105{clip-path:url(#SVGID_00000044165646376987110830000018147008517987850648_);fill:#E5E57F;}
	.st106{clip-path:url(#SVGID_00000044165646376987110830000018147008517987850648_);fill:#E5E57E;}
	.st107{clip-path:url(#SVGID_00000044165646376987110830000018147008517987850648_);fill:#E5E57C;}
	.st108{clip-path:url(#SVGID_00000044165646376987110830000018147008517987850648_);fill:#E5E57B;}
	.st109{clip-path:url(#SVGID_00000044165646376987110830000018147008517987850648_);fill:#E5E57A;}
	.st110{clip-path:url(#SVGID_00000044165646376987110830000018147008517987850648_);fill:#E5E579;}
	.st111{clip-path:url(#SVGID_00000044165646376987110830000018147008517987850648_);fill:#E5E578;}
	.st112{clip-path:url(#SVGID_00000044165646376987110830000018147008517987850648_);fill:#E4E577;}
	.st113{clip-path:url(#SVGID_00000044165646376987110830000018147008517987850648_);fill:#E4E576;}
	.st114{clip-path:url(#SVGID_00000044165646376987110830000018147008517987850648_);fill:#E4E575;}
	.st115{clip-path:url(#SVGID_00000044165646376987110830000018147008517987850648_);fill:#E4E574;}
	.st116{clip-path:url(#SVGID_00000044165646376987110830000018147008517987850648_);fill:#E4E573;}
	.st117{clip-path:url(#SVGID_00000044165646376987110830000018147008517987850648_);fill:#E4E572;}
	.st118{clip-path:url(#SVGID_00000044165646376987110830000018147008517987850648_);fill:#E4E571;}
	.st119{clip-path:url(#SVGID_00000044165646376987110830000018147008517987850648_);fill:#E3E470;}
	.st120{clip-path:url(#SVGID_00000044165646376987110830000018147008517987850648_);fill:#E3E46F;}
	.st121{clip-path:url(#SVGID_00000044165646376987110830000018147008517987850648_);fill:#E3E46E;}
	.st122{clip-path:url(#SVGID_00000044165646376987110830000018147008517987850648_);fill:#E3E46C;}
	.st123{clip-path:url(#SVGID_00000044165646376987110830000018147008517987850648_);fill:#E3E46B;}
	.st124{clip-path:url(#SVGID_00000044165646376987110830000018147008517987850648_);fill:#E3E46A;}
	.st125{clip-path:url(#SVGID_00000044165646376987110830000018147008517987850648_);fill:#E3E469;}
	.st126{clip-path:url(#SVGID_00000044165646376987110830000018147008517987850648_);fill:#E2E468;}
	.st127{clip-path:url(#SVGID_00000044165646376987110830000018147008517987850648_);fill:#E2E467;}
	.st128{clip-path:url(#SVGID_00000044165646376987110830000018147008517987850648_);fill:#E2E466;}
	.st129{clip-path:url(#SVGID_00000044165646376987110830000018147008517987850648_);fill:#E2E465;}
	.st130{clip-path:url(#SVGID_00000044165646376987110830000018147008517987850648_);fill:#E2E464;}
	.st131{clip-path:url(#SVGID_00000044165646376987110830000018147008517987850648_);fill:#E2E463;}
	.st132{clip-path:url(#SVGID_00000044165646376987110830000018147008517987850648_);fill:#E2E462;}
	.st133{clip-path:url(#SVGID_00000044165646376987110830000018147008517987850648_);fill:#E1E460;}
	.st134{clip-path:url(#SVGID_00000044165646376987110830000018147008517987850648_);fill:#E1E45F;}
	.st135{clip-path:url(#SVGID_00000044165646376987110830000018147008517987850648_);fill:#E1E35E;}
	.st136{clip-path:url(#SVGID_00000044165646376987110830000018147008517987850648_);fill:#E1E35D;}
	.st137{clip-path:url(#SVGID_00000044165646376987110830000018147008517987850648_);fill:#E1E35C;}
	.st138{clip-path:url(#SVGID_00000044165646376987110830000018147008517987850648_);fill:#E1E35B;}
	.st139{clip-path:url(#SVGID_00000044165646376987110830000018147008517987850648_);fill:#E1E35A;}
	.st140{clip-path:url(#SVGID_00000044165646376987110830000018147008517987850648_);fill:#E0E359;}
	.st141{clip-path:url(#SVGID_00000044165646376987110830000018147008517987850648_);fill:#E0E358;}
	.st142{clip-path:url(#SVGID_00000044165646376987110830000018147008517987850648_);fill:#E0E356;}
	.st143{clip-path:url(#SVGID_00000044165646376987110830000018147008517987850648_);fill:#E0E355;}
	.st144{clip-path:url(#SVGID_00000044165646376987110830000018147008517987850648_);fill:#E0E354;}
	.st145{clip-path:url(#SVGID_00000044165646376987110830000018147008517987850648_);fill:#E0E353;}
	.st146{clip-path:url(#SVGID_00000044165646376987110830000018147008517987850648_);fill:#E0E352;}
	.st147{clip-path:url(#SVGID_00000044165646376987110830000018147008517987850648_);fill:#DFE351;}
	.st148{clip-path:url(#SVGID_00000044165646376987110830000018147008517987850648_);fill:#DFE350;}
	.st149{clip-path:url(#SVGID_00000044165646376987110830000018147008517987850648_);fill:#DFE34F;}
	.st150{clip-path:url(#SVGID_00000044165646376987110830000018147008517987850648_);fill:#DFE24D;}
	.st151{clip-path:url(#SVGID_00000044165646376987110830000018147008517987850648_);fill:#DFE24C;}
	.st152{clip-path:url(#SVGID_00000044165646376987110830000018147008517987850648_);fill:#DFE24B;}
	.st153{clip-path:url(#SVGID_00000044165646376987110830000018147008517987850648_);fill:#DFE24A;}
	.st154{clip-path:url(#SVGID_00000044165646376987110830000018147008517987850648_);fill:#DEE249;}
	.st155{clip-path:url(#SVGID_00000044165646376987110830000018147008517987850648_);fill:#DEE248;}
	.st156{clip-path:url(#SVGID_00000044165646376987110830000018147008517987850648_);fill:#DEE247;}
	.st157{clip-path:url(#SVGID_00000044165646376987110830000018147008517987850648_);fill:#DEE246;}
	.st158{clip-path:url(#SVGID_00000044165646376987110830000018147008517987850648_);fill:#DEE244;}
	.st159{clip-path:url(#SVGID_00000044165646376987110830000018147008517987850648_);fill:#DEE243;}
	.st160{clip-path:url(#SVGID_00000044165646376987110830000018147008517987850648_);fill:#DEE242;}
	.st161{clip-path:url(#SVGID_00000044165646376987110830000018147008517987850648_);fill:#DDE241;}
	.st162{clip-path:url(#SVGID_00000044165646376987110830000018147008517987850648_);fill:#DDE240;}
	.st163{clip-path:url(#SVGID_00000044165646376987110830000018147008517987850648_);fill:#DDE23F;}
	.st164{clip-path:url(#SVGID_00000044165646376987110830000018147008517987850648_);fill:#DDE23E;}
	.st165{clip-path:url(#SVGID_00000044165646376987110830000018147008517987850648_);fill:#DDE23C;}
	.st166{clip-path:url(#SVGID_00000044165646376987110830000018147008517987850648_);fill:#DDE13B;}
	.st167{clip-path:url(#SVGID_00000044165646376987110830000018147008517987850648_);fill:#DDE13A;}
	.st168{clip-path:url(#SVGID_00000044165646376987110830000018147008517987850648_);fill:#DCE139;}
	.st169{clip-path:url(#SVGID_00000044165646376987110830000018147008517987850648_);fill:#DCE138;}
	.st170{clip-path:url(#SVGID_00000044165646376987110830000018147008517987850648_);fill:#DCE137;}
	.st171{clip-path:url(#SVGID_00000044165646376987110830000018147008517987850648_);fill:#DCE135;}
	.st172{clip-path:url(#SVGID_00000044165646376987110830000018147008517987850648_);fill:#DCE134;}
	.st173{clip-path:url(#SVGID_00000044165646376987110830000018147008517987850648_);fill:#DCE133;}
	.st174{clip-path:url(#SVGID_00000044165646376987110830000018147008517987850648_);fill:#DBE132;}
	.st175{clip-path:url(#SVGID_00000044165646376987110830000018147008517987850648_);fill:#DBE131;}
	.st176{clip-path:url(#SVGID_00000044165646376987110830000018147008517987850648_);fill:#DBE130;}
	.st177{clip-path:url(#SVGID_00000044165646376987110830000018147008517987850648_);fill:#DBE12E;}
	.st178{clip-path:url(#SVGID_00000044165646376987110830000018147008517987850648_);fill:#DBE12D;}
	.st179{clip-path:url(#SVGID_00000044165646376987110830000018147008517987850648_);fill:#DBE12C;}
	.st180{clip-path:url(#SVGID_00000044165646376987110830000018147008517987850648_);fill:#DBE02B;}
	.st181{clip-path:url(#SVGID_00000044165646376987110830000018147008517987850648_);fill:#DAE02A;}
	.st182{clip-path:url(#SVGID_00000044165646376987110830000018147008517987850648_);fill:#DAE029;}
	.st183{clip-path:url(#SVGID_00000044165646376987110830000018147008517987850648_);fill:#DAE027;}
	.st184{clip-path:url(#SVGID_00000044165646376987110830000018147008517987850648_);fill:#DAE026;}
	.st185{clip-path:url(#SVGID_00000044165646376987110830000018147008517987850648_);fill:#DAE025;}
	.st186{clip-path:url(#SVGID_00000044165646376987110830000018147008517987850648_);fill:#DAE024;}
	.st187{clip-path:url(#SVGID_00000044165646376987110830000018147008517987850648_);fill:#D9E023;}
	.st188{clip-path:url(#SVGID_00000044165646376987110830000018147008517987850648_);fill:#D9E022;}
	.st189{clip-path:url(#SVGID_00000044165646376987110830000018147008517987850648_);fill:#D9E020;}
	.st190{clip-path:url(#SVGID_00000044165646376987110830000018147008517987850648_);fill:#D9E01F;}
	.st191{clip-path:url(#SVGID_00000044165646376987110830000018147008517987850648_);fill:#D9E01E;}
	.st192{clip-path:url(#SVGID_00000044165646376987110830000018147008517987850648_);fill:#D9E01D;}
	.st193{clip-path:url(#SVGID_00000044165646376987110830000018147008517987850648_);fill:#D9E01C;}
	.st194{clip-path:url(#SVGID_00000044165646376987110830000018147008517987850648_);fill:#D8E01A;}
	.st195{clip-path:url(#SVGID_00000044165646376987110830000018147008517987850648_);fill:#D8DF19;}
	.st196{clip-path:url(#SVGID_00000044165646376987110830000018147008517987850648_);fill:#D8DF18;}
	.st197{clip-path:url(#SVGID_00000044165646376987110830000018147008517987850648_);fill:#D8DF17;}
	.st198{clip-path:url(#SVGID_00000044165646376987110830000018147008517987850648_);fill:#D8DF16;}
	.st199{clip-path:url(#SVGID_00000044165646376987110830000018147008517987850648_);fill:#D8DF14;}
	.st200{clip-path:url(#SVGID_00000044165646376987110830000018147008517987850648_);fill:#D7DF13;}
	.st201{clip-path:url(#SVGID_00000044165646376987110830000018147008517987850648_);fill:#D7DF12;}
	.st202{clip-path:url(#SVGID_00000044165646376987110830000018147008517987850648_);fill:#D7DF11;}
	.st203{clip-path:url(#SVGID_00000044165646376987110830000018147008517987850648_);fill:#D7DF10;}
	.st204{clip-path:url(#SVGID_00000044165646376987110830000018147008517987850648_);fill:#D7DF0E;}
	.st205{clip-path:url(#SVGID_00000044165646376987110830000018147008517987850648_);fill:#D7DF0D;}
	.st206{clip-path:url(#SVGID_00000044165646376987110830000018147008517987850648_);fill:#D7DF0C;}
	.st207{clip-path:url(#SVGID_00000044165646376987110830000018147008517987850648_);fill:#D6DF0B;}
	.st208{clip-path:url(#SVGID_00000044165646376987110830000018147008517987850648_);fill:#D6DF0A;}
	.st209{clip-path:url(#SVGID_00000044165646376987110830000018147008517987850648_);fill:#D6DE08;}
	.st210{clip-path:url(#SVGID_00000044165646376987110830000018147008517987850648_);fill:#D6DE07;}
	.st211{clip-path:url(#SVGID_00000044165646376987110830000018147008517987850648_);fill:#D6DE06;}
	.st212{clip-path:url(#SVGID_00000044165646376987110830000018147008517987850648_);fill:#D6DE05;}
	.st213{clip-path:url(#SVGID_00000044165646376987110830000018147008517987850648_);fill:#D5DE04;}
	.st214{clip-path:url(#SVGID_00000044165646376987110830000018147008517987850648_);fill:#D5DE02;}
	.st215{clip-path:url(#SVGID_00000044165646376987110830000018147008517987850648_);fill:#D5DE01;}
	.st216{clip-path:url(#SVGID_00000044165646376987110830000018147008517987850648_);fill:#D5DE00;}
	.st217{fill:none;stroke:#2F312E;stroke-miterlimit:10;}
	.st218{opacity:0.75;fill:url(#SVGID_00000065033321494241446300000012482585279327154843_);}
	.st219{fill:#F2EBE0;}
	.st220{fill:none;stroke:#F2EBE0;stroke-miterlimit:10;}
	.st221{fill:#D5DE00;}
	.st222{fill:#F2EBE0;stroke:#000000;stroke-width:0.5;stroke-miterlimit:10;}
	.st223{fill:none;stroke:#000000;stroke-width:0.5;stroke-miterlimit:10;}
	.st224{fill:none;stroke:#000000;stroke-width:0.25;stroke-miterlimit:10;}
	.st225{fill:none;stroke:#D5DE00;stroke-width:6;stroke-miterlimit:10;}
</style>
<g>
	<radialGradient id="SVGID_1_" cx="538.5081" cy="208.7476" r="132.7637" gradientUnits="userSpaceOnUse">
		<stop  offset="0" style="stop-color:#D5DE00"/>
		<stop  offset="0.1002" style="stop-color:#D8E01B"/>
		<stop  offset="0.4297" style="stop-color:#E3E46E"/>
		<stop  offset="0.6997" style="stop-color:#EBE8AC"/>
		<stop  offset="0.8966" style="stop-color:#F0EAD2"/>
		<stop  offset="1" style="stop-color:#F2EBE0"/>
	</radialGradient>
	<circle class="st0" cx="538.51" cy="208.75" r="132.76"/>
	<path d="M40.1,178.1c-1.65-0.08-3.31-0.17-4.96-0.25c-5.54-0.42-10.42-0.62-14.64-0.62c-1.49,0-3.64,0.08-6.45,0.25
		c-2.48,0.25-5.25,0.37-8.31,0.37c-1.74,0-2.6-0.5-2.6-1.49c0.25-1.32,1.65-2.11,4.22-2.36c3.55-0.33,6.04-1.12,7.44-2.36
		c1.41-1.24,2.6-3.39,3.6-6.45l18.24-56.94c0.25-0.75,0.37-1.45,0.37-2.11c0-1.24-0.43-2.23-1.3-2.98
		c-0.87-0.75-2.09-1.32-3.66-1.74c-1.57-0.41-3.14-0.78-4.71-1.12c-1.9-0.41-2.73-1.24-2.48-2.48c0-0.5,0.33-0.89,0.99-1.18
		c0.66-0.29,1.49-0.44,2.48-0.44c3.31,0,6.45,0.12,9.43,0.37c3.64,0.17,6.28,0.25,7.94,0.25c2.07,0,4.09-0.12,6.08-0.37
		c4.47-0.25,7.24-0.37,8.31-0.37c7.69,0,14.39,1.36,20.1,4.09c5.71,2.73,10.11,6.68,13.21,11.85c3.1,5.17,4.65,11.27,4.65,18.3
		c0,8.44-2.32,16.33-6.95,23.69c-4.63,7.36-11.04,13.23-19.23,17.62c-8.19,4.38-17.29,6.57-27.29,6.57
		C43.24,178.22,41.75,178.18,40.1,178.1z M64.78,167.61c6.04-4.42,10.79-10.21,14.27-17.37c3.47-7.15,5.21-14.53,5.21-22.14
		c0-9.26-2.11-16.19-6.33-20.78c-4.22-4.59-10.09-6.88-17.62-6.88c-2.81,0-4.92,0.21-6.33,0.62c-1.41,0.41-2.38,1.01-2.92,1.8
		c-0.54,0.79-1.1,2.01-1.68,3.66l-16.75,54.09c-0.58,1.74-0.87,3.39-0.87,4.96c0,5.79,4.38,8.68,13.15,8.68
		C52.13,174.25,58.75,172.04,64.78,167.61z"/>
	<path d="M103.11,177.48c-1.16-1.07-1.74-2.23-1.74-3.47c0-0.75,0.17-1.49,0.5-2.23c2.56-5.37,4.94-10.79,7.13-16.25
		c2.19-5.46,3.49-8.68,3.91-9.68c1.07-3.06,2.07-5.62,2.98-7.69l0.12-0.5c0-0.5-0.25-0.74-0.74-0.74c-0.74,0-2.05,0.46-3.91,1.37
		c-1.86,0.91-3.54,1.9-5.02,2.98c-0.5,0.25-0.91,0.37-1.24,0.37c-0.91,0-1.36-0.29-1.36-0.87c0-0.91,1.05-2.34,3.16-4.28
		c2.11-1.94,4.73-3.95,7.88-6.02c3.14-2.07,6.2-3.76,9.18-5.09c0.5-0.17,0.87-0.25,1.12-0.25c1.24,0,2.36,0.58,3.35,1.74
		c0.99,1.16,1.32,2.15,0.99,2.98l-14.64,35.36c-0.5,1.08-0.75,2.07-0.75,2.98c0,0.83,0.54,1.24,1.61,1.24
		c2.32,0,6.74-3.27,13.27-9.8c0.25-0.25,0.41-0.37,0.5-0.37c0.33,0,0.6,0.11,0.81,0.31c0.2,0.21,0.31,0.48,0.31,0.81
		c0,1.82-1.41,4.24-4.22,7.26c-2.81,3.02-6.06,5.69-9.74,8c-3.68,2.32-6.8,3.47-9.37,3.47
		C105.64,179.09,104.27,178.55,103.11,177.48z M127.8,112.41c-0.99-1.12-1.49-2.42-1.49-3.91c0-2.32,0.78-4.34,2.36-6.08
		c1.57-1.74,3.51-2.6,5.83-2.6c1.49,0,2.69,0.64,3.6,1.92c0.91,1.28,1.36,2.71,1.36,4.28c0,2.15-0.81,4.03-2.42,5.64
		c-1.61,1.61-3.49,2.42-5.64,2.42C129.99,114.09,128.79,113.53,127.8,112.41z"/>
	<path d="M137.23,211.65c-4.05-1.12-7.26-2.69-9.61-4.71c-2.36-2.03-3.54-4.36-3.54-7.01c0-2.73,2.23-5.27,6.7-7.63
		c4.47-2.36,10.34-4.69,17.62-7.01c0.74-0.25,0.83-0.62,0.25-1.12c-1.98-1.49-3.52-2.85-4.59-4.09c-1.08-1.24-1.61-2.52-1.61-3.85
		s0.64-2.62,1.92-3.91c1.28-1.28,3.16-2.71,5.64-4.28c0.83-0.74,1.24-1.24,1.24-1.49c0-0.25-0.37-0.54-1.12-0.87
		c-5.04-2.48-7.57-6.57-7.57-12.28c0-3.72,1.12-7.82,3.35-12.28c2.23-4.47,5.27-8.25,9.12-11.35c3.85-3.1,8.13-4.65,12.84-4.65
		c1.82,0,3.31,0.27,4.47,0.81c1.16,0.54,1.86,0.85,2.11,0.93c0.25,0.08,0.89,0.37,1.92,0.87c1.03,0.5,1.88,0.74,2.54,0.74
		c1.07,0,3.02-0.25,5.83-0.74c2.65-0.58,4.67-0.87,6.08-0.87c0.74,0,1.43,0.25,2.05,0.74c0.62,0.5,0.93,1.24,0.93,2.23
		c0,1.41-0.27,2.52-0.81,3.35c-0.54,0.83-1.14,1.24-1.8,1.24c-0.58,0-1.39-0.08-2.42-0.25c-1.04-0.16-1.8-0.29-2.29-0.37
		c-1.9-0.41-3.43-0.62-4.59-0.62c-1.24,0-1.7,0.54-1.36,1.61c0.25,1.24,0.37,2.6,0.37,4.09c0,4.3-1.12,8.64-3.35,13.03
		c-2.23,4.38-5.19,8-8.87,10.85c-3.68,2.85-7.55,4.28-11.6,4.28c-1.32,0-2.4,0.33-3.23,0.99c-0.83,0.91-1.24,1.94-1.24,3.1
		c0,1.32,0.37,2.46,1.12,3.41c0.74,0.95,2.11,2.05,4.09,3.29c1.57,1.16,4.59,3.14,9.06,5.95c3.47,2.15,5.87,3.68,7.19,4.59
		c3.56,2.65,5.34,5.29,5.34,7.94c0,2.89-1.49,5.65-4.47,8.25s-6.72,4.71-11.23,6.33c-4.51,1.61-8.87,2.42-13.09,2.42
		C145.74,213.33,141.28,212.77,137.23,211.65z M164.89,206.94c2.48-1.61,3.72-3.62,3.72-6.02c0-1.16-0.37-2.36-1.12-3.6
		c-0.74-1.24-1.9-2.32-3.47-3.23c-1.24-0.91-2.77-1.92-4.59-3.04c-1.82-1.12-3.23-1.92-4.22-2.42c-1.16-0.66-2.15-0.99-2.98-0.99
		c-0.58,0-1.53,0.17-2.85,0.5c-4.96,1.57-8.68,3.23-11.16,4.96c-2.48,1.74-3.72,3.89-3.72,6.45c0,1.82,0.93,3.47,2.79,4.96
		c1.86,1.49,4.34,2.67,7.44,3.53s6.47,1.3,10.11,1.3C159.06,209.36,162.41,208.55,164.89,206.94z M163.4,158.19
		c2.56-3.51,4.73-7.65,6.51-12.4c1.78-4.75,2.67-8.54,2.67-11.35c0-1.41-0.39-2.69-1.18-3.85c-0.79-1.16-1.72-1.74-2.79-1.74
		c-2.23,0-4.65,1.67-7.26,5.02c-2.6,3.35-4.82,7.34-6.64,11.97c-1.82,4.63-2.77,8.56-2.85,11.78c0,1.66,0.41,3.02,1.24,4.09
		c0.83,1.08,1.82,1.61,2.98,1.61C158.4,163.42,160.84,161.7,163.4,158.19z"/>
	<path d="M195.03,177.48c-1.16-1.07-1.74-2.23-1.74-3.47c0-0.75,0.17-1.49,0.5-2.23c2.56-5.37,4.94-10.79,7.13-16.25
		c2.19-5.46,3.49-8.68,3.91-9.68c1.07-3.06,2.07-5.62,2.98-7.69l0.12-0.5c0-0.5-0.25-0.74-0.74-0.74c-0.74,0-2.05,0.46-3.91,1.37
		c-1.86,0.91-3.54,1.9-5.02,2.98c-0.5,0.25-0.91,0.37-1.24,0.37c-0.91,0-1.36-0.29-1.36-0.87c0-0.91,1.05-2.34,3.16-4.28
		c2.11-1.94,4.73-3.95,7.88-6.02c3.14-2.07,6.2-3.76,9.18-5.09c0.5-0.17,0.87-0.25,1.12-0.25c1.24,0,2.36,0.58,3.35,1.74
		c0.99,1.16,1.32,2.15,0.99,2.98L206.7,165.2c-0.5,1.08-0.75,2.07-0.75,2.98c0,0.83,0.54,1.24,1.61,1.24c2.32,0,6.74-3.27,13.27-9.8
		c0.25-0.25,0.41-0.37,0.5-0.37c0.33,0,0.6,0.11,0.81,0.31c0.2,0.21,0.31,0.48,0.31,0.81c0,1.82-1.41,4.24-4.22,7.26
		c-2.81,3.02-6.06,5.69-9.74,8c-3.68,2.32-6.8,3.47-9.37,3.47C197.56,179.09,196.19,178.55,195.03,177.48z M219.72,112.41
		c-0.99-1.12-1.49-2.42-1.49-3.91c0-2.32,0.78-4.34,2.36-6.08c1.57-1.74,3.51-2.6,5.83-2.6c1.49,0,2.69,0.64,3.6,1.92
		c0.91,1.28,1.36,2.71,1.36,4.28c0,2.15-0.81,4.03-2.42,5.64s-3.49,2.42-5.64,2.42C221.91,114.09,220.71,113.53,219.72,112.41z"/>
	<path d="M233.43,177.1c-1.36-1.32-2.05-2.52-2.05-3.6c0-0.99,0.14-2,0.43-3.04c0.29-1.03,0.68-2.13,1.18-3.29l11.79-32.5
		c0.08-0.25,0.12-0.54,0.12-0.87c0-0.83-0.5-1.24-1.49-1.24l-5.21-0.25c-1.74-0.08-2.6-0.74-2.6-1.98c0-0.41,0.54-1.1,1.61-2.05
		c1.07-0.95,2.15-1.43,3.23-1.43h5.09c0.99,0,1.65-0.14,1.98-0.43c0.33-0.29,0.78-0.97,1.36-2.05l3.1-6.45
		c0.66-1.32,1.88-2.71,3.66-4.16c1.78-1.45,3.12-2.17,4.03-2.17c0.66,0,1.14,0.27,1.43,0.81c0.29,0.54,0.44,1.18,0.44,1.92
		c0,0.42-0.08,1.04-0.25,1.86l-3.1,8.68c-0.08,0.25-0.12,0.54-0.12,0.87c0,0.41,0.14,0.68,0.43,0.81c0.29,0.12,0.72,0.19,1.3,0.19
		c1.65,0,3.43,0.15,5.34,0.44c1.9,0.29,3.06,0.48,3.47,0.56c1.4,0.25,2.29,0.52,2.67,0.81c0.37,0.29,0.56,0.72,0.56,1.3
		c0,0.25-0.23,0.58-0.68,0.99c-0.46,0.41-1.14,0.66-2.05,0.74c-4.3,0.33-7.4,0.54-9.3,0.62c-1.41,0.08-2.42,0.27-3.04,0.56
		c-0.62,0.29-1.05,0.81-1.3,1.55l-10.42,28.78c-0.42,0.99-0.62,2.03-0.62,3.1c0,1.41,0.79,2.11,2.36,2.11
		c2.23,0,6.04-2.56,11.41-7.69c0.58-0.58,1.14-0.89,1.68-0.93c0.54-0.04,0.81,0.15,0.81,0.56c0.08,0.08,0.12,0.29,0.12,0.62
		c0,0.74-0.37,1.7-1.12,2.85c-1.49,2.23-3.66,4.55-6.51,6.95c-2.85,2.4-5.75,4.4-8.68,6.02c-2.94,1.61-5.32,2.42-7.13,2.42
		C236.1,179.09,234.79,178.43,233.43,177.1z"/>
	<path d="M268.29,177.23c-1.45-1.24-2.17-2.52-2.17-3.85c0-4.13,2-9.24,6.02-15.32c4.01-6.08,9.82-12.8,17.43-20.16
		c8.6-8.1,14.31-12.16,17.12-12.16c1.49,0,3.1,0.79,4.84,2.36l1.36,1.61c0.33,0,0.58-0.29,0.74-0.87c1.49-2.56,2.19-3.85,2.11-3.85
		c0.33-0.83,0.99-1.24,1.98-1.24c1.41,0,2.81,0.39,4.22,1.18c1.41,0.79,2.11,1.59,2.11,2.42c0,0.25-0.25,1.08-0.74,2.48
		l-13.27,35.73c-0.25,0.74-0.37,1.41-0.37,1.98c0,1.24,0.62,1.86,1.86,1.86c1.32,0,3.02-0.72,5.09-2.17
		c2.07-1.44,3.93-3.2,5.58-5.27c0.41-0.41,0.74-0.62,0.99-0.62c0.66,0,0.99,0.54,0.99,1.61c0,0.83-0.64,2.15-1.92,3.97
		c-1.28,1.82-2.75,3.47-4.4,4.96c-2.57,2.32-5.13,4.09-7.69,5.33c-2.56,1.24-4.8,1.86-6.7,1.86c-1.57,0-3.04-0.6-4.4-1.8
		c-1.36-1.2-2.05-2.46-2.05-3.78c0-0.83,0.25-1.78,0.74-2.85c-0.33,0.58,0.14-0.62,1.43-3.6c1.28-2.98,2.54-5.79,3.78-8.43
		c0.33-0.66,0.45-1.2,0.37-1.61c-0.08-0.41-0.33-0.37-0.74,0.12c-7.2,8.02-13.03,13.69-17.49,16.99c-4.46,3.31-8.56,4.96-12.28,4.96
		C271.24,179.09,269.73,178.47,268.29,177.23z M289.62,165.07c3.43-2.89,7.17-6.78,11.23-11.66c2.89-3.47,5.21-6.64,6.95-9.49
		c1.74-2.85,2.61-4.98,2.61-6.39c0-0.66-0.62-1.53-1.86-2.61c-1.57-1.07-2.77-1.61-3.6-1.61c-1.41,0-3.37,0.74-5.89,2.23
		c-2.52,1.49-4.78,3.23-6.76,5.21c-3.64,3.64-6.87,7.88-9.68,12.72c-2.81,4.84-4.22,8.7-4.22,11.6c0,1.32,0.33,2.38,0.99,3.16
		c0.66,0.79,1.53,1.18,2.6,1.18C283.65,169.41,286.19,167.97,289.62,165.07z"/>
	<path d="M331.74,177.17c-1.32-1.28-1.98-2.62-1.98-4.03c0-0.74,0.12-1.37,0.37-1.86l22.58-65.38c0.66-1.98,0.99-3.47,0.99-4.47
		c0-0.99-0.25-1.9-0.74-2.73c-0.83-1.32-2.03-2.36-3.6-3.1c-1.32-0.66-1.74-1.24-1.24-1.74c1.07-0.5,2.34-0.97,3.78-1.43
		c1.45-0.45,2.38-0.72,2.79-0.81c2.15-0.5,4.53-0.97,7.13-1.43c2.6-0.45,4.28-0.68,5.02-0.68c0.41,0,0.76,0.21,1.05,0.62
		c0.29,0.41,0.44,0.91,0.44,1.49c-0.08,0.83-0.46,2.19-1.12,4.09l-24.19,69.1c-0.33,0.99-0.5,1.98-0.5,2.98
		c0,1.24,0.45,1.86,1.36,1.86c1.32,0,3.2-1.1,5.64-3.29c2.44-2.19,4.61-4.49,6.51-6.89c1.07-1.41,1.9-2.11,2.48-2.11
		c0.41,0,0.66,0.15,0.74,0.43c0.08,0.29,0.12,0.73,0.12,1.3c0,2.4-1.43,5.19-4.28,8.37s-6.18,5.91-9.99,8.19
		c-3.8,2.27-6.91,3.41-9.3,3.41C334.42,179.09,333.06,178.45,331.74,177.17z"/>
	<path d="M384.4,177.54c-0.45-0.29-0.68-0.76-0.68-1.43c0-0.58,0.33-1.05,0.99-1.43c0.66-0.37,1.65-0.72,2.98-1.05
		c3.22-0.83,6.26-2.03,9.12-3.6c2.85-1.57,5.27-3.47,7.26-5.71c5.95-6.61,11.47-13.02,16.56-19.23c5.09-6.2,11.52-14.14,19.29-23.82
		l10.54-13.15c0.74-0.83,1.47-1.74,2.17-2.73c0.7-0.99,1.18-1.69,1.43-2.11c1.41-2.15,2.36-3.23,2.85-3.23
		c1.74,0,3.12-0.23,4.16-0.68c1.03-0.45,2.21-1.26,3.53-2.42c1.07-0.99,2-1.8,2.79-2.42c0.79-0.62,1.43-0.93,1.92-0.93
		c0.74,0,1.12,0.74,1.12,2.23c0,0.74-0.12,1.74-0.37,2.98l-12.65,63.76c-0.33,1.57-0.5,3.02-0.5,4.34c0,1.98,0.45,3.52,1.36,4.59
		c0.91,1.08,2.4,1.86,4.47,2.36c1.49,0.5,2.48,0.87,2.98,1.12c0.5,0.25,0.74,0.66,0.74,1.24c0,1.08-1.28,1.61-3.85,1.61
		c-0.91,0-3.19-0.08-6.82-0.25c-3.06-0.25-6.24-0.37-9.55-0.37l-8.19,0.12c-1.57,0.08-3.64,0.12-6.2,0.12
		c-1.66,0-2.61-0.54-2.85-1.61c-0.08-0.58,0.21-1.12,0.87-1.61c0.66-0.5,1.53-0.83,2.6-0.99c3.8-0.66,6.47-1.59,8-2.79
		c1.53-1.2,2.71-3.37,3.54-6.51l3.85-14.89c0.25-0.99,0.08-1.74-0.5-2.23c-0.58-0.5-1.45-0.74-2.6-0.74l-15.63,0.25
		c-1.16,0-2.09,0.17-2.79,0.5c-0.7,0.33-1.34,0.91-1.92,1.74l-11.29,14.76c-1.98,2.56-2.98,4.59-2.98,6.08
		c0,0.91,0.37,1.66,1.12,2.23c0.74,0.58,1.78,1.08,3.1,1.49c2.07,0.58,3.1,1.49,3.1,2.73c0,0.5-0.35,0.89-1.05,1.18
		c-0.7,0.29-1.55,0.44-2.54,0.44c-1.98,0-3.56-0.04-4.71-0.12l-6.58-0.12c-1.82,0-3.45,0.04-4.9,0.12
		c-1.45,0.08-2.67,0.17-3.66,0.25c-2.73,0.25-5.21,0.37-7.44,0.37C385.58,177.97,384.85,177.83,384.4,177.54z M446.98,141.5
		c0.83,0,1.47-0.21,1.92-0.62c0.45-0.41,0.81-1.16,1.05-2.23l5.95-27.17c0.17-0.99,0.25-1.61,0.25-1.86c0-0.5-0.21-0.74-0.62-0.74
		c-0.66,0-1.36,0.46-2.11,1.36l-22.21,28.78c-0.66,0.83-0.99,1.41-0.99,1.74c0,0.58,0.95,0.87,2.85,0.87L446.98,141.5z"/>
	<path d="M479.86,178.16c-1.08-0.79-1.61-1.67-1.61-2.67c0-0.74,0.21-1.8,0.62-3.16c0.41-1.36,0.95-2.87,1.61-4.53l11.79-30.64
		c0.33-0.99,0.5-1.69,0.5-2.11c0-1.16-0.5-1.74-1.49-1.74c-2.23,0-4.39,0.7-6.45,2.11c-0.33,0.25-0.66,0.37-0.99,0.37
		c-0.83,0-1.24-0.45-1.24-1.36c-0.08-0.99,0.35-2.05,1.3-3.16c0.95-1.12,2.17-2.17,3.66-3.16c2.98-1.98,6.08-2.98,9.3-2.98
		c3.64,0,5.46,1.66,5.46,4.96c0,2.07-0.74,4.92-2.23,8.56l-5.33,13.03l-0.12,0.5c0,0.5,0.25,0.74,0.74,0.74
		c0.41,0,0.7-0.2,0.87-0.62c4.88-8.43,9.63-15.13,14.27-20.1c4.63-4.96,8.64-7.44,12.03-7.44c2.15,0,3.78,0.64,4.9,1.92
		c1.12,1.28,1.67,2.92,1.67,4.9c0,2.73-0.74,5.27-2.23,7.63c-1.49,2.36-3.14,3.53-4.96,3.53c-1.49,0-2.32-1.57-2.48-4.71
		c-0.25-2.98-1.16-4.46-2.73-4.46c-2.07,0-5.01,2.81-8.81,8.43c-1.65,2.32-4.26,6.29-7.82,11.91c-3.56,5.62-6.49,10.5-8.81,14.64
		c-2.32,4.13-4.03,6.97-5.15,8.5c-1.12,1.53-2.21,2.3-3.29,2.3C481.92,179.34,480.93,178.94,479.86,178.16z"/>
	<path d="M529.66,177.1c-1.36-1.32-2.05-2.52-2.05-3.6c0-0.99,0.14-2,0.43-3.04c0.29-1.03,0.68-2.13,1.18-3.29l11.79-32.5
		c0.08-0.25,0.12-0.54,0.12-0.87c0-0.83-0.5-1.24-1.49-1.24l-5.21-0.25c-1.74-0.08-2.6-0.74-2.6-1.98c0-0.41,0.54-1.1,1.61-2.05
		c1.07-0.95,2.15-1.43,3.23-1.43h5.09c0.99,0,1.65-0.14,1.98-0.43c0.33-0.29,0.78-0.97,1.36-2.05l3.1-6.45
		c0.66-1.32,1.88-2.71,3.66-4.16c1.78-1.45,3.12-2.17,4.03-2.17c0.66,0,1.14,0.27,1.43,0.81c0.29,0.54,0.44,1.18,0.44,1.92
		c0,0.42-0.08,1.04-0.25,1.86l-3.1,8.68c-0.08,0.25-0.12,0.54-0.12,0.87c0,0.41,0.14,0.68,0.43,0.81c0.29,0.12,0.72,0.19,1.3,0.19
		c1.65,0,3.43,0.15,5.34,0.44c1.9,0.29,3.06,0.48,3.47,0.56c1.4,0.25,2.29,0.52,2.67,0.81c0.37,0.29,0.56,0.72,0.56,1.3
		c0,0.25-0.23,0.58-0.68,0.99c-0.46,0.41-1.14,0.66-2.05,0.74c-4.3,0.33-7.4,0.54-9.3,0.62c-1.41,0.08-2.42,0.27-3.04,0.56
		c-0.62,0.29-1.05,0.81-1.3,1.55l-10.42,28.78c-0.42,0.99-0.62,2.03-0.62,3.1c0,1.41,0.79,2.11,2.36,2.11
		c2.23,0,6.04-2.56,11.41-7.69c0.58-0.58,1.14-0.89,1.68-0.93c0.54-0.04,0.81,0.15,0.81,0.56c0.08,0.08,0.12,0.29,0.12,0.62
		c0,0.74-0.37,1.7-1.12,2.85c-1.49,2.23-3.66,4.55-6.51,6.95c-2.85,2.4-5.75,4.4-8.68,6.02c-2.94,1.61-5.32,2.42-7.13,2.42
		C532.33,179.09,531.03,178.43,529.66,177.1z"/>
	<path class="st1" d="M368.05,279.49c-1.65-0.08-3.31-0.17-4.96-0.25c-5.54-0.42-10.42-0.62-14.64-0.62c-1.49,0-3.64,0.08-6.45,0.25
		c-2.48,0.25-5.25,0.37-8.31,0.37c-1.74,0-2.6-0.5-2.6-1.49c0.25-1.32,1.65-2.11,4.22-2.36c3.55-0.33,6.04-1.12,7.44-2.36
		c1.41-1.24,2.6-3.39,3.6-6.45l18.24-56.94c0.25-0.75,0.37-1.45,0.37-2.11c0-1.24-0.43-2.23-1.3-2.98
		c-0.87-0.75-2.09-1.32-3.66-1.74c-1.57-0.41-3.14-0.78-4.71-1.12c-1.9-0.41-2.73-1.24-2.48-2.48c0-0.5,0.33-0.89,0.99-1.18
		c0.66-0.29,1.49-0.44,2.48-0.44c3.31,0,6.45,0.12,9.43,0.37c3.64,0.17,6.28,0.25,7.94,0.25c2.07,0,4.09-0.12,6.08-0.37
		c4.47-0.25,7.24-0.37,8.31-0.37c7.69,0,14.39,1.36,20.1,4.09c5.71,2.73,10.11,6.68,13.21,11.85c3.1,5.17,4.65,11.27,4.65,18.3
		c0,8.44-2.32,16.33-6.95,23.69c-4.63,7.36-11.04,13.23-19.23,17.62c-8.19,4.38-17.29,6.57-27.29,6.57
		C371.2,279.62,369.71,279.58,368.05,279.49z M392.74,269.01c6.04-4.42,10.79-10.21,14.27-17.37c3.47-7.15,5.21-14.53,5.21-22.14
		c0-9.26-2.11-16.19-6.33-20.78c-4.22-4.59-10.09-6.88-17.62-6.88c-2.81,0-4.92,0.21-6.33,0.62c-1.41,0.41-2.38,1.01-2.92,1.8
		c-0.54,0.79-1.1,2.01-1.68,3.66L360.61,262c-0.58,1.74-0.87,3.39-0.87,4.96c0,5.79,4.38,8.68,13.15,8.68
		C380.09,275.65,386.7,273.44,392.74,269.01z"/>
	<path class="st1" d="M434.61,278.56c-2.03-1.37-3.72-3.1-5.09-5.21c-1.37-2.11-2.05-4.24-2.05-6.39c0-5.95,1.55-12.09,4.65-18.42
		c3.1-6.33,7.17-11.58,12.22-15.75c5.04-4.18,10.34-6.27,15.88-6.27c3.47,0,6.14,0.7,8,2.11c1.86,1.41,2.79,3.27,2.79,5.58
		c0,4.8-2.65,8.54-7.94,11.23c-5.29,2.69-12.2,4.86-20.72,6.51c-0.5,0.08-0.85,0.19-1.05,0.31c-0.21,0.12-0.39,0.39-0.56,0.81
		c-1.24,4.05-1.9,7.11-1.98,9.18c0,2.98,0.66,5.34,1.98,7.07c1.32,1.74,3.22,2.6,5.71,2.6c2.48,0,4.69-0.6,6.64-1.8
		c1.94-1.2,3.86-2.79,5.77-4.78c0.83-0.91,1.53-1.36,2.11-1.36c0.83,0,1.24,0.41,1.24,1.24c0,0.58-0.08,0.99-0.25,1.24
		c-5.54,9.43-12.7,14.14-21.46,14.14C438.6,280.61,436.63,279.93,434.61,278.56z M450.8,246.44c2.89-1.12,5.48-2.71,7.75-4.78
		c2.27-2.07,3.45-4.59,3.53-7.57c0-1.07-0.29-2-0.87-2.79c-0.58-0.78-1.41-1.18-2.48-1.18c-1.98,0-4.24,1.05-6.76,3.16
		c-2.52,2.11-4.71,4.59-6.57,7.44c-1.86,2.85-2.87,5.19-3.04,7.01c0,0.66,0.29,0.91,0.87,0.74
		C445.38,248.23,447.9,247.55,450.8,246.44z"/>
	<path class="st1" d="M469.16,278.69c-1.57-1.2-2.36-2.79-2.36-4.78c0-1.9,0.43-3.43,1.3-4.59c0.87-1.16,1.8-1.74,2.79-1.74
		c0.5,0,1.14,0.29,1.92,0.87c0.78,0.58,1.55,1.24,2.29,1.98c1.49,1.32,2.79,2.32,3.91,2.98s2.46,0.99,4.03,0.99
		c1.82,0,3.29-0.64,4.4-1.92c1.12-1.28,1.72-2.79,1.8-4.53c0-2.98-1.45-6.9-4.34-11.79c-2.9-4.8-4.34-8.6-4.34-11.41
		c0-2.89,1.1-5.75,3.29-8.56c2.19-2.81,4.73-5.13,7.63-6.95c2.89-1.82,5.21-2.73,6.95-2.73c1.4,0,2.81,0.35,4.22,1.05
		c1.41,0.7,2.56,1.53,3.47,2.48c0.91,0.95,1.37,1.8,1.37,2.54c0,0.99-0.64,2.21-1.92,3.66c-1.28,1.45-2.42,2.17-3.41,2.17
		c-0.5,0-0.99-0.21-1.49-0.62s-0.89-0.81-1.18-1.18c-0.29-0.37-0.52-0.64-0.68-0.81c-1.57-1.74-3.31-2.61-5.21-2.61
		c-1.32,0-2.4,0.5-3.23,1.49c-0.83,0.99-1.24,2.23-1.24,3.72c0,1.74,1.65,5.42,4.96,11.04c1.49,2.23,2.67,4.53,3.53,6.89
		c0.87,2.36,1.3,4.49,1.3,6.39c0,2.81-1.22,5.6-3.66,8.37c-2.44,2.77-5.5,5.02-9.18,6.76c-3.68,1.74-7.3,2.61-10.85,2.61
		C472.75,280.49,470.72,279.89,469.16,278.69z"/>
	<path class="st1" d="M511.21,278.88c-1.16-1.07-1.74-2.23-1.74-3.47c0-0.75,0.17-1.49,0.5-2.23c2.56-5.37,4.94-10.79,7.13-16.25
		c2.19-5.46,3.49-8.68,3.91-9.68c1.07-3.06,2.07-5.62,2.98-7.69l0.12-0.5c0-0.5-0.25-0.74-0.74-0.74c-0.74,0-2.05,0.46-3.91,1.37
		c-1.86,0.91-3.54,1.9-5.02,2.98c-0.5,0.25-0.91,0.37-1.24,0.37c-0.91,0-1.36-0.29-1.36-0.87c0-0.91,1.05-2.34,3.16-4.28
		c2.11-1.94,4.73-3.95,7.88-6.02c3.14-2.07,6.2-3.76,9.18-5.09c0.5-0.17,0.87-0.25,1.12-0.25c1.24,0,2.36,0.58,3.35,1.74
		c0.99,1.16,1.32,2.15,0.99,2.98l-14.64,35.36c-0.5,1.08-0.75,2.07-0.75,2.98c0,0.83,0.54,1.24,1.61,1.24
		c2.32,0,6.74-3.27,13.27-9.8c0.25-0.25,0.41-0.37,0.5-0.37c0.33,0,0.6,0.11,0.81,0.31c0.2,0.21,0.31,0.48,0.31,0.81
		c0,1.82-1.41,4.24-4.22,7.26c-2.81,3.02-6.06,5.69-9.74,8c-3.68,2.32-6.8,3.47-9.37,3.47
		C513.73,280.49,512.37,279.95,511.21,278.88z M535.89,213.81c-0.99-1.12-1.49-2.42-1.49-3.91c0-2.32,0.78-4.34,2.36-6.08
		c1.57-1.74,3.51-2.6,5.83-2.6c1.49,0,2.69,0.64,3.6,1.92c0.91,1.28,1.36,2.71,1.36,4.28c0,2.15-0.81,4.03-2.42,5.64
		c-1.61,1.61-3.49,2.42-5.64,2.42C538.08,215.48,536.89,214.93,535.89,213.81z"/>
	<path class="st1" d="M545.32,313.05c-4.05-1.12-7.26-2.69-9.61-4.71c-2.36-2.03-3.54-4.36-3.54-7.01c0-2.73,2.23-5.27,6.7-7.63
		s10.34-4.69,17.62-7.01c0.74-0.25,0.83-0.62,0.25-1.12c-1.98-1.49-3.52-2.85-4.59-4.09c-1.08-1.24-1.61-2.52-1.61-3.85
		c0-1.32,0.64-2.62,1.92-3.91c1.28-1.28,3.16-2.71,5.64-4.28c0.83-0.74,1.24-1.24,1.24-1.49c0-0.25-0.37-0.54-1.12-0.87
		c-5.04-2.48-7.57-6.57-7.57-12.28c0-3.72,1.12-7.82,3.35-12.28c2.23-4.47,5.27-8.25,9.12-11.35c3.85-3.1,8.13-4.65,12.84-4.65
		c1.82,0,3.31,0.27,4.47,0.81c1.16,0.54,1.86,0.85,2.11,0.93c0.25,0.08,0.89,0.37,1.92,0.87c1.03,0.5,1.88,0.74,2.54,0.74
		c1.07,0,3.02-0.25,5.83-0.74c2.65-0.58,4.67-0.87,6.08-0.87c0.74,0,1.43,0.25,2.05,0.74c0.62,0.5,0.93,1.24,0.93,2.23
		c0,1.41-0.27,2.52-0.81,3.35c-0.54,0.83-1.14,1.24-1.8,1.24c-0.58,0-1.39-0.08-2.42-0.25c-1.04-0.16-1.8-0.29-2.29-0.37
		c-1.9-0.41-3.43-0.62-4.59-0.62c-1.24,0-1.7,0.54-1.36,1.61c0.25,1.24,0.37,2.6,0.37,4.09c0,4.3-1.12,8.64-3.35,13.03
		c-2.23,4.38-5.19,8-8.87,10.85c-3.68,2.85-7.55,4.28-11.6,4.28c-1.32,0-2.4,0.33-3.23,0.99c-0.83,0.91-1.24,1.94-1.24,3.1
		c0,1.32,0.37,2.46,1.12,3.41c0.74,0.95,2.11,2.05,4.09,3.29c1.57,1.16,4.59,3.14,9.06,5.95c3.47,2.15,5.87,3.68,7.19,4.59
		c3.56,2.65,5.34,5.29,5.34,7.94c0,2.89-1.49,5.65-4.47,8.25c-2.98,2.6-6.72,4.71-11.23,6.33c-4.51,1.61-8.87,2.42-13.09,2.42
		C553.84,314.73,549.37,314.17,545.32,313.05z M572.98,308.34c2.48-1.61,3.72-3.62,3.72-6.02c0-1.16-0.37-2.36-1.12-3.6
		c-0.74-1.24-1.9-2.32-3.47-3.23c-1.24-0.91-2.77-1.92-4.59-3.04c-1.82-1.12-3.23-1.92-4.22-2.42c-1.16-0.66-2.15-0.99-2.98-0.99
		c-0.58,0-1.53,0.17-2.85,0.5c-4.96,1.57-8.68,3.23-11.16,4.96c-2.48,1.74-3.72,3.89-3.72,6.45c0,1.82,0.93,3.47,2.79,4.96
		c1.86,1.49,4.34,2.67,7.44,3.53s6.47,1.3,10.11,1.3C567.15,310.76,570.5,309.95,572.98,308.34z M571.5,259.58
		c2.56-3.51,4.73-7.65,6.51-12.4c1.78-4.75,2.67-8.54,2.67-11.35c0-1.41-0.39-2.69-1.18-3.85c-0.79-1.16-1.72-1.74-2.79-1.74
		c-2.23,0-4.65,1.67-7.26,5.02c-2.6,3.35-4.82,7.34-6.64,11.97c-1.82,4.63-2.77,8.56-2.85,11.78c0,1.66,0.41,3.02,1.24,4.09
		c0.83,1.08,1.82,1.61,2.98,1.61C566.49,264.82,568.93,263.1,571.5,259.58z"/>
	<path class="st1" d="M605.17,278.81c-1.12-1.2-1.68-2.5-1.68-3.91c0-0.66,0.08-1.16,0.25-1.49l13.65-33.74
		c0.66-1.57,0.99-2.69,0.99-3.35c0-0.83-0.41-1.24-1.24-1.24c-1.57,0-3.12,0.33-4.65,0.99c-1.53,0.66-3.12,2.07-4.78,4.22
		c-0.25,0.33-0.58,0.5-0.99,0.5c-0.66,0-1.04-0.33-1.12-0.99c-0.08-0.75,0.25-1.82,0.99-3.23c0.75-1.41,1.53-2.61,2.36-3.6
		c1.57-1.9,3.56-3.43,5.95-4.59c2.4-1.16,5.13-1.78,8.19-1.86c1.57,0,2.85,0.48,3.85,1.43c0.99,0.95,1.49,2.13,1.49,3.54
		c0,0.5-0.17,1.24-0.5,2.23l-7.57,19.48c-0.08,0.08-0.12,0.25-0.12,0.5c0,0.33,0.21,0.5,0.62,0.5c0.5,0,0.83-0.21,0.99-0.62
		c4.96-8.52,9.9-15.15,14.82-19.91c4.92-4.75,9.49-7.13,13.71-7.13c2.4,0,4.3,0.85,5.71,2.54c1.41,1.7,2.11,3.83,2.11,6.39
		c0,1.98-0.42,3.97-1.24,5.95l-10.67,25.18c-0.58,1.16-0.87,2.11-0.87,2.85c0,0.91,0.45,1.36,1.37,1.36c1.4,0,3.55-0.99,6.45-2.98
		c2.89-1.98,4.92-3.55,6.08-4.71c0.5-0.5,0.87-0.74,1.12-0.74s0.5,0.12,0.74,0.37c0.25,0.25,0.37,0.54,0.37,0.87
		c0,0.91-0.29,1.82-0.87,2.73c-3.56,4.22-7.46,7.63-11.72,10.23c-4.26,2.6-8.33,3.91-12.22,3.91c-1.16,0-2.25-0.48-3.29-1.43
		c-1.04-0.95-1.55-2-1.55-3.16c0-0.58,0.08-0.99,0.25-1.24l4.47-9.8c5.13-11.66,8.6-19.81,10.42-24.44
		c0.74-1.82,1.12-3.47,1.12-4.96c0-1.65-0.7-2.56-2.11-2.73c-2.57,0-6.66,3.64-12.28,10.92c-1.82,2.32-4.78,6.7-8.87,13.15
		c-4.09,6.45-7.84,12.65-11.23,18.61c-0.99,1.74-1.9,3.04-2.73,3.91c-0.83,0.87-1.7,1.3-2.6,1.3
		C607.34,280.61,606.29,280.01,605.17,278.81z"/>
	<path class="st1" d="M675.14,278.56c-2.03-1.37-3.72-3.1-5.09-5.21c-1.37-2.11-2.05-4.24-2.05-6.39c0-5.95,1.55-12.09,4.65-18.42
		c3.1-6.33,7.17-11.58,12.22-15.75c5.04-4.18,10.34-6.27,15.88-6.27c3.47,0,6.14,0.7,8,2.11c1.86,1.41,2.79,3.27,2.79,5.58
		c0,4.8-2.65,8.54-7.94,11.23c-5.29,2.69-12.2,4.86-20.72,6.51c-0.5,0.08-0.85,0.19-1.05,0.31c-0.21,0.12-0.39,0.39-0.56,0.81
		c-1.24,4.05-1.9,7.11-1.98,9.18c0,2.98,0.66,5.34,1.98,7.07c1.32,1.74,3.22,2.6,5.71,2.6s4.69-0.6,6.64-1.8
		c1.94-1.2,3.86-2.79,5.77-4.78c0.83-0.91,1.53-1.36,2.11-1.36c0.83,0,1.24,0.41,1.24,1.24c0,0.58-0.08,0.99-0.25,1.24
		c-5.54,9.43-12.7,14.14-21.46,14.14C679.13,280.61,677.16,279.93,675.14,278.56z M691.33,246.44c2.89-1.12,5.48-2.71,7.75-4.78
		c2.27-2.07,3.45-4.59,3.53-7.57c0-1.07-0.29-2-0.87-2.79c-0.58-0.78-1.41-1.18-2.48-1.18c-1.98,0-4.24,1.05-6.76,3.16
		c-2.52,2.11-4.71,4.59-6.57,7.44c-1.86,2.85-2.87,5.19-3.04,7.01c0,0.66,0.29,0.91,0.87,0.74
		C685.91,248.23,688.43,247.55,691.33,246.44z"/>
	<path class="st1" d="M716.63,279.56c-1.08-0.79-1.61-1.67-1.61-2.67c0-0.74,0.21-1.8,0.62-3.16c0.41-1.36,0.95-2.87,1.61-4.53
		l11.79-30.64c0.33-0.99,0.5-1.69,0.5-2.11c0-1.16-0.5-1.74-1.49-1.74c-2.23,0-4.39,0.7-6.45,2.11c-0.33,0.25-0.66,0.37-0.99,0.37
		c-0.83,0-1.24-0.45-1.24-1.36c-0.08-0.99,0.35-2.05,1.3-3.16c0.95-1.12,2.17-2.17,3.66-3.16c2.98-1.98,6.08-2.98,9.3-2.98
		c3.64,0,5.46,1.66,5.46,4.96c0,2.07-0.74,4.92-2.23,8.56l-5.33,13.03l-0.12,0.5c0,0.5,0.25,0.74,0.74,0.74
		c0.41,0,0.7-0.2,0.87-0.62c4.88-8.43,9.63-15.13,14.27-20.1c4.63-4.96,8.64-7.44,12.03-7.44c2.15,0,3.78,0.64,4.9,1.92
		c1.12,1.28,1.67,2.92,1.67,4.9c0,2.73-0.74,5.27-2.23,7.63c-1.49,2.36-3.14,3.53-4.96,3.53c-1.49,0-2.32-1.57-2.48-4.71
		c-0.25-2.98-1.16-4.46-2.73-4.46c-2.07,0-5.01,2.81-8.81,8.43c-1.65,2.32-4.26,6.29-7.82,11.91c-3.56,5.62-6.49,10.5-8.81,14.64
		c-2.32,4.13-4.03,6.97-5.15,8.5c-1.12,1.53-2.21,2.3-3.29,2.3C718.7,280.74,717.71,280.34,716.63,279.56z"/>
	<text transform="matrix(1 0 0 1 193.7358 219.7588)" class="st2 st3">PORTFOLIO</text>
	<text transform="matrix(1 0 0 1 24.0708 81.6978)" class="st2 st3">WELCOME TO MY</text>
</g>
</svg>
