<?xml version="1.0" encoding="utf-8"?>
<!-- Generator: Adobe Illustrator 27.0.0, SVG Export Plug-In . SVG Version: 6.00 Build 0)  -->
<svg version="1.1" id="Layer_1" xmlns="http://www.w3.org/2000/svg" xmlns:xlink="http://www.w3.org/1999/xlink" x="0px" y="0px"
	 viewBox="0 0 1114.5 435" style="enable-background:new 0 0 1114.5 435;" xml:space="preserve">
<style type="text/css">
	.st0{opacity:0.75;fill:url(#SVGID_1_);}
	.st1{fill:none;stroke:#000000;}
	.st2{opacity:0.75;}
	.st3{clip-path:url(#SVGID_00000090984461838872326400000012396776099565840535_);fill:#F2EBE0;}
	.st4{clip-path:url(#SVGID_00000090984461838872326400000012396776099565840535_);fill:#F2EBDF;}
	.st5{clip-path:url(#SVGID_00000090984461838872326400000012396776099565840535_);fill:#F2EBDE;}
	.st6{clip-path:url(#SVGID_00000090984461838872326400000012396776099565840535_);fill:#F2EBDD;}
	.st7{clip-path:url(#SVGID_00000090984461838872326400000012396776099565840535_);fill:#F1EBDC;}
	.st8{clip-path:url(#SVGID_00000090984461838872326400000012396776099565840535_);fill:#F1EBDB;}
	.st9{clip-path:url(#SVGID_00000090984461838872326400000012396776099565840535_);fill:#F1EBDA;}
	.st10{clip-path:url(#SVGID_00000090984461838872326400000012396776099565840535_);fill:#F1EBD9;}
	.st11{clip-path:url(#SVGID_00000090984461838872326400000012396776099565840535_);fill:#F1EBD8;}
	.st12{clip-path:url(#SVGID_00000090984461838872326400000012396776099565840535_);fill:#F1EBD7;}
	.st13{clip-path:url(#SVGID_00000090984461838872326400000012396776099565840535_);fill:#F1EAD7;}
	.st14{clip-path:url(#SVGID_00000090984461838872326400000012396776099565840535_);fill:#F1EAD6;}
	.st15{clip-path:url(#SVGID_00000090984461838872326400000012396776099565840535_);fill:#F1EAD5;}
	.st16{clip-path:url(#SVGID_00000090984461838872326400000012396776099565840535_);fill:#F0EAD4;}
	.st17{clip-path:url(#SVGID_00000090984461838872326400000012396776099565840535_);fill:#F0EAD3;}
	.st18{clip-path:url(#SVGID_00000090984461838872326400000012396776099565840535_);fill:#F0EAD2;}
	.st19{clip-path:url(#SVGID_00000090984461838872326400000012396776099565840535_);fill:#F0EAD1;}
	.st20{clip-path:url(#SVGID_00000090984461838872326400000012396776099565840535_);fill:#F0EAD0;}
	.st21{clip-path:url(#SVGID_00000090984461838872326400000012396776099565840535_);fill:#F0EACF;}
	.st22{clip-path:url(#SVGID_00000090984461838872326400000012396776099565840535_);fill:#F0EACE;}
	.st23{clip-path:url(#SVGID_00000090984461838872326400000012396776099565840535_);fill:#F0EACD;}
	.st24{clip-path:url(#SVGID_00000090984461838872326400000012396776099565840535_);fill:#EFEACC;}
	.st25{clip-path:url(#SVGID_00000090984461838872326400000012396776099565840535_);fill:#EFEACB;}
	.st26{clip-path:url(#SVGID_00000090984461838872326400000012396776099565840535_);fill:#EFEACA;}
	.st27{clip-path:url(#SVGID_00000090984461838872326400000012396776099565840535_);fill:#EFEAC9;}
	.st28{clip-path:url(#SVGID_00000090984461838872326400000012396776099565840535_);fill:#EFEAC8;}
	.st29{clip-path:url(#SVGID_00000090984461838872326400000012396776099565840535_);fill:#EFEAC7;}
	.st30{clip-path:url(#SVGID_00000090984461838872326400000012396776099565840535_);fill:#EFEAC6;}
	.st31{clip-path:url(#SVGID_00000090984461838872326400000012396776099565840535_);fill:#EFE9C6;}
	.st32{clip-path:url(#SVGID_00000090984461838872326400000012396776099565840535_);fill:#EEE9C5;}
	.st33{clip-path:url(#SVGID_00000090984461838872326400000012396776099565840535_);fill:#EEE9C4;}
	.st34{clip-path:url(#SVGID_00000090984461838872326400000012396776099565840535_);fill:#EEE9C3;}
	.st35{clip-path:url(#SVGID_00000090984461838872326400000012396776099565840535_);fill:#EEE9C2;}
	.st36{clip-path:url(#SVGID_00000090984461838872326400000012396776099565840535_);fill:#EEE9C1;}
	.st37{clip-path:url(#SVGID_00000090984461838872326400000012396776099565840535_);fill:#EEE9C0;}
	.st38{clip-path:url(#SVGID_00000090984461838872326400000012396776099565840535_);fill:#EEE9BF;}
	.st39{clip-path:url(#SVGID_00000090984461838872326400000012396776099565840535_);fill:#EEE9BE;}
	.st40{clip-path:url(#SVGID_00000090984461838872326400000012396776099565840535_);fill:#EDE9BD;}
	.st41{clip-path:url(#SVGID_00000090984461838872326400000012396776099565840535_);fill:#EDE9BC;}
	.st42{clip-path:url(#SVGID_00000090984461838872326400000012396776099565840535_);fill:#EDE9BB;}
	.st43{clip-path:url(#SVGID_00000090984461838872326400000012396776099565840535_);fill:#EDE9BA;}
	.st44{clip-path:url(#SVGID_00000090984461838872326400000012396776099565840535_);fill:#EDE9B9;}
	.st45{clip-path:url(#SVGID_00000090984461838872326400000012396776099565840535_);fill:#EDE9B8;}
	.st46{clip-path:url(#SVGID_00000090984461838872326400000012396776099565840535_);fill:#EDE9B7;}
	.st47{clip-path:url(#SVGID_00000090984461838872326400000012396776099565840535_);fill:#EDE9B6;}
	.st48{clip-path:url(#SVGID_00000090984461838872326400000012396776099565840535_);fill:#ECE9B5;}
	.st49{clip-path:url(#SVGID_00000090984461838872326400000012396776099565840535_);fill:#ECE8B4;}
	.st50{clip-path:url(#SVGID_00000090984461838872326400000012396776099565840535_);fill:#ECE8B3;}
	.st51{clip-path:url(#SVGID_00000090984461838872326400000012396776099565840535_);fill:#ECE8B2;}
	.st52{clip-path:url(#SVGID_00000090984461838872326400000012396776099565840535_);fill:#ECE8B1;}
	.st53{clip-path:url(#SVGID_00000090984461838872326400000012396776099565840535_);fill:#ECE8B0;}
	.st54{clip-path:url(#SVGID_00000090984461838872326400000012396776099565840535_);fill:#ECE8AF;}
	.st55{clip-path:url(#SVGID_00000090984461838872326400000012396776099565840535_);fill:#ECE8AE;}
	.st56{clip-path:url(#SVGID_00000090984461838872326400000012396776099565840535_);fill:#EBE8AE;}
	.st57{clip-path:url(#SVGID_00000090984461838872326400000012396776099565840535_);fill:#EBE8AD;}
	.st58{clip-path:url(#SVGID_00000090984461838872326400000012396776099565840535_);fill:#EBE8AC;}
	.st59{clip-path:url(#SVGID_00000090984461838872326400000012396776099565840535_);fill:#EBE8AB;}
	.st60{clip-path:url(#SVGID_00000090984461838872326400000012396776099565840535_);fill:#EBE8AA;}
	.st61{clip-path:url(#SVGID_00000090984461838872326400000012396776099565840535_);fill:#EBE8A9;}
	.st62{clip-path:url(#SVGID_00000090984461838872326400000012396776099565840535_);fill:#EBE8A8;}
	.st63{clip-path:url(#SVGID_00000090984461838872326400000012396776099565840535_);fill:#EBE8A7;}
	.st64{clip-path:url(#SVGID_00000090984461838872326400000012396776099565840535_);fill:#EAE8A6;}
	.st65{clip-path:url(#SVGID_00000090984461838872326400000012396776099565840535_);fill:#EAE8A5;}
	.st66{clip-path:url(#SVGID_00000090984461838872326400000012396776099565840535_);fill:#EAE8A4;}
	.st67{clip-path:url(#SVGID_00000090984461838872326400000012396776099565840535_);fill:#EAE7A3;}
	.st68{clip-path:url(#SVGID_00000090984461838872326400000012396776099565840535_);fill:#EAE7A2;}
	.st69{clip-path:url(#SVGID_00000090984461838872326400000012396776099565840535_);fill:#EAE7A1;}
	.st70{clip-path:url(#SVGID_00000090984461838872326400000012396776099565840535_);fill:#EAE7A0;}
	.st71{clip-path:url(#SVGID_00000090984461838872326400000012396776099565840535_);fill:#EAE79F;}
	.st72{clip-path:url(#SVGID_00000090984461838872326400000012396776099565840535_);fill:#E9E79E;}
	.st73{clip-path:url(#SVGID_00000090984461838872326400000012396776099565840535_);fill:#E9E79D;}
	.st74{clip-path:url(#SVGID_00000090984461838872326400000012396776099565840535_);fill:#E9E79C;}
	.st75{clip-path:url(#SVGID_00000090984461838872326400000012396776099565840535_);fill:#E9E79B;}
	.st76{clip-path:url(#SVGID_00000090984461838872326400000012396776099565840535_);fill:#E9E79A;}
	.st77{clip-path:url(#SVGID_00000090984461838872326400000012396776099565840535_);fill:#E9E799;}
	.st78{clip-path:url(#SVGID_00000090984461838872326400000012396776099565840535_);fill:#E9E798;}
	.st79{clip-path:url(#SVGID_00000090984461838872326400000012396776099565840535_);fill:#E9E797;}
	.st80{clip-path:url(#SVGID_00000090984461838872326400000012396776099565840535_);fill:#E8E796;}
	.st81{clip-path:url(#SVGID_00000090984461838872326400000012396776099565840535_);fill:#E8E795;}
	.st82{clip-path:url(#SVGID_00000090984461838872326400000012396776099565840535_);fill:#E8E794;}
	.st83{clip-path:url(#SVGID_00000090984461838872326400000012396776099565840535_);fill:#E8E793;}
	.st84{clip-path:url(#SVGID_00000090984461838872326400000012396776099565840535_);fill:#E8E692;}
	.st85{clip-path:url(#SVGID_00000090984461838872326400000012396776099565840535_);fill:#E8E691;}
	.st86{clip-path:url(#SVGID_00000090984461838872326400000012396776099565840535_);fill:#E8E690;}
	.st87{clip-path:url(#SVGID_00000090984461838872326400000012396776099565840535_);fill:#E8E68F;}
	.st88{clip-path:url(#SVGID_00000090984461838872326400000012396776099565840535_);fill:#E7E68E;}
	.st89{clip-path:url(#SVGID_00000090984461838872326400000012396776099565840535_);fill:#E7E68D;}
	.st90{clip-path:url(#SVGID_00000090984461838872326400000012396776099565840535_);fill:#E7E68C;}
	.st91{clip-path:url(#SVGID_00000090984461838872326400000012396776099565840535_);fill:#E7E68B;}
	.st92{clip-path:url(#SVGID_00000090984461838872326400000012396776099565840535_);fill:#E7E68A;}
	.st93{clip-path:url(#SVGID_00000090984461838872326400000012396776099565840535_);fill:#E7E689;}
	.st94{clip-path:url(#SVGID_00000090984461838872326400000012396776099565840535_);fill:#E7E688;}
	.st95{clip-path:url(#SVGID_00000090984461838872326400000012396776099565840535_);fill:#E6E687;}
	.st96{clip-path:url(#SVGID_00000090984461838872326400000012396776099565840535_);fill:#E6E686;}
	.st97{clip-path:url(#SVGID_00000090984461838872326400000012396776099565840535_);fill:#E6E685;}
	.st98{clip-path:url(#SVGID_00000090984461838872326400000012396776099565840535_);fill:#E6E684;}
	.st99{clip-path:url(#SVGID_00000090984461838872326400000012396776099565840535_);fill:#E6E683;}
	.st100{clip-path:url(#SVGID_00000090984461838872326400000012396776099565840535_);fill:#E6E682;}
	.st101{clip-path:url(#SVGID_00000090984461838872326400000012396776099565840535_);fill:#E6E581;}
	.st102{clip-path:url(#SVGID_00000090984461838872326400000012396776099565840535_);fill:#E6E580;}
	.st103{clip-path:url(#SVGID_00000090984461838872326400000012396776099565840535_);fill:#E5E57F;}
	.st104{clip-path:url(#SVGID_00000090984461838872326400000012396776099565840535_);fill:#E5E57E;}
	.st105{clip-path:url(#SVGID_00000090984461838872326400000012396776099565840535_);fill:#E5E57C;}
	.st106{clip-path:url(#SVGID_00000090984461838872326400000012396776099565840535_);fill:#E5E57B;}
	.st107{clip-path:url(#SVGID_00000090984461838872326400000012396776099565840535_);fill:#E5E57A;}
	.st108{clip-path:url(#SVGID_00000090984461838872326400000012396776099565840535_);fill:#E5E579;}
	.st109{clip-path:url(#SVGID_00000090984461838872326400000012396776099565840535_);fill:#E5E578;}
	.st110{clip-path:url(#SVGID_00000090984461838872326400000012396776099565840535_);fill:#E4E577;}
	.st111{clip-path:url(#SVGID_00000090984461838872326400000012396776099565840535_);fill:#E4E576;}
	.st112{clip-path:url(#SVGID_00000090984461838872326400000012396776099565840535_);fill:#E4E575;}
	.st113{clip-path:url(#SVGID_00000090984461838872326400000012396776099565840535_);fill:#E4E574;}
	.st114{clip-path:url(#SVGID_00000090984461838872326400000012396776099565840535_);fill:#E4E573;}
	.st115{clip-path:url(#SVGID_00000090984461838872326400000012396776099565840535_);fill:#E4E572;}
	.st116{clip-path:url(#SVGID_00000090984461838872326400000012396776099565840535_);fill:#E4E571;}
	.st117{clip-path:url(#SVGID_00000090984461838872326400000012396776099565840535_);fill:#E3E470;}
	.st118{clip-path:url(#SVGID_00000090984461838872326400000012396776099565840535_);fill:#E3E46F;}
	.st119{clip-path:url(#SVGID_00000090984461838872326400000012396776099565840535_);fill:#E3E46E;}
	.st120{clip-path:url(#SVGID_00000090984461838872326400000012396776099565840535_);fill:#E3E46C;}
	.st121{clip-path:url(#SVGID_00000090984461838872326400000012396776099565840535_);fill:#E3E46B;}
	.st122{clip-path:url(#SVGID_00000090984461838872326400000012396776099565840535_);fill:#E3E46A;}
	.st123{clip-path:url(#SVGID_00000090984461838872326400000012396776099565840535_);fill:#E3E469;}
	.st124{clip-path:url(#SVGID_00000090984461838872326400000012396776099565840535_);fill:#E2E468;}
	.st125{clip-path:url(#SVGID_00000090984461838872326400000012396776099565840535_);fill:#E2E467;}
	.st126{clip-path:url(#SVGID_00000090984461838872326400000012396776099565840535_);fill:#E2E466;}
	.st127{clip-path:url(#SVGID_00000090984461838872326400000012396776099565840535_);fill:#E2E465;}
	.st128{clip-path:url(#SVGID_00000090984461838872326400000012396776099565840535_);fill:#E2E464;}
	.st129{clip-path:url(#SVGID_00000090984461838872326400000012396776099565840535_);fill:#E2E463;}
	.st130{clip-path:url(#SVGID_00000090984461838872326400000012396776099565840535_);fill:#E2E462;}
	.st131{clip-path:url(#SVGID_00000090984461838872326400000012396776099565840535_);fill:#E1E460;}
	.st132{clip-path:url(#SVGID_00000090984461838872326400000012396776099565840535_);fill:#E1E45F;}
	.st133{clip-path:url(#SVGID_00000090984461838872326400000012396776099565840535_);fill:#E1E35E;}
	.st134{clip-path:url(#SVGID_00000090984461838872326400000012396776099565840535_);fill:#E1E35D;}
	.st135{clip-path:url(#SVGID_00000090984461838872326400000012396776099565840535_);fill:#E1E35C;}
	.st136{clip-path:url(#SVGID_00000090984461838872326400000012396776099565840535_);fill:#E1E35B;}
	.st137{clip-path:url(#SVGID_00000090984461838872326400000012396776099565840535_);fill:#E1E35A;}
	.st138{clip-path:url(#SVGID_00000090984461838872326400000012396776099565840535_);fill:#E0E359;}
	.st139{clip-path:url(#SVGID_00000090984461838872326400000012396776099565840535_);fill:#E0E358;}
	.st140{clip-path:url(#SVGID_00000090984461838872326400000012396776099565840535_);fill:#E0E356;}
	.st141{clip-path:url(#SVGID_00000090984461838872326400000012396776099565840535_);fill:#E0E355;}
	.st142{clip-path:url(#SVGID_00000090984461838872326400000012396776099565840535_);fill:#E0E354;}
	.st143{clip-path:url(#SVGID_00000090984461838872326400000012396776099565840535_);fill:#E0E353;}
	.st144{clip-path:url(#SVGID_00000090984461838872326400000012396776099565840535_);fill:#E0E352;}
	.st145{clip-path:url(#SVGID_00000090984461838872326400000012396776099565840535_);fill:#DFE351;}
	.st146{clip-path:url(#SVGID_00000090984461838872326400000012396776099565840535_);fill:#DFE350;}
	.st147{clip-path:url(#SVGID_00000090984461838872326400000012396776099565840535_);fill:#DFE34F;}
	.st148{clip-path:url(#SVGID_00000090984461838872326400000012396776099565840535_);fill:#DFE24D;}
	.st149{clip-path:url(#SVGID_00000090984461838872326400000012396776099565840535_);fill:#DFE24C;}
	.st150{clip-path:url(#SVGID_00000090984461838872326400000012396776099565840535_);fill:#DFE24B;}
	.st151{clip-path:url(#SVGID_00000090984461838872326400000012396776099565840535_);fill:#DFE24A;}
	.st152{clip-path:url(#SVGID_00000090984461838872326400000012396776099565840535_);fill:#DEE249;}
	.st153{clip-path:url(#SVGID_00000090984461838872326400000012396776099565840535_);fill:#DEE248;}
	.st154{clip-path:url(#SVGID_00000090984461838872326400000012396776099565840535_);fill:#DEE247;}
	.st155{clip-path:url(#SVGID_00000090984461838872326400000012396776099565840535_);fill:#DEE246;}
	.st156{clip-path:url(#SVGID_00000090984461838872326400000012396776099565840535_);fill:#DEE244;}
	.st157{clip-path:url(#SVGID_00000090984461838872326400000012396776099565840535_);fill:#DEE243;}
	.st158{clip-path:url(#SVGID_00000090984461838872326400000012396776099565840535_);fill:#DEE242;}
	.st159{clip-path:url(#SVGID_00000090984461838872326400000012396776099565840535_);fill:#DDE241;}
	.st160{clip-path:url(#SVGID_00000090984461838872326400000012396776099565840535_);fill:#DDE240;}
	.st161{clip-path:url(#SVGID_00000090984461838872326400000012396776099565840535_);fill:#DDE23F;}
	.st162{clip-path:url(#SVGID_00000090984461838872326400000012396776099565840535_);fill:#DDE23E;}
	.st163{clip-path:url(#SVGID_00000090984461838872326400000012396776099565840535_);fill:#DDE23C;}
	.st164{clip-path:url(#SVGID_00000090984461838872326400000012396776099565840535_);fill:#DDE13B;}
	.st165{clip-path:url(#SVGID_00000090984461838872326400000012396776099565840535_);fill:#DDE13A;}
	.st166{clip-path:url(#SVGID_00000090984461838872326400000012396776099565840535_);fill:#DCE139;}
	.st167{clip-path:url(#SVGID_00000090984461838872326400000012396776099565840535_);fill:#DCE138;}
	.st168{clip-path:url(#SVGID_00000090984461838872326400000012396776099565840535_);fill:#DCE137;}
	.st169{clip-path:url(#SVGID_00000090984461838872326400000012396776099565840535_);fill:#DCE135;}
	.st170{clip-path:url(#SVGID_00000090984461838872326400000012396776099565840535_);fill:#DCE134;}
	.st171{clip-path:url(#SVGID_00000090984461838872326400000012396776099565840535_);fill:#DCE133;}
	.st172{clip-path:url(#SVGID_00000090984461838872326400000012396776099565840535_);fill:#DBE132;}
	.st173{clip-path:url(#SVGID_00000090984461838872326400000012396776099565840535_);fill:#DBE131;}
	.st174{clip-path:url(#SVGID_00000090984461838872326400000012396776099565840535_);fill:#DBE130;}
	.st175{clip-path:url(#SVGID_00000090984461838872326400000012396776099565840535_);fill:#DBE12E;}
	.st176{clip-path:url(#SVGID_00000090984461838872326400000012396776099565840535_);fill:#DBE12D;}
	.st177{clip-path:url(#SVGID_00000090984461838872326400000012396776099565840535_);fill:#DBE12C;}
	.st178{clip-path:url(#SVGID_00000090984461838872326400000012396776099565840535_);fill:#DBE02B;}
	.st179{clip-path:url(#SVGID_00000090984461838872326400000012396776099565840535_);fill:#DAE02A;}
	.st180{clip-path:url(#SVGID_00000090984461838872326400000012396776099565840535_);fill:#DAE029;}
	.st181{clip-path:url(#SVGID_00000090984461838872326400000012396776099565840535_);fill:#DAE027;}
	.st182{clip-path:url(#SVGID_00000090984461838872326400000012396776099565840535_);fill:#DAE026;}
	.st183{clip-path:url(#SVGID_00000090984461838872326400000012396776099565840535_);fill:#DAE025;}
	.st184{clip-path:url(#SVGID_00000090984461838872326400000012396776099565840535_);fill:#DAE024;}
	.st185{clip-path:url(#SVGID_00000090984461838872326400000012396776099565840535_);fill:#D9E023;}
	.st186{clip-path:url(#SVGID_00000090984461838872326400000012396776099565840535_);fill:#D9E022;}
	.st187{clip-path:url(#SVGID_00000090984461838872326400000012396776099565840535_);fill:#D9E020;}
	.st188{clip-path:url(#SVGID_00000090984461838872326400000012396776099565840535_);fill:#D9E01F;}
	.st189{clip-path:url(#SVGID_00000090984461838872326400000012396776099565840535_);fill:#D9E01E;}
	.st190{clip-path:url(#SVGID_00000090984461838872326400000012396776099565840535_);fill:#D9E01D;}
	.st191{clip-path:url(#SVGID_00000090984461838872326400000012396776099565840535_);fill:#D9E01C;}
	.st192{clip-path:url(#SVGID_00000090984461838872326400000012396776099565840535_);fill:#D8E01A;}
	.st193{clip-path:url(#SVGID_00000090984461838872326400000012396776099565840535_);fill:#D8DF19;}
	.st194{clip-path:url(#SVGID_00000090984461838872326400000012396776099565840535_);fill:#D8DF18;}
	.st195{clip-path:url(#SVGID_00000090984461838872326400000012396776099565840535_);fill:#D8DF17;}
	.st196{clip-path:url(#SVGID_00000090984461838872326400000012396776099565840535_);fill:#D8DF16;}
	.st197{clip-path:url(#SVGID_00000090984461838872326400000012396776099565840535_);fill:#D8DF14;}
	.st198{clip-path:url(#SVGID_00000090984461838872326400000012396776099565840535_);fill:#D7DF13;}
	.st199{clip-path:url(#SVGID_00000090984461838872326400000012396776099565840535_);fill:#D7DF12;}
	.st200{clip-path:url(#SVGID_00000090984461838872326400000012396776099565840535_);fill:#D7DF11;}
	.st201{clip-path:url(#SVGID_00000090984461838872326400000012396776099565840535_);fill:#D7DF10;}
	.st202{clip-path:url(#SVGID_00000090984461838872326400000012396776099565840535_);fill:#D7DF0E;}
	.st203{clip-path:url(#SVGID_00000090984461838872326400000012396776099565840535_);fill:#D7DF0D;}
	.st204{clip-path:url(#SVGID_00000090984461838872326400000012396776099565840535_);fill:#D7DF0C;}
	.st205{clip-path:url(#SVGID_00000090984461838872326400000012396776099565840535_);fill:#D6DF0B;}
	.st206{clip-path:url(#SVGID_00000090984461838872326400000012396776099565840535_);fill:#D6DF0A;}
	.st207{clip-path:url(#SVGID_00000090984461838872326400000012396776099565840535_);fill:#D6DE08;}
	.st208{clip-path:url(#SVGID_00000090984461838872326400000012396776099565840535_);fill:#D6DE07;}
	.st209{clip-path:url(#SVGID_00000090984461838872326400000012396776099565840535_);fill:#D6DE06;}
	.st210{clip-path:url(#SVGID_00000090984461838872326400000012396776099565840535_);fill:#D6DE05;}
	.st211{clip-path:url(#SVGID_00000090984461838872326400000012396776099565840535_);fill:#D5DE04;}
	.st212{clip-path:url(#SVGID_00000090984461838872326400000012396776099565840535_);fill:#D5DE02;}
	.st213{clip-path:url(#SVGID_00000090984461838872326400000012396776099565840535_);fill:#D5DE01;}
	.st214{clip-path:url(#SVGID_00000090984461838872326400000012396776099565840535_);fill:#D5DE00;}
	.st215{fill:none;stroke:#2F312E;stroke-miterlimit:10;}
	.st216{opacity:0.75;fill:url(#SVGID_00000049944222786620646890000010451893103600900511_);}
	.st217{fill:#F2EBE0;}
	.st218{fill:none;stroke:#F2EBE0;stroke-miterlimit:10;}
	.st219{fill:#D5DE00;}
	.st220{fill:#F2EBE0;stroke:#000000;stroke-width:0.5;stroke-miterlimit:10;}
	.st221{fill:none;stroke:#000000;stroke-width:0.5;stroke-miterlimit:10;}
	.st222{fill:none;stroke:#000000;stroke-width:0.25;stroke-miterlimit:10;}
	.st223{fill:none;stroke:#D5DE00;stroke-width:6;stroke-miterlimit:10;}
</style>
<g>
	<g>
		<path d="M183.01,262.45L63,252.96c-20.92-1.65-36.68-20.12-35.02-41.04l9.49-120.01c1.65-20.92,20.12-36.68,41.04-35.02
			l120.01,9.49c20.92,1.65,36.68,20.12,35.02,41.04l-9.49,120.01C222.39,248.34,203.92,264.1,183.01,262.45z"/>
	</g>
	<g>
		<path class="st217" d="M169.5,236.7c-0.84,0-1.68-0.03-2.52-0.1l-84.08-6.65c-17.41-1.38-30.45-16.66-29.07-34.07l6.65-84.08
			c1.38-17.41,16.66-30.46,34.07-29.07l84.08,6.65c17.41,1.38,30.45,16.66,29.07,34.07l-6.65,84.08
			c-0.66,8.4-4.58,16.06-11.04,21.56C184.2,234.05,177,236.7,169.5,236.7z M92.02,83.63c-15.82,0-29.28,12.21-30.55,28.25
			l-6.65,84.08c-1.33,16.86,11.3,31.66,28.16,32.99l84.08,6.65c8.13,0.64,16.05-1.94,22.3-7.27c6.25-5.33,10.05-12.75,10.69-20.88
			l6.65-84.08c1.33-16.86-11.3-31.66-28.16-32.99l-84.08-6.65C93.64,83.66,92.83,83.63,92.02,83.63z"/>
	</g>
	<g>
		<g>
			<path class="st217" d="M85.79,243l-4.26-0.34c-6.54-0.52-12.71-2.47-18.35-5.8l0.51-0.86c5.5,3.26,11.53,5.16,17.92,5.67
				l4.26,0.34L85.79,243z"/>
		</g>
		<g>
			<path class="st217" d="M63.18,236.86c-14.06-8.32-22.31-24.15-21.03-40.34l6.9-87.18c1.87-23.58,22.55-41.25,46.14-39.38
				l4.26,0.34l-0.08,1l-4.26-0.34c-23.03-1.82-43.24,15.43-45.07,38.46l-6.9,87.18c-1.25,15.81,6.81,31.27,20.54,39.4L63.18,236.86z
				"/>
		</g>
		<g>
			<path class="st217" d="M193.15,244.12l-0.49-0.87c12.17-6.91,20.1-19.3,21.19-33.15l6.9-87.18c0.88-11.11-2.65-21.93-9.94-30.47
				c-7.29-8.54-17.42-13.72-28.52-14.6l-4.26-0.34l0.08-1l4.26,0.34c11.37,0.9,21.75,6.21,29.21,14.95s11.07,19.82,10.17,31.19
				l-6.9,87.18C213.73,224.36,205.61,237.04,193.15,244.12z"/>
		</g>
		<g>
			<path class="st217" d="M172.1,249.69c-1.13,0-2.26-0.04-3.39-0.13l-4.26-0.34l0.08-1l4.26,0.34c8.33,0.65,16.59-1.18,23.87-5.31
				l0.49,0.87C186.68,247.79,179.46,249.69,172.1,249.69z"/>
		</g>
	</g>
	<g>
		<g>
			<path class="st219" d="M138.17,222c-0.32,0-0.64-0.06-0.96-0.17c-1.67-0.59-8.9-5.59-7.63-47.37
				c-5.32,41.46-13.24,45.26-14.98,45.58c-1.59,0.29-3.03-0.72-4.05-2.85c-3.48-7.31-2.77-33.5,16.64-54.49
				c-23.78,15.87-49.76,12.46-56.43,7.87c-1.95-1.34-2.72-2.92-2.18-4.44c0.59-1.67,5.59-8.89,47.37-7.63
				c-41.46-5.32-45.26-13.24-45.58-14.98c-0.29-1.59,0.72-3.03,2.85-4.05c7.31-3.48,33.5-2.77,54.49,16.64
				c-15.87-23.78-12.46-49.76-7.87-56.43c1.34-1.95,2.92-2.72,4.44-2.18c1.67,0.59,8.9,5.59,7.63,47.37
				c5.32-41.46,13.24-45.26,14.98-45.58c1.59-0.29,3.03,0.72,4.05,2.85c3.48,7.31,2.77,33.5-16.64,54.49
				c23.78-15.87,49.76-12.46,56.43-7.87c1.95,1.34,2.72,2.92,2.18,4.44c-0.59,1.67-5.6,8.89-47.37,7.63
				c41.46,5.32,45.26,13.24,45.58,14.98c0.29,1.59-0.72,3.03-2.85,4.05c-7.31,3.48-33.5,2.77-54.49-16.64
				c15.87,23.78,12.46,49.76,7.87,56.43C140.6,221.19,139.39,222,138.17,222z M131.21,161.28c-2.7,44.04,2.57,58.27,6.34,59.61
				c1.36,0.48,2.54-0.71,3.29-1.8C145.47,212.34,148.81,185.31,131.21,161.28z M130.05,161.18c-21.16,20.97-22.11,48.18-18.59,55.57
				c0.57,1.19,1.54,2.57,2.96,2.3C118.36,218.33,125.79,205.1,130.05,161.18z M132.27,160.37c20.97,21.16,48.18,22.11,55.57,18.59
				c1.19-0.57,2.56-1.54,2.3-2.96C189.42,172.07,176.19,164.63,132.27,160.37z M107.06,159.38c-26.92,0-36.44,4.03-37.52,7.08
				c-0.48,1.36,0.71,2.54,1.8,3.29c6.74,4.64,33.77,7.98,57.81-9.62C120.74,159.61,113.41,159.38,107.06,159.38z M132.36,159.21
				c44.04,2.69,58.27-2.57,59.61-6.34c0.48-1.36-0.71-2.54-1.8-3.29C183.43,144.95,156.4,141.61,132.36,159.21z M83.36,138.81
				c-4.32,0-7.72,0.62-9.69,1.56c-1.19,0.57-2.56,1.54-2.3,2.96c0.73,3.93,13.96,11.37,57.87,15.63
				C113.88,143.47,95.17,138.81,83.36,138.81z M147.44,100.25c-0.11,0-0.23,0.01-0.35,0.03c-3.93,0.73-11.37,13.96-15.63,57.87
				c21.16-20.97,22.11-48.18,18.59-55.57C149.53,101.48,148.67,100.25,147.44,100.25z M123.34,98.34c-1.09,0-2.03,1-2.66,1.91
				c-4.64,6.74-7.98,33.77,9.62,57.8c2.7-44.04-2.57-58.27-6.34-59.61C123.75,98.38,123.54,98.34,123.34,98.34z"/>
		</g>
		<g>
			<path class="st219" d="M159.38,215.05c-0.67,0-1.41-0.14-2.23-0.43c-7.63-2.71-25.64-21.73-26.76-50.3
				c-5.59,28.04-26.37,43.99-34.34,45.46c-2.32,0.43-3.99-0.14-4.68-1.6c-2.11-4.44,4.73-16.88,28.26-39.02
				c-25.57,19.76-38.93,24.56-42.98,21.77c-1.33-0.92-1.63-2.65-0.85-4.88c2.71-7.63,21.73-25.64,50.3-26.76
				c-28.04-5.59-43.99-26.37-45.47-34.33c-0.43-2.32,0.14-3.99,1.6-4.68c4.44-2.11,16.88,4.73,39.02,28.26
				c-19.76-25.57-24.56-38.93-21.77-42.98c0.92-1.33,2.65-1.64,4.88-0.85c7.63,2.71,25.64,21.73,26.76,50.3
				c5.59-28.04,26.37-43.99,34.34-45.46c2.32-0.43,3.99,0.14,4.68,1.6c2.12,4.44-4.73,16.88-28.26,39.02
				c25.57-19.76,38.93-24.56,42.98-21.77c1.33,0.92,1.63,2.65,0.85,4.88c-2.71,7.63-21.73,25.64-50.3,26.76
				c28.04,5.59,43.99,26.37,45.47,34.34c0.43,2.32-0.14,3.99-1.6,4.68c-4.44,2.12-16.88-4.73-39.02-28.26
				c19.76,25.57,24.56,38.93,21.77,42.98C161.44,214.62,160.53,215.05,159.38,215.05z M131.33,161.24
				c-0.14,29.79,18.44,49.71,26.15,52.44c1.25,0.44,2.9,0.72,3.72-0.47C163.47,209.91,159.37,195.3,131.33,161.24z M129.94,161.13
				c-33.05,29.23-39.39,43.02-37.67,46.63c0.62,1.3,2.3,1.29,3.6,1.05C103.92,207.32,125.39,190.57,129.94,161.13z M132.21,160.48
				c29.23,33.04,43.02,39.39,46.63,37.67c1.3-0.62,1.29-2.3,1.05-3.6C178.41,186.5,161.66,165.03,132.21,160.48z M128.86,160.24
				c-29.61,0-49.39,18.46-52.11,26.15c-0.44,1.25-0.72,2.9,0.47,3.72c3.3,2.27,17.91-1.83,51.97-29.87
				C129.08,160.24,128.97,160.24,128.86,160.24z M132.33,159.09c0.11,0,0.22,0,0.33,0c29.61,0,49.39-18.46,52.11-26.15
				c0.44-1.25,0.72-2.9-0.47-3.72C181,126.96,166.39,131.05,132.33,159.09z M83.99,120.93c-0.54,0-0.98,0.09-1.33,0.26
				c-1.3,0.62-1.29,2.3-1.05,3.6c1.49,8.05,18.24,29.52,47.68,34.07C102.87,128.98,89.07,120.93,83.99,120.93z M166.9,110.4
				c-0.43,0-0.86,0.05-1.26,0.13c-8.05,1.49-29.52,18.24-34.07,47.68c33.05-29.23,39.39-43.02,37.67-46.63
				C168.81,110.67,167.87,110.4,166.9,110.4z M102.13,105.28c-0.72,0-1.39,0.22-1.82,0.85c-2.27,3.3,1.83,17.91,29.87,51.97
				c0.14-29.79-18.44-49.71-26.15-52.44C103.44,105.45,102.77,105.28,102.13,105.28z"/>
		</g>
	</g>
	<g>
		<path class="st217" d="M128.72,75.95l-5.19-0.41l-1.33,3.03l-2.42-0.19l6.12-12.99l2.09,0.17L132,79.35l-2.43-0.19L128.72,75.95z
			 M124.33,73.72l3.88,0.31l-1.5-5.71L124.33,73.72z"/>
		<path class="st217" d="M138.84,74.71l-2.59-0.21l-0.41,5.15l-2.33-0.18l1.06-13.39l4.71,0.37c1.54,0.12,2.71,0.56,3.49,1.32
			c0.79,0.76,1.13,1.8,1.02,3.11c-0.07,0.9-0.35,1.63-0.83,2.2c-0.48,0.57-1.12,0.99-1.92,1.25l2.57,5.81l-0.01,0.12l-2.49-0.2
			L138.84,74.71z M136.39,72.63l2.39,0.19c0.78,0.06,1.41-0.09,1.89-0.45c0.47-0.36,0.74-0.88,0.79-1.57
			c0.06-0.72-0.1-1.29-0.48-1.71c-0.38-0.42-0.97-0.67-1.78-0.75l-2.46-0.19L136.39,72.63z"/>
		<path class="st217" d="M155.39,69.62l-4.17-0.33L150.3,80.8L148,80.62l0.91-11.51l-4.14-0.33l0.15-1.88l10.62,0.84L155.39,69.62z"
			/>
	</g>
	<g>
		
			<rect x="113.17" y="181.22" transform="matrix(0.0788 -0.9969 0.9969 0.0788 -130.3789 349.1284)" width="21.11" height="127.79"/>
	</g>
	<g>
		<path class="st217" d="M77.29,248.54l1.06-13.39l3.95,0.31c1.18,0.09,2.21,0.44,3.09,1.04c0.88,0.6,1.53,1.4,1.95,2.41
			c0.43,1.01,0.59,2.14,0.49,3.39l-0.05,0.67c-0.1,1.27-0.44,2.37-1.02,3.29c-0.58,0.92-1.36,1.61-2.34,2.05
			c-0.98,0.45-2.07,0.62-3.28,0.53L77.29,248.54z M80.53,237.22l-0.76,9.66l1.52,0.12c1.22,0.1,2.19-0.21,2.9-0.92
			c0.71-0.71,1.13-1.78,1.26-3.21l0.06-0.74c0.11-1.45-0.11-2.59-0.68-3.4c-0.57-0.82-1.46-1.27-2.66-1.37L80.53,237.22z"/>
		<path class="st217" d="M92.05,249.71l-2.32-0.18l1.06-13.39l2.32,0.18L92.05,249.71z"/>
		<path class="st217" d="M100.23,245.18l-2.59-0.21l-0.41,5.15l-2.33-0.18l1.06-13.39l4.71,0.37c1.54,0.12,2.71,0.56,3.49,1.32
			c0.79,0.76,1.13,1.8,1.02,3.11c-0.07,0.9-0.35,1.63-0.83,2.2c-0.48,0.57-1.12,0.99-1.92,1.25l2.57,5.81l-0.01,0.12l-2.49-0.2
			L100.23,245.18z M97.79,243.1l2.39,0.19c0.78,0.06,1.41-0.09,1.89-0.45c0.47-0.36,0.74-0.88,0.79-1.57
			c0.06-0.72-0.1-1.29-0.48-1.71s-0.97-0.67-1.78-0.75l-2.45-0.19L97.79,243.1z"/>
		<path class="st217" d="M114.96,245.51l-5.5-0.44l-0.33,4.12l6.43,0.51l-0.15,1.86l-8.75-0.69l1.06-13.39l8.69,0.69l-0.15,1.88
			l-6.36-0.5l-0.29,3.7l5.5,0.44L114.96,245.51z"/>
		<path class="st217" d="M127.87,248.16c-0.25,1.42-0.86,2.49-1.85,3.22c-0.98,0.73-2.24,1.03-3.76,0.91
			c-1.07-0.08-1.98-0.41-2.76-0.98c-0.77-0.57-1.34-1.34-1.71-2.3c-0.37-0.97-0.51-2.07-0.43-3.3l0.1-1.25
			c0.1-1.26,0.41-2.36,0.94-3.29c0.52-0.93,1.22-1.62,2.1-2.07c0.88-0.46,1.86-0.64,2.96-0.55c1.48,0.12,2.63,0.61,3.47,1.48
			c0.84,0.87,1.27,2.05,1.3,3.52l-2.32-0.18c-0.03-0.97-0.26-1.69-0.68-2.15c-0.42-0.46-1.06-0.73-1.93-0.8
			c-1.01-0.08-1.82,0.23-2.42,0.92c-0.6,0.7-0.96,1.76-1.09,3.19l-0.09,1.19c-0.12,1.45,0.06,2.57,0.51,3.38
			c0.46,0.8,1.19,1.24,2.19,1.32c0.91,0.07,1.62-0.08,2.11-0.45c0.49-0.38,0.84-1.04,1.04-1.98L127.87,248.16z"/>
		<path class="st217" d="M139.92,241.91l-4.17-0.33l-0.91,11.51l-2.31-0.18l0.91-11.51l-4.14-0.33l0.15-1.88l10.62,0.84
			L139.92,241.91z"/>
		<path class="st217" d="M143.22,253.76l-2.32-0.18l1.06-13.39l2.32,0.18L143.22,253.76z"/>
		<path class="st217" d="M157.26,248.49c-0.1,1.31-0.42,2.44-0.95,3.4c-0.53,0.95-1.24,1.66-2.12,2.13
			c-0.88,0.46-1.88,0.65-2.97,0.57c-1.08-0.08-2.03-0.43-2.84-1.03c-0.81-0.6-1.4-1.4-1.79-2.42c-0.39-1.02-0.53-2.17-0.44-3.45
			l0.06-0.75c0.1-1.31,0.43-2.44,0.97-3.4c0.54-0.96,1.26-1.68,2.14-2.14c0.88-0.46,1.87-0.65,2.96-0.57
			c1.09,0.09,2.04,0.42,2.84,1.01c0.8,0.59,1.39,1.4,1.78,2.42c0.38,1.02,0.52,2.18,0.43,3.49L157.26,248.49z M154.99,247.6
			c0.12-1.48-0.07-2.64-0.57-3.48c-0.5-0.84-1.26-1.29-2.29-1.38c-1-0.08-1.82,0.25-2.45,1c-0.63,0.74-1.01,1.83-1.13,3.27
			l-0.06,0.77c-0.12,1.47,0.08,2.63,0.59,3.48c0.51,0.85,1.27,1.31,2.29,1.39c1.03,0.08,1.85-0.25,2.47-0.99
			c0.62-0.74,0.99-1.87,1.1-3.37L154.99,247.6z"/>
		<path class="st217" d="M169.7,255.85l-2.33-0.18l-5.22-9.97l-0.75,9.5l-2.33-0.18l1.06-13.39l2.33,0.18l5.23,10.01l0.75-9.54
			l2.31,0.18L169.7,255.85z"/>
	</g>
</g>
<g>
	<g>
		<g>
			<path d="M1043.14,393.79c-22.58,0-56.18-22.11-83.79-57.31c-16.87-21.51-29.03-44.64-34.23-65.14
				c-5.22-20.56-2.81-36.03,6.77-43.55c19.73-15.47,64.14,8.11,99.01,52.56c34.87,44.46,47.18,93.21,27.45,108.68
				C1054.25,392.27,1049.08,393.79,1043.14,393.79z M947.18,223.52c-5.85,0-10.93,1.5-14.97,4.67c-9.42,7.39-11.76,22.67-6.6,43.03
				c5.18,20.43,17.31,43.5,34.13,64.95c27.51,35.08,60.94,57.15,83.33,57.15c5.85,0,10.93-1.5,14.97-4.67
				c19.51-15.3,7.16-63.74-27.54-107.98C1003,245.59,969.57,223.52,947.18,223.52z"/>
		</g>
		<g>
			<g>
				<path d="M1012.38,331.16c-47.22,39.34-96.77,57.88-111.57,41.95c0.11,0.14,0.19,0.29,0.3,0.42c0.17,0.2,0.36,0.37,0.54,0.56
					c0.11,0.14,0.19,0.29,0.3,0.42c0.17,0.2,0.36,0.37,0.54,0.56c0.11,0.14,0.19,0.29,0.31,0.42c0.17,0.2,0.36,0.37,0.54,0.56
					c0.11,0.14,0.19,0.29,0.3,0.42c0.17,0.2,0.36,0.37,0.54,0.56c0.11,0.14,0.19,0.29,0.31,0.42c0.17,0.2,0.36,0.37,0.54,0.56
					c0.11,0.14,0.19,0.29,0.3,0.42c0.17,0.2,0.36,0.37,0.54,0.56c0.11,0.14,0.19,0.29,0.3,0.42c0.17,0.2,0.36,0.37,0.54,0.56
					c0.11,0.14,0.19,0.29,0.3,0.42c0.17,0.2,0.36,0.37,0.54,0.56c0.11,0.14,0.19,0.29,0.31,0.42c0.17,0.2,0.36,0.37,0.54,0.56
					c0.11,0.14,0.19,0.29,0.3,0.42c0.17,0.2,0.36,0.37,0.54,0.56c0.11,0.14,0.19,0.29,0.3,0.42c0.17,0.2,0.36,0.37,0.54,0.56
					c0.11,0.14,0.19,0.29,0.3,0.42c0.17,0.2,0.36,0.37,0.54,0.56c0.11,0.14,0.19,0.29,0.3,0.42c0.17,0.2,0.36,0.37,0.54,0.56
					c0.11,0.14,0.19,0.29,0.31,0.42c0.17,0.2,0.36,0.37,0.54,0.56c0.11,0.14,0.19,0.29,0.3,0.42c0.17,0.2,0.36,0.37,0.54,0.56
					c0.11,0.14,0.19,0.29,0.31,0.42c0.17,0.2,0.36,0.37,0.54,0.56c0.11,0.14,0.19,0.29,0.3,0.42c0.17,0.2,0.36,0.37,0.54,0.56
					c0.11,0.14,0.19,0.29,0.3,0.42c0.17,0.2,0.36,0.37,0.54,0.56c0.11,0.14,0.19,0.29,0.3,0.42c0.17,0.2,0.36,0.37,0.54,0.56
					c0.11,0.14,0.19,0.29,0.3,0.42c0.17,0.2,0.36,0.37,0.54,0.56c0.11,0.14,0.19,0.29,0.3,0.42c14.13,16.96,64.32-1.57,112.11-41.39
					c47.79-39.82,75.08-85.84,60.95-102.8c-0.17-0.2-0.36-0.37-0.54-0.56c-0.11-0.14-0.19-0.29-0.3-0.42
					c-0.17-0.2-0.36-0.37-0.54-0.56c-0.11-0.14-0.19-0.29-0.31-0.42c-0.17-0.2-0.36-0.37-0.54-0.56c-0.11-0.14-0.19-0.29-0.3-0.42
					c-0.17-0.2-0.36-0.37-0.54-0.56c-0.11-0.14-0.19-0.29-0.3-0.42c-0.17-0.2-0.36-0.37-0.54-0.56c-0.11-0.14-0.19-0.29-0.3-0.42
					c-0.17-0.2-0.36-0.37-0.54-0.56c-0.11-0.14-0.19-0.29-0.3-0.42c-0.17-0.2-0.36-0.37-0.54-0.56c-0.11-0.14-0.19-0.29-0.3-0.42
					c-0.17-0.2-0.36-0.37-0.54-0.56c-0.11-0.14-0.19-0.29-0.3-0.42c-0.17-0.2-0.36-0.37-0.54-0.56c-0.11-0.14-0.19-0.29-0.3-0.42
					c-0.17-0.2-0.36-0.37-0.54-0.56c-0.11-0.14-0.19-0.29-0.3-0.42c-0.17-0.2-0.36-0.37-0.54-0.56c-0.11-0.14-0.19-0.29-0.3-0.42
					c-0.17-0.2-0.36-0.37-0.54-0.56c-0.11-0.14-0.19-0.29-0.3-0.42c-0.17-0.2-0.36-0.37-0.54-0.56c-0.11-0.14-0.19-0.29-0.31-0.42
					c-0.17-0.2-0.36-0.37-0.54-0.56c-0.11-0.14-0.19-0.29-0.3-0.42c-0.17-0.2-0.36-0.37-0.54-0.56c-0.11-0.14-0.19-0.29-0.31-0.42
					c-0.17-0.2-0.36-0.37-0.54-0.56c-0.11-0.14-0.19-0.29-0.3-0.42c-0.17-0.2-0.36-0.37-0.54-0.56c-0.11-0.14-0.19-0.29-0.3-0.42
					c-0.17-0.2-0.36-0.37-0.54-0.56c-0.11-0.14-0.19-0.29-0.3-0.42c-0.17-0.2-0.36-0.37-0.54-0.56c-0.11-0.14-0.19-0.29-0.31-0.42
					c-0.17-0.2-0.36-0.37-0.54-0.56c-0.11-0.14-0.19-0.29-0.3-0.42c-0.17-0.2-0.36-0.37-0.54-0.56
					C1087,246.06,1059.79,291.66,1012.38,331.16z"/>
			</g>
		</g>
		<g>
			<g>
				<g>
					<path d="M922.65,400.86c-0.06-0.07-0.12-0.13-0.19-0.19c-0.13-0.13-0.27-0.27-0.39-0.41c-0.09-0.1-0.16-0.21-0.23-0.31
						c-0.03-0.05-0.06-0.1-0.1-0.14c-0.01,0-0.07-0.07-0.14-0.13c-0.13-0.13-0.27-0.26-0.39-0.41c-0.08-0.1-0.16-0.2-0.23-0.31
						c-0.03-0.05-0.06-0.09-0.1-0.14c-0.01,0-0.07-0.07-0.14-0.13c-0.13-0.13-0.27-0.26-0.39-0.41c-0.08-0.1-0.16-0.21-0.23-0.31
						c0,0-0.1-0.14-0.1-0.14c-0.01,0-0.07-0.06-0.12-0.12c-0.13-0.13-0.27-0.27-0.39-0.42c-0.08-0.1-0.16-0.21-0.23-0.31
						c-0.03-0.05-0.1-0.14-0.1-0.14c-0.01,0-0.07-0.06-0.13-0.12c-0.13-0.13-0.27-0.27-0.39-0.41c-0.08-0.1-0.16-0.21-0.23-0.32
						c-0.03-0.05-0.06-0.09-0.09-0.14c0,0,0,0,0,0c0,0-0.07-0.06-0.12-0.12c-0.14-0.13-0.27-0.27-0.39-0.42
						c-0.08-0.1-0.16-0.21-0.23-0.32c-0.03-0.05-0.06-0.09-0.09-0.14c0,0,0,0,0,0c0,0-0.07-0.06-0.13-0.12
						c-0.13-0.13-0.27-0.27-0.39-0.41c-0.09-0.11-0.16-0.21-0.23-0.32l-0.1-0.14c-0.01,0-0.07-0.06-0.13-0.12
						c-0.13-0.13-0.27-0.27-0.39-0.41c-0.08-0.1-0.16-0.2-0.23-0.31c-0.03-0.05-0.06-0.09-0.1-0.14c-0.01,0-0.07-0.07-0.14-0.13
						c-0.13-0.13-0.27-0.26-0.39-0.41c-0.08-0.1-0.15-0.2-0.23-0.31c-0.03-0.05-0.06-0.09-0.1-0.14c-0.01,0-0.07-0.07-0.14-0.13
						c-0.13-0.13-0.26-0.26-0.38-0.41c-0.08-0.1-0.16-0.21-0.23-0.31c-0.03-0.05-0.06-0.09-0.1-0.14c0,0,0,0,0,0
						c0,0-0.07-0.06-0.13-0.12c-0.13-0.13-0.27-0.27-0.39-0.41c-0.09-0.1-0.16-0.21-0.23-0.32c-0.03-0.05-0.06-0.09-0.1-0.14
						c0,0,0,0,0,0c-0.01,0-0.06-0.06-0.12-0.12c-0.14-0.13-0.27-0.27-0.39-0.42c-0.08-0.1-0.16-0.21-0.23-0.31
						c-0.03-0.05-0.1-0.14-0.1-0.14c-0.01,0-0.07-0.06-0.13-0.12c-0.13-0.13-0.27-0.27-0.39-0.41c-0.08-0.1-0.16-0.21-0.23-0.31
						c-0.03-0.05-0.1-0.14-0.1-0.14c-0.01,0-0.07-0.06-0.13-0.12c-0.13-0.13-0.27-0.27-0.39-0.41c-0.08-0.1-0.16-0.21-0.23-0.32
						c-0.03-0.05-0.1-0.14-0.1-0.14c-0.01,0-0.07-0.06-0.13-0.12c-0.13-0.13-0.27-0.26-0.39-0.41c-0.08-0.1-0.16-0.21-0.23-0.31
						c-0.03-0.05-0.1-0.14-0.1-0.14c-0.01,0-0.07-0.06-0.13-0.12c-0.13-0.13-0.27-0.27-0.39-0.41c-0.08-0.1-0.16-0.2-0.23-0.31
						c-0.03-0.05-0.06-0.09-0.1-0.14c-0.01,0-0.07-0.06-0.13-0.13c-0.13-0.13-0.27-0.27-0.39-0.41c-0.08-0.1-0.16-0.21-0.23-0.31
						c-0.03-0.05-0.1-0.14-0.1-0.14c-0.01,0-0.07-0.06-0.13-0.12c-0.14-0.13-0.27-0.27-0.39-0.41c-0.08-0.1-0.16-0.21-0.23-0.31
						c-0.03-0.05-0.1-0.14-0.1-0.14c-0.01,0-0.07-0.06-0.13-0.12c-0.13-0.13-0.27-0.27-0.39-0.42c-0.08-0.1-0.16-0.2-0.23-0.31
						c-0.03-0.05-0.06-0.09-0.1-0.14c-0.01,0-0.07-0.07-0.14-0.13c-0.13-0.13-0.26-0.26-0.38-0.41c-0.08-0.1-0.16-0.21-0.23-0.32
						c-0.03-0.05-0.1-0.14-0.1-0.14c-0.01,0-0.07-0.06-0.13-0.12c-0.13-0.13-0.27-0.27-0.39-0.41c-7.12-8.55-4.58-24.17,7.16-43.98
						c11.57-19.51,30.71-40.9,53.91-60.23c34.93-29.1,72.55-47.91,95.85-47.91c8.05,0,13.99,2.24,17.67,6.65
						c0.08,0.1,0.16,0.21,0.23,0.32c0.03,0.05,0.06,0.09,0.09,0.14c0,0,0,0,0,0c0,0,0.07,0.06,0.13,0.12
						c0.13,0.13,0.27,0.27,0.39,0.42c0.08,0.1,0.16,0.21,0.23,0.31c0.03,0.05,0.1,0.14,0.1,0.14c0.01,0,0.07,0.06,0.13,0.12
						c0.13,0.13,0.27,0.27,0.39,0.41c0.08,0.1,0.16,0.21,0.23,0.31c0.03,0.05,0.06,0.09,0.1,0.14c0,0,0.07,0.06,0.13,0.12
						c0.13,0.13,0.27,0.27,0.39,0.42c0.08,0.1,0.16,0.21,0.23,0.32c0.03,0.05,0.09,0.14,0.09,0.14c0.01,0,0.07,0.06,0.13,0.12
						c0.13,0.13,0.27,0.27,0.39,0.41c0.08,0.1,0.16,0.2,0.23,0.31c0.03,0.05,0.06,0.09,0.1,0.14c0.01,0,0.07,0.06,0.13,0.13
						c0.13,0.13,0.26,0.26,0.38,0.41c0.08,0.1,0.16,0.21,0.23,0.31c0.03,0.05,0.06,0.09,0.1,0.14c0.01,0,0.07,0.07,0.14,0.13
						c0.13,0.13,0.27,0.26,0.39,0.41c0.08,0.1,0.16,0.21,0.23,0.31c0.03,0.05,0.06,0.09,0.1,0.14c0,0,0,0,0,0
						c0,0,0.07,0.06,0.13,0.12c0.13,0.13,0.27,0.27,0.39,0.42c0.08,0.1,0.16,0.21,0.23,0.31c0.03,0.05,0.1,0.14,0.1,0.14
						c0.01,0,0.07,0.06,0.13,0.12c0.13,0.13,0.27,0.27,0.39,0.41c0.08,0.1,0.16,0.21,0.23,0.32c0.03,0.05,0.1,0.14,0.1,0.14
						c0.01,0,0.07,0.06,0.13,0.12c0.13,0.13,0.27,0.27,0.39,0.41c0.08,0.1,0.16,0.21,0.23,0.31c0.03,0.05,0.06,0.09,0.1,0.14
						c0,0,0,0,0,0c0,0,0.07,0.06,0.13,0.12c0.13,0.13,0.27,0.27,0.39,0.42c0.08,0.1,0.16,0.2,0.23,0.31
						c0.03,0.05,0.06,0.09,0.1,0.14c0.01,0,0.07,0.07,0.14,0.13c0.13,0.13,0.26,0.26,0.38,0.4c0.09,0.11,0.16,0.21,0.23,0.32
						c0.03,0.05,0.06,0.09,0.1,0.14c0,0,0,0,0,0c0.01,0,0.07,0.06,0.13,0.12c0.13,0.13,0.27,0.27,0.39,0.41
						c0.08,0.1,0.16,0.21,0.23,0.31c0.03,0.05,0.1,0.14,0.1,0.14c0.01,0,0.07,0.06,0.13,0.12c0.13,0.13,0.27,0.26,0.39,0.41
						c0.08,0.1,0.16,0.21,0.23,0.31c0.03,0.05,0.1,0.14,0.1,0.14c0.01,0,0.07,0.06,0.13,0.12c0.13,0.13,0.27,0.27,0.39,0.42
						c0.08,0.1,0.16,0.21,0.23,0.32c0,0,0.09,0.14,0.1,0.14c0.01,0,0.07,0.06,0.12,0.12c0.13,0.13,0.27,0.27,0.39,0.41
						c0.08,0.1,0.16,0.21,0.23,0.31c0.03,0.05,0.06,0.09,0.1,0.14c0,0,0,0,0,0c0,0,0.06,0.06,0.12,0.12
						c0.14,0.13,0.27,0.27,0.39,0.42c0.08,0.1,0.16,0.2,0.23,0.31c0.03,0.05,0.06,0.09,0.1,0.14c0,0,0.07,0.06,0.13,0.12
						c0.13,0.13,0.27,0.27,0.39,0.42c0.08,0.1,0.16,0.2,0.23,0.31c0.03,0.05,0.1,0.14,0.1,0.14c0.01,0,0.07,0.06,0.13,0.12
						c0.13,0.13,0.27,0.27,0.39,0.41c0.08,0.1,0.16,0.21,0.23,0.32c0.03,0.05,0.1,0.14,0.1,0.14c0.01,0,0.07,0.06,0.13,0.12
						c0.13,0.13,0.27,0.27,0.39,0.41c0.08,0.1,0.16,0.21,0.23,0.32c0.03,0.05,0.06,0.09,0.09,0.14c0,0,0,0,0,0
						c0,0,0.07,0.06,0.12,0.12c0.14,0.13,0.27,0.27,0.39,0.42c0.08,0.1,0.16,0.2,0.23,0.31c0.03,0.04,0.06,0.09,0.09,0.13
						l-1.52,1.29c-3.32-3.57-8.59-5.38-15.66-5.38c-22.85,0-59.96,18.61-94.54,47.42c-46.68,38.89-74.09,84.2-61.1,100.99
						L922.65,400.86z"/>
				</g>
				<g>
					<path class="st217" d="M1062.07,229.41c7.5,0,13.35,2.02,16.9,6.29c0.11,0.13,0.2,0.29,0.3,0.42c0.18,0.19,0.37,0.36,0.54,0.56
						c0.11,0.13,0.2,0.29,0.3,0.42c0.18,0.19,0.37,0.36,0.54,0.56c0.11,0.13,0.2,0.29,0.3,0.42c0.18,0.19,0.37,0.36,0.54,0.56
						c0.11,0.13,0.2,0.29,0.3,0.42c0.18,0.19,0.37,0.36,0.54,0.56c0.11,0.13,0.2,0.29,0.3,0.42c0.18,0.19,0.37,0.36,0.54,0.56
						c0.11,0.13,0.2,0.29,0.31,0.42c0.18,0.19,0.37,0.36,0.54,0.56c0.11,0.13,0.2,0.29,0.3,0.42c0.18,0.19,0.37,0.36,0.54,0.56
						c0.11,0.13,0.2,0.29,0.31,0.42c0.18,0.19,0.37,0.36,0.54,0.56c0.11,0.13,0.2,0.29,0.3,0.42c0.18,0.19,0.37,0.36,0.54,0.56
						c0.11,0.13,0.2,0.29,0.3,0.42c0.18,0.19,0.37,0.36,0.54,0.56c0.11,0.13,0.2,0.29,0.3,0.42c0.18,0.19,0.37,0.36,0.54,0.56
						c0.11,0.13,0.2,0.29,0.3,0.42c0.18,0.19,0.37,0.36,0.54,0.56c0.11,0.13,0.2,0.29,0.31,0.42c0.18,0.19,0.37,0.36,0.54,0.56
						c0.11,0.13,0.2,0.29,0.3,0.42c0.18,0.19,0.37,0.36,0.54,0.56c0.11,0.13,0.2,0.29,0.3,0.42c0.18,0.19,0.37,0.36,0.54,0.56
						c0.11,0.13,0.2,0.29,0.3,0.42c0.18,0.19,0.37,0.36,0.54,0.56c0.11,0.13,0.2,0.29,0.31,0.42c0.18,0.19,0.37,0.36,0.54,0.56
						c0.11,0.13,0.2,0.29,0.3,0.42c0.18,0.19,0.37,0.36,0.54,0.56c0.11,0.13,0.2,0.29,0.31,0.42c0.18,0.19,0.37,0.36,0.54,0.56
						c0.11,0.13,0.2,0.29,0.3,0.42c0.18,0.19,0.37,0.36,0.54,0.56c0.11,0.13,0.2,0.29,0.3,0.42c-3.59-3.87-9.23-5.7-16.39-5.7
						c-22.33,0-59.42,17.86-95.18,47.65c-47.41,39.5-74.62,85.09-61.25,102.37c-0.18-0.19-0.37-0.36-0.54-0.56
						c-0.11-0.13-0.2-0.29-0.3-0.42c-0.18-0.19-0.37-0.36-0.54-0.56c-0.11-0.13-0.2-0.29-0.31-0.42c-0.18-0.19-0.37-0.36-0.54-0.56
						c-0.11-0.13-0.2-0.29-0.3-0.42c-0.18-0.19-0.37-0.36-0.54-0.56c-0.11-0.13-0.2-0.29-0.3-0.42c-0.18-0.19-0.37-0.36-0.54-0.56
						c-0.11-0.13-0.2-0.29-0.3-0.42c-0.18-0.19-0.37-0.36-0.54-0.56c-0.11-0.13-0.2-0.29-0.31-0.42c-0.18-0.19-0.37-0.36-0.54-0.56
						c-0.11-0.13-0.2-0.29-0.3-0.42c-0.18-0.19-0.37-0.36-0.54-0.56c-0.11-0.13-0.2-0.29-0.31-0.42c-0.18-0.19-0.37-0.36-0.54-0.56
						c-0.11-0.13-0.2-0.29-0.3-0.42c-0.18-0.19-0.37-0.36-0.54-0.56c-0.11-0.13-0.2-0.29-0.3-0.42c-0.18-0.19-0.37-0.36-0.54-0.56
						c-0.11-0.13-0.2-0.29-0.3-0.42c-0.18-0.19-0.37-0.36-0.54-0.56c-0.11-0.13-0.2-0.29-0.3-0.42c-0.18-0.19-0.37-0.36-0.54-0.56
						c-0.11-0.13-0.2-0.29-0.3-0.42c-0.18-0.19-0.37-0.36-0.54-0.56c-0.11-0.13-0.2-0.29-0.3-0.42c-0.18-0.19-0.37-0.36-0.54-0.56
						c-0.11-0.13-0.2-0.29-0.3-0.42c-0.18-0.19-0.37-0.36-0.54-0.56c-0.11-0.13-0.2-0.29-0.3-0.42c-0.18-0.19-0.37-0.36-0.54-0.56
						c-0.11-0.13-0.2-0.29-0.3-0.42c-0.18-0.19-0.37-0.36-0.54-0.56c-0.11-0.13-0.2-0.29-0.3-0.42c-0.18-0.19-0.37-0.36-0.54-0.56
						c-0.11-0.13-0.2-0.29-0.3-0.42c-0.18-0.19-0.37-0.36-0.54-0.56c-0.11-0.13-0.2-0.29-0.3-0.42c-0.18-0.19-0.37-0.36-0.54-0.56
						c-14.13-16.96,13.16-62.98,60.95-102.8C1002.62,247.28,1039.73,229.41,1062.07,229.41 M1062.07,227.41L1062.07,227.41
						c-23.52,0-61.39,18.9-96.49,48.14c-23.28,19.4-42.51,40.88-54.13,60.49c-11.98,20.2-14.49,36.23-7.07,45.13
						c0.14,0.17,0.3,0.33,0.45,0.48c0.03,0.03,0.06,0.06,0.08,0.08c0.01,0.01,0.01,0.02,0.02,0.03c0.09,0.13,0.18,0.27,0.29,0.39
						c0.14,0.17,0.3,0.33,0.45,0.48c0.03,0.03,0.06,0.06,0.09,0.08c0.01,0.01,0.01,0.02,0.02,0.03c0.09,0.13,0.18,0.27,0.29,0.39
						c0.14,0.17,0.3,0.33,0.46,0.48c0.03,0.03,0.06,0.06,0.08,0.08c0.01,0.01,0.01,0.02,0.02,0.03c0.09,0.14,0.19,0.27,0.29,0.39
						c0.14,0.17,0.3,0.33,0.45,0.48c0.03,0.03,0.06,0.06,0.08,0.08c0.01,0.01,0.01,0.02,0.02,0.03c0.09,0.13,0.18,0.27,0.29,0.39
						c0.14,0.17,0.3,0.33,0.45,0.48c0.03,0.03,0.06,0.06,0.09,0.08c0.01,0.01,0.01,0.02,0.02,0.03c0.09,0.13,0.19,0.27,0.29,0.39
						c0.14,0.17,0.3,0.33,0.45,0.48c0.03,0.03,0.06,0.06,0.08,0.08c0.01,0.01,0.01,0.02,0.02,0.03c0.09,0.13,0.18,0.27,0.29,0.39
						c0.14,0.17,0.3,0.33,0.45,0.48c0.03,0.03,0.06,0.06,0.09,0.08c0.01,0.01,0.01,0.02,0.02,0.03c0.09,0.13,0.18,0.27,0.29,0.39
						c0.14,0.17,0.3,0.33,0.45,0.48c0.03,0.03,0.06,0.06,0.09,0.09c0.01,0.01,0.01,0.02,0.02,0.03c0.09,0.13,0.18,0.27,0.29,0.39
						c0.14,0.17,0.3,0.33,0.45,0.48c0.03,0.03,0.06,0.06,0.09,0.08c0.01,0.01,0.01,0.02,0.02,0.03c0.09,0.13,0.18,0.27,0.29,0.39
						c0.14,0.17,0.3,0.33,0.45,0.48c0.03,0.03,0.06,0.06,0.08,0.08c0.01,0.01,0.01,0.02,0.02,0.03c0.09,0.13,0.19,0.27,0.29,0.39
						c0.14,0.17,0.3,0.33,0.45,0.48c0.03,0.03,0.06,0.06,0.08,0.08c0.01,0.01,0.01,0.02,0.02,0.03c0.09,0.13,0.18,0.27,0.29,0.39
						c0.14,0.17,0.3,0.33,0.45,0.48c0.03,0.03,0.06,0.06,0.09,0.08c0.01,0.01,0.01,0.02,0.02,0.03c0.09,0.13,0.18,0.27,0.29,0.39
						c0.14,0.17,0.3,0.33,0.45,0.48c0.03,0.03,0.06,0.06,0.09,0.08c0.01,0.01,0.01,0.02,0.02,0.03c0.09,0.13,0.18,0.27,0.29,0.39
						c0.14,0.17,0.3,0.33,0.46,0.48c0.03,0.03,0.06,0.06,0.08,0.08c0.01,0.01,0.01,0.02,0.02,0.03c0.09,0.13,0.19,0.27,0.29,0.39
						c0.14,0.17,0.3,0.33,0.45,0.48c0.03,0.03,0.06,0.06,0.09,0.08c0.01,0.01,0.01,0.02,0.02,0.03c0.09,0.14,0.19,0.27,0.29,0.39
						c0.14,0.17,0.3,0.33,0.45,0.48c0.03,0.03,0.06,0.06,0.09,0.08c0.01,0.01,0.01,0.02,0.02,0.03c0.09,0.13,0.19,0.27,0.29,0.39
						c0.14,0.17,0.3,0.33,0.45,0.48c0.03,0.03,0.06,0.06,0.09,0.08c0.01,0.01,0.01,0.02,0.02,0.03c0.09,0.13,0.18,0.27,0.29,0.39
						c0.14,0.17,0.3,0.33,0.45,0.48c0.03,0.03,0.06,0.06,0.09,0.08c0.01,0.01,0.01,0.02,0.02,0.03c0.09,0.14,0.19,0.27,0.29,0.39
						c0.14,0.17,0.3,0.33,0.45,0.48c0.03,0.03,0.06,0.06,0.09,0.09c0.01,0.01,0.01,0.02,0.02,0.03c0.09,0.13,0.19,0.27,0.29,0.39
						c0.14,0.17,0.3,0.33,0.45,0.48c0.03,0.03,0.06,0.06,0.09,0.08c0.01,0.01,0.01,0.02,0.02,0.03c0.09,0.13,0.18,0.27,0.29,0.39
						c0.14,0.17,0.3,0.33,0.45,0.48c0.05,0.05,0.11,0.11,0.16,0.16l3.05-2.58c-5.84-7.55-2.94-22.35,7.97-40.6
						c11.42-19.1,30.24-40.06,52.98-59.01c34.41-28.67,71.26-47.19,93.9-47.19c6.78,0,11.8,1.7,14.93,5.06l3.05-2.59
						c-0.02-0.03-0.04-0.06-0.06-0.09c-0.09-0.13-0.18-0.27-0.29-0.39c-0.14-0.17-0.3-0.33-0.45-0.48
						c-0.03-0.03-0.06-0.06-0.08-0.08c-0.01-0.01-0.01-0.02-0.02-0.03c-0.09-0.13-0.19-0.27-0.29-0.39
						c-0.14-0.17-0.3-0.33-0.45-0.48c-0.03-0.03-0.06-0.06-0.09-0.08c-0.01-0.01-0.01-0.02-0.02-0.03
						c-0.09-0.13-0.19-0.27-0.29-0.39c-0.14-0.17-0.3-0.33-0.45-0.48c-0.03-0.03-0.06-0.06-0.09-0.08
						c-0.01-0.01-0.01-0.02-0.02-0.03c-0.09-0.13-0.18-0.27-0.29-0.39c-0.14-0.17-0.3-0.33-0.45-0.48
						c-0.03-0.03-0.06-0.06-0.09-0.08c-0.01-0.01-0.01-0.02-0.02-0.03c-0.09-0.13-0.19-0.27-0.29-0.39
						c-0.14-0.17-0.3-0.33-0.45-0.48c-0.03-0.03-0.06-0.06-0.08-0.08c-0.01-0.01-0.01-0.02-0.02-0.03
						c-0.09-0.13-0.18-0.27-0.29-0.39c-0.14-0.17-0.3-0.33-0.45-0.48c-0.03-0.03-0.06-0.06-0.08-0.08
						c-0.01-0.01-0.01-0.02-0.02-0.03c-0.09-0.14-0.19-0.27-0.29-0.4c-0.14-0.17-0.3-0.33-0.45-0.48c-0.03-0.03-0.06-0.06-0.08-0.08
						c-0.01-0.01-0.01-0.02-0.02-0.03c-0.09-0.13-0.19-0.27-0.29-0.39c-0.14-0.17-0.3-0.33-0.45-0.48
						c-0.03-0.03-0.06-0.06-0.09-0.08c-0.01-0.01-0.01-0.02-0.02-0.03c-0.09-0.13-0.19-0.27-0.29-0.39
						c-0.14-0.17-0.3-0.33-0.45-0.48c-0.03-0.03-0.06-0.06-0.09-0.08c-0.01-0.01-0.01-0.02-0.02-0.03
						c-0.09-0.13-0.19-0.27-0.29-0.39c-0.14-0.17-0.3-0.33-0.46-0.48c-0.03-0.03-0.06-0.06-0.08-0.08
						c-0.01-0.01-0.01-0.02-0.02-0.03c-0.09-0.13-0.18-0.27-0.29-0.39c-0.14-0.17-0.3-0.33-0.45-0.48
						c-0.03-0.03-0.06-0.06-0.09-0.08c-0.01-0.01-0.01-0.02-0.02-0.03c-0.09-0.13-0.18-0.27-0.29-0.39
						c-0.14-0.17-0.3-0.33-0.46-0.48c-0.03-0.03-0.06-0.06-0.08-0.08c-0.01-0.01-0.01-0.02-0.02-0.03
						c-0.09-0.14-0.19-0.27-0.29-0.39c-0.14-0.17-0.3-0.33-0.45-0.48c-0.03-0.03-0.06-0.06-0.09-0.08
						c-0.01-0.01-0.01-0.02-0.02-0.03c-0.09-0.13-0.19-0.27-0.29-0.39c-0.14-0.17-0.3-0.33-0.45-0.48
						c-0.03-0.03-0.06-0.06-0.09-0.08c-0.01-0.01-0.01-0.02-0.02-0.03c-0.09-0.13-0.19-0.27-0.29-0.39
						c-0.14-0.17-0.3-0.33-0.45-0.48c-0.03-0.03-0.06-0.06-0.09-0.08c-0.01-0.01-0.01-0.02-0.02-0.03
						c-0.09-0.13-0.19-0.27-0.29-0.39c-0.14-0.17-0.3-0.33-0.45-0.48c-0.03-0.03-0.06-0.06-0.09-0.08
						c-0.01-0.01-0.01-0.02-0.02-0.03c-0.09-0.13-0.18-0.27-0.29-0.39c-0.14-0.17-0.3-0.33-0.45-0.48
						c-0.03-0.03-0.06-0.06-0.08-0.08c-0.01-0.01-0.01-0.02-0.02-0.03c-0.09-0.14-0.19-0.27-0.29-0.4c-0.14-0.17-0.3-0.33-0.45-0.48
						c-0.03-0.03-0.06-0.06-0.09-0.08c-0.01-0.01-0.01-0.02-0.02-0.03c-0.09-0.13-0.18-0.27-0.29-0.39
						c-0.14-0.17-0.3-0.33-0.45-0.48c-0.03-0.03-0.06-0.06-0.08-0.08c-0.01-0.01-0.01-0.02-0.02-0.03
						c-0.09-0.14-0.19-0.27-0.29-0.39c-0.14-0.17-0.3-0.33-0.45-0.48c-0.03-0.03-0.06-0.06-0.08-0.08
						c-0.01-0.01-0.01-0.02-0.02-0.03c-0.09-0.14-0.19-0.27-0.29-0.39C1076.63,229.77,1070.43,227.41,1062.07,227.41L1062.07,227.41
						z"/>
				</g>
			</g>
		</g>
		<g>
			<path class="st219" d="M943,323.51c-1.88-1.59-3.82-3.27-4.96-4.38l-0.02,0.02c1.37,2.46,3.36,6.61,5.84,11.81l-2.76,3.27
				c-4.7-1.57-9.7-3.05-12.46-3.99l-0.02,0.02c1.36,0.96,3.6,2.62,5.46,4.19l3.98,3.37l-2.83,3.34l-10.91-9.23l4.54-5.36
				c4.68,1.32,8.84,2.42,10.71,3.23l0.02-0.02c-1.17-2.1-2.87-5.91-4.86-10.15l4.56-5.39l10.91,9.23l-3.03,3.58L943,323.51z"/>
			<path class="st219" d="M963.17,300.48c2.78,2.82,2.62,7.94-2.57,13.05c-4.84,4.76-9.94,5.13-12.86,2.15
				c-2.76-2.8-2.27-8.17,2.57-12.93C955.29,297.84,960.44,297.7,963.17,300.48z M951.36,312.06c1.9,1.93,4.75,2.09,7.53-0.65
				c2.88-2.83,2.28-5.65,0.65-7.31c-1.78-1.8-4.55-2.16-7.45,0.68C949.32,307.52,949.67,310.34,951.36,312.06z"/>
			<path class="st219" d="M967.14,291.35l-5.35,4.59l-1.8-2.1l14.38-12.33l1.8,2.1l-5.33,4.57l7.51,8.76l-3.69,3.17L967.14,291.35z"
				/>
			<path class="st219" d="M981.13,276.36l8.77,11.29l-3.84,2.99l-8.77-11.29L981.13,276.36z"/>
			<path class="st219" d="M1006.79,266.87c2.24,3.27,1.19,8.29-4.82,12.41c-5.6,3.84-10.68,3.31-13.04-0.14
				c-2.22-3.24-0.8-8.45,4.8-12.29C999.49,262.89,1004.58,263.65,1006.79,266.87z M993.13,276.2c1.53,2.23,4.31,2.89,7.53,0.68
				c3.33-2.28,3.24-5.17,1.92-7.08c-1.43-2.09-4.1-2.93-7.45-0.63C991.92,271.37,991.77,274.21,993.13,276.2z"/>
			<path class="st219" d="M1013.97,270.9l-6.85-12.55l5.05-2.76c7.88,2.68,10.92,3.57,12.83,4.46l0.05-0.03
				c-0.89-1.22-2.15-3.59-3.27-5.65l-1.69-3.1l3.91-2.13l6.85,12.55l-4.74,2.59c-2.68-0.96-11.71-4.13-13.54-4.99l-0.05,0.03
				c0.99,1.47,1.96,3.25,3.18,5.48l2.17,3.98L1013.97,270.9z"/>
		</g>
		<g>
			<path class="st219" d="M974.78,381.14l-3,1.41c-0.22-0.22-0.59-0.71-0.86-1.12c-0.65,1.42-1.84,2.7-5.05,4.2
				c-5.53,2.59-9.88,1.32-11.55-2.25c-1.67-3.56,0.28-7.96,6.38-10.82c5.48-2.57,8.84-1.55,10.12,0.01l-4.18,1.95
				c-0.62-0.46-2.1-1.05-4.91,0.27c-3.5,1.64-4.18,4.13-3.12,6.39c1.12,2.39,3.54,3.44,7.02,1.81c2.89-1.35,3.71-3.04,3.03-4.49
				l-0.09-0.19l-4.16,1.95l-1.07-2.28l8.17-3.82L974.78,381.14z"/>
			<path class="st219" d="M980.58,371.91l2.6,4.48l-3.92,2.28l-6.76-11.64l8.88-5.16c3.76-2.18,6.68-2.11,7.84-0.11
				c0.87,1.5,0.16,3.1-1.24,4.4c0.78-0.2,2.79-0.76,4,1.33l0.34,0.58c0.46,0.8,0.96,1.71,1.51,2.12l-4.06,2.36
				c-0.57-0.36-1-1.02-1.72-2.26l-0.22-0.38c-0.68-1.18-1.57-1.32-3.95,0.07L980.58,371.91z M979.35,369.79l4.08-2.37
				c1.92-1.12,2.46-2.09,1.9-3.08c-0.53-0.92-1.69-0.95-3.56,0.14l-4.11,2.39L979.35,369.79z"/>
			<path class="st219" d="M999.85,362.58l0.37,3.45l-3.88,2.66l-1.35-15.39l4.84-3.32l14.2,6.58l-4.08,2.8l-3.17-1.53L999.85,362.58
				z M1004.24,356.4c-3.19-1.55-4.79-2.37-5.74-2.96l-0.02,0.01c0.22,1.07,0.55,3.32,0.87,6.29L1004.24,356.4z"/>
			<path class="st219" d="M1007.96,344.21l7.66-6.04c3.44-2.71,6.71-3.28,8.35-1.2c1.7,2.16,0.57,5.16-3.07,8.02l-3.99,3.15
				l2.99,3.79l-3.61,2.85L1007.96,344.21z M1015.35,346.15l3.72-2.93c1.52-1.2,2.19-2.33,1.36-3.38c-0.67-0.86-1.83-0.8-3.58,0.57
				l-3.72,2.93L1015.35,346.15z"/>
			<path class="st219" d="M1023.5,331.83l3.38-3.09l3.42,3.73l6.4-5.86l-3.42-3.73l3.38-3.09l9.09,9.92l-3.38,3.09l-3.92-4.27
				l-6.4,5.86l3.92,4.27l-3.37,3.09L1023.5,331.83z"/>
			<path class="st219" d="M1042.97,313.12l9.71,9.32l-3.17,3.3l-9.72-9.32L1042.97,313.12z"/>
			<path class="st219" d="M1064.94,301.48c1.27,2.17,1.31,5.6-2.44,10.18c-4.27,5.21-8.9,5.62-11.74,3.29
				c-2.84-2.33-3.17-7.23,1.05-12.37c3.66-4.47,7.26-5.25,9.35-4.25l-2.93,3.59c-0.84-0.19-2.44-0.18-4.48,2.31
				c-2.23,2.73-1.91,5.36-0.01,6.92c1.92,1.57,4.63,1.62,6.98-1.25c1.7-2.08,1.87-3.46,1.33-4.85L1064.94,301.48z"/>
			<path class="st219" d="M1069.01,295.66c1.28,0.12,2.59-0.63,4.16-3.33c1.47-2.53,1.35-3.59,0.6-4.02
				c-0.8-0.46-1.69,0.02-4.1,3.22c-3.98,5.26-5.89,5.52-7.45,4.62c-2.33-1.35-1.69-5.17,0.55-9.03c3.25-5.6,6.19-5.92,7.65-5.32
				l-2.3,3.96c-0.71-0.1-1.8-0.01-3.36,2.68c-1.1,1.88-1.22,3.09-0.47,3.52c0.67,0.39,1.4-0.08,3.57-2.92
				c4.39-5.73,6.29-5.93,7.98-4.95c2.02,1.17,2.36,4.33-0.82,9.8c-2.97,5.1-5.92,6.45-8.31,5.73L1069.01,295.66z"/>
		</g>
	</g>
	<path class="st219" d="M925.3,267.55c0-22.49-1.98-24.48-24.48-24.48c22.49,0,24.48-1.98,24.48-24.48
		c0,22.49,1.98,24.48,24.48,24.48C927.28,243.07,925.3,245.05,925.3,267.55z"/>
	<path class="st219" d="M1067.93,380.98c0-16.52-1.46-17.98-17.98-17.98c16.52,0,17.98-1.46,17.98-17.98
		c0,16.52,1.46,17.98,17.98,17.98C1069.39,363.01,1067.93,364.46,1067.93,380.98z"/>
</g>
<g>
	<g>
		<path d="M636.85,154.41l-286.89,21.14c-6.58,0.49-12.36-4.5-12.85-11.09l-2.45-33.23c-0.49-6.58,4.5-12.36,11.09-12.85
			l286.89-21.14c6.58-0.49,12.36,4.5,12.85,11.09l2.45,33.23C648.42,148.14,643.43,153.93,636.85,154.41z"/>
	</g>
	<g>
		<path class="st217" d="M626.62,145.59l-286.89,21.14c-6.58,0.49-12.36-4.5-12.85-11.09l-2.45-33.23
			c-0.49-6.58,4.5-12.36,11.09-12.85l286.89-21.14c6.58-0.49,12.36,4.5,12.85,11.09l2.45,33.23
			C638.19,139.32,633.2,145.1,626.62,145.59z"/>
		<path d="M338.85,167.01c-6.35,0-11.74-4.92-12.21-11.35l-2.45-33.23c-0.5-6.74,4.58-12.62,11.32-13.12l286.89-21.14
			c3.26-0.24,6.41,0.81,8.89,2.95c2.48,2.14,3.98,5.11,4.22,8.36l2.45,33.23c0.24,3.25-0.81,6.41-2.95,8.89s-5.11,3.98-8.36,4.22
			l-286.89,21.14C339.45,167,339.15,167.01,338.85,167.01z M623.3,88.64c-0.29,0-0.58,0.01-0.87,0.03l-286.89,21.14
			c-6.46,0.48-11.33,6.12-10.85,12.58l2.45,33.23c0.48,6.46,6.13,11.32,12.58,10.86l286.89-21.14c3.12-0.23,5.97-1.67,8.02-4.05
			c2.06-2.38,3.06-5.41,2.83-8.53l-2.45-33.23c-0.23-3.12-1.67-5.97-4.05-8.02C628.8,89.64,626.11,88.64,623.3,88.64z"/>
	</g>
	<g>
		<path d="M380.73,148.24c-0.48-0.38-0.73-0.81-0.77-1.29c-0.02-0.29,0.02-0.58,0.13-0.88c0.84-2.15,1.6-4.3,2.29-6.47
			c0.69-2.17,1.1-3.45,1.23-3.84c0.33-1.21,0.64-2.23,0.93-3.05l0.03-0.2c-0.01-0.19-0.12-0.28-0.31-0.27
			c-0.29,0.02-0.78,0.24-1.47,0.64c-0.69,0.4-1.31,0.83-1.85,1.29c-0.18,0.11-0.34,0.17-0.47,0.18c-0.35,0.03-0.54-0.07-0.55-0.3
			c-0.03-0.35,0.34-0.93,1.1-1.74c0.76-0.81,1.71-1.66,2.87-2.54c1.15-0.89,2.29-1.63,3.4-2.22c0.19-0.08,0.33-0.12,0.42-0.13
			c0.48-0.04,0.93,0.16,1.34,0.57s0.57,0.79,0.47,1.12l-4.64,14.05c-0.16,0.43-0.23,0.82-0.2,1.17c0.02,0.32,0.24,0.46,0.66,0.43
			c0.89-0.07,2.51-1.45,4.84-4.16c0.09-0.1,0.15-0.15,0.18-0.16c0.13-0.01,0.23,0.02,0.32,0.1s0.13,0.18,0.14,0.3
			c0.05,0.7-0.42,1.68-1.42,2.92c-1,1.24-2.18,2.37-3.53,3.36c-1.35,1-2.53,1.53-3.51,1.61
			C381.75,148.79,381.21,148.62,380.73,148.24z M388.4,122.44c-0.42-0.4-0.64-0.89-0.68-1.46c-0.07-0.89,0.18-1.7,0.74-2.41
			c0.56-0.71,1.28-1.1,2.17-1.17c0.58-0.04,1.05,0.17,1.44,0.64c0.39,0.47,0.6,1.01,0.65,1.61c0.06,0.83-0.2,1.58-0.77,2.25
			c-0.58,0.67-1.28,1.03-2.11,1.09C389.3,123.03,388.82,122.85,388.4,122.44z"/>
		<path d="M393.5,147.18c-0.55-0.46-0.84-0.96-0.88-1.5c-0.02-0.29,0.01-0.53,0.09-0.73l6.85-25.86c0.2-0.79,0.28-1.37,0.26-1.75
			c-0.03-0.38-0.15-0.73-0.36-1.03c-0.36-0.49-0.85-0.85-1.48-1.09c-0.53-0.22-0.71-0.43-0.53-0.63c0.4-0.22,0.87-0.44,1.42-0.66
			c0.54-0.22,0.9-0.35,1.05-0.39c0.81-0.25,1.72-0.5,2.71-0.75c0.99-0.25,1.63-0.38,1.92-0.41c0.16-0.01,0.3,0.06,0.42,0.21
			c0.12,0.15,0.19,0.34,0.21,0.56c-0.01,0.32-0.11,0.86-0.31,1.61l-7.37,27.34c-0.1,0.39-0.13,0.78-0.11,1.16
			c0.04,0.48,0.23,0.71,0.58,0.68c0.51-0.04,1.21-0.51,2.08-1.43s1.65-1.86,2.32-2.84c0.38-0.57,0.67-0.87,0.9-0.88
			c0.16-0.01,0.26,0.04,0.3,0.15c0.04,0.11,0.07,0.28,0.08,0.5c0.07,0.92-0.4,2.04-1.41,3.35c-1.01,1.31-2.22,2.46-3.62,3.44
			c-1.4,0.98-2.57,1.51-3.49,1.58C394.59,147.85,394.04,147.64,393.5,147.18z"/>
		<path d="M406.94,146.19c-0.55-0.46-0.84-0.96-0.88-1.5c-0.02-0.29,0.01-0.53,0.09-0.73l6.85-25.86c0.2-0.78,0.28-1.37,0.26-1.75
			c-0.03-0.38-0.15-0.73-0.37-1.03c-0.36-0.49-0.85-0.85-1.48-1.09c-0.53-0.22-0.71-0.43-0.53-0.63c0.4-0.22,0.87-0.44,1.42-0.66
			c0.55-0.22,0.9-0.35,1.05-0.39c0.81-0.25,1.72-0.5,2.71-0.75c0.99-0.25,1.63-0.39,1.92-0.41c0.16-0.01,0.3,0.06,0.42,0.21
			c0.12,0.15,0.19,0.34,0.21,0.56c-0.01,0.32-0.11,0.86-0.31,1.61l-7.37,27.34c-0.1,0.39-0.14,0.78-0.11,1.16
			c0.04,0.48,0.23,0.71,0.58,0.68c0.51-0.04,1.21-0.51,2.08-1.43c0.88-0.92,1.65-1.86,2.32-2.84c0.38-0.57,0.67-0.87,0.9-0.88
			c0.16-0.01,0.26,0.04,0.3,0.15c0.04,0.11,0.07,0.28,0.08,0.5c0.07,0.92-0.4,2.04-1.41,3.35c-1.01,1.31-2.22,2.46-3.62,3.44
			c-1.4,0.98-2.57,1.51-3.49,1.58C408.03,146.86,407.49,146.65,406.94,146.19z"/>
		<path d="M422.07,144.86c-0.57-0.6-0.88-1.2-0.93-1.81c-0.01-0.16,0.01-0.34,0.06-0.53l3.99-11.75c0.21-0.59,0.31-1.05,0.28-1.37
			c-0.02-0.32-0.15-0.47-0.37-0.45c-0.26,0.02-0.71,0.32-1.38,0.89c-0.66,0.58-1.32,1.21-1.98,1.9c-0.15,0.17-0.32,0.26-0.51,0.28
			c-0.26,0.02-0.39-0.07-0.4-0.26c-0.03-0.41,0.15-0.96,0.55-1.63c1.1-1.65,2.39-3.03,3.88-4.13c1.49-1.1,2.75-1.69,3.77-1.77
			c0.35-0.03,0.72,0.16,1.12,0.54c0.4,0.39,0.61,0.79,0.64,1.2c0.01,0.1-0.01,0.24-0.06,0.44c-1.13,3-2.1,5.67-2.92,8.01l-1.8,4.94
			c-0.27,0.73-0.39,1.3-0.36,1.71c0.03,0.41,0.19,0.61,0.48,0.59c0.41-0.03,1.06-0.58,1.95-1.66c0.88-1.08,2.11-2.7,3.68-4.87
			c1.25-1.7,2.49-3.53,3.71-5.49c1.22-1.97,2.05-3.43,2.49-4.39c0.5-1.06,1.07-1.62,1.71-1.67c0.51-0.04,0.97,0.19,1.37,0.69
			c0.41,0.5,0.54,0.96,0.42,1.39l-4.61,13.86c-0.16,0.43-0.23,0.8-0.21,1.12s0.18,0.47,0.47,0.45c0.48-0.04,1.25-0.5,2.3-1.4
			c1.06-0.9,1.97-1.79,2.74-2.68c0.06-0.07,0.11-0.1,0.14-0.11c0.13-0.01,0.25,0.04,0.37,0.14c0.12,0.1,0.18,0.22,0.19,0.35
			c0.03,0.42-0.38,1.06-1.23,1.92c-0.85,0.87-1.65,1.49-2.39,1.86c-0.74,0.82-1.57,1.51-2.47,2.06s-1.81,0.85-2.7,0.92
			c-0.32,0.02-0.56,0.03-0.72,0.01c-0.26-0.04-0.5-0.21-0.71-0.48c-0.21-0.27-0.33-0.57-0.35-0.89c-0.01-0.13,0.01-0.29,0.06-0.49
			c1.51-3.89,2.45-6.53,2.83-7.91c0.02-0.1,0.03-0.21,0.02-0.34c-0.01-0.16-0.08-0.23-0.21-0.22c-0.13,0.01-0.27,0.1-0.41,0.27
			c-3.04,4.07-5.33,7-6.88,8.78c-1.55,1.78-2.84,2.71-3.86,2.79C423.23,145.74,422.64,145.46,422.07,144.86z"/>
		<path d="M445.23,143.42c-0.64-0.42-0.99-1.01-1.05-1.77c-0.05-0.73,0.07-1.34,0.37-1.81c0.3-0.47,0.65-0.72,1.03-0.75
			c0.19-0.01,0.45,0.08,0.77,0.28c0.32,0.2,0.63,0.43,0.94,0.7c0.61,0.47,1.14,0.81,1.59,1.04c0.45,0.22,0.98,0.31,1.58,0.27
			c0.7-0.05,1.25-0.34,1.64-0.87c0.39-0.53,0.58-1.12,0.57-1.8c-0.08-1.15-0.75-2.62-2.01-4.42c-1.25-1.77-1.92-3.19-2-4.28
			c-0.08-1.12,0.26-2.25,1.02-3.4c0.76-1.15,1.68-2.11,2.75-2.9c1.07-0.78,1.93-1.2,2.6-1.25c0.54-0.04,1.09,0.06,1.66,0.29
			s1.03,0.52,1.41,0.86s0.58,0.66,0.6,0.94c0.03,0.38-0.18,0.87-0.64,1.47c-0.45,0.59-0.87,0.91-1.25,0.93
			c-0.19,0.01-0.39-0.05-0.59-0.2c-0.2-0.15-0.37-0.29-0.49-0.42c-0.12-0.13-0.22-0.23-0.29-0.29c-0.65-0.62-1.35-0.91-2.08-0.86
			c-0.51,0.04-0.91,0.26-1.2,0.67s-0.42,0.9-0.37,1.47c0.05,0.67,0.79,2.04,2.23,4.12c0.64,0.82,1.16,1.67,1.56,2.56
			c0.4,0.88,0.63,1.69,0.68,2.43c0.08,1.08-0.31,2.2-1.17,3.33c-0.86,1.14-1.98,2.09-3.35,2.87c-1.37,0.77-2.74,1.21-4.11,1.31
			C446.66,144.01,445.87,143.84,445.23,143.42z"/>
		<path d="M461.56,142.14c-0.56-0.47-0.86-0.91-0.89-1.33c-0.03-0.38,0-0.78,0.08-1.18s0.2-0.84,0.36-1.3l3.62-12.87
			c0.02-0.1,0.03-0.21,0.02-0.34c-0.02-0.32-0.23-0.46-0.61-0.44l-2.02,0.05c-0.67,0.02-1.03-0.21-1.06-0.69
			c-0.01-0.16,0.17-0.44,0.56-0.83c0.39-0.4,0.79-0.61,1.2-0.64l1.96-0.14c0.38-0.03,0.63-0.1,0.75-0.22s0.27-0.4,0.47-0.83
			l1.01-2.58c0.22-0.53,0.65-1.1,1.29-1.71c0.64-0.61,1.14-0.92,1.49-0.95c0.26-0.02,0.45,0.07,0.57,0.27
			c0.13,0.2,0.2,0.44,0.22,0.73c0.01,0.16,0,0.4-0.04,0.72l-0.95,3.44c-0.02,0.1-0.03,0.21-0.02,0.34c0.01,0.16,0.07,0.26,0.19,0.3
			c0.12,0.04,0.29,0.05,0.51,0.03c0.64-0.05,1.33-0.04,2.07,0.02c0.74,0.06,1.19,0.1,1.36,0.12c0.55,0.06,0.9,0.14,1.05,0.24
			c0.15,0.1,0.24,0.26,0.25,0.49c0.01,0.1-0.07,0.23-0.23,0.4c-0.17,0.17-0.42,0.29-0.77,0.35c-1.65,0.25-2.84,0.42-3.57,0.5
			c-0.54,0.07-0.92,0.17-1.16,0.3c-0.23,0.13-0.38,0.34-0.46,0.64l-3.2,11.4c-0.13,0.39-0.18,0.8-0.15,1.21
			c0.04,0.54,0.36,0.79,0.97,0.75c0.86-0.06,2.25-1.16,4.18-3.29c0.21-0.24,0.41-0.37,0.62-0.41c0.21-0.03,0.31,0.03,0.33,0.19
			c0.03,0.03,0.06,0.11,0.07,0.24c0.02,0.29-0.09,0.66-0.35,1.13c-0.51,0.9-1.28,1.86-2.31,2.86c-1.03,1.01-2.09,1.86-3.18,2.57
			c-1.09,0.7-1.98,1.08-2.68,1.13C462.64,142.83,462.12,142.61,461.56,142.14z"/>
		<path d="M477.07,141.41c-0.44-0.27-0.67-0.6-0.7-0.98c-0.02-0.29,0.03-0.7,0.15-1.24c0.12-0.54,0.29-1.13,0.5-1.79l3.67-12.15
			c0.1-0.39,0.14-0.67,0.13-0.83c-0.03-0.45-0.24-0.66-0.62-0.63c-0.86,0.06-1.67,0.4-2.43,1c-0.12,0.1-0.25,0.16-0.37,0.17
			c-0.32,0.02-0.49-0.14-0.52-0.49c-0.06-0.38,0.08-0.8,0.41-1.26s0.78-0.9,1.32-1.32c1.09-0.85,2.26-1.32,3.5-1.41
			c1.4-0.1,2.15,0.48,2.25,1.76c0.06,0.8-0.15,1.92-0.62,3.37l-1.69,5.18l-0.03,0.19c0.01,0.19,0.12,0.28,0.31,0.27
			c0.16-0.01,0.26-0.1,0.32-0.26c1.64-3.39,3.29-6.11,4.93-8.16c1.65-2.04,3.12-3.12,4.43-3.21c0.83-0.06,1.48,0.14,1.94,0.6
			c0.47,0.46,0.73,1.08,0.79,1.84c0.08,1.05-0.14,2.05-0.64,3.01s-1.11,1.45-1.81,1.5c-0.57,0.04-0.94-0.54-1.09-1.75
			c-0.18-1.14-0.57-1.69-1.18-1.64c-0.8,0.06-1.85,1.23-3.16,3.5c-0.57,0.94-1.46,2.54-2.68,4.81c-1.21,2.27-2.21,4.24-2.98,5.9
			c-0.77,1.66-1.36,2.8-1.74,3.42c-0.39,0.62-0.79,0.95-1.2,0.98C477.9,141.8,477.5,141.68,477.07,141.41z"/>
		<path d="M492.62,139.9c-0.59-0.44-0.91-0.91-0.95-1.42c-0.12-1.59,0.51-3.62,1.89-6.08s3.42-5.22,6.15-8.27
			c3.09-3.37,5.17-5.1,6.26-5.18c0.57-0.04,1.22,0.22,1.93,0.77l0.57,0.58c0.13-0.01,0.21-0.13,0.26-0.36
			c0.5-1.03,0.73-1.55,0.7-1.54c0.1-0.33,0.35-0.51,0.73-0.53c0.54-0.04,1.09,0.07,1.66,0.33c0.56,0.26,0.86,0.56,0.88,0.87
			c0.01,0.1-0.06,0.42-0.22,0.98l-4.1,14.16c-0.08,0.29-0.1,0.55-0.09,0.78c0.04,0.48,0.29,0.7,0.77,0.66
			c0.51-0.04,1.14-0.37,1.9-0.98c0.76-0.62,1.42-1.35,2-2.19c0.15-0.17,0.27-0.26,0.37-0.27c0.25-0.02,0.4,0.18,0.43,0.59
			c0.02,0.32-0.19,0.85-0.63,1.58c-0.44,0.74-0.96,1.42-1.56,2.04c-0.92,0.97-1.86,1.73-2.82,2.28c-0.95,0.55-1.8,0.85-2.53,0.91
			c-0.61,0.04-1.19-0.14-1.75-0.57c-0.56-0.42-0.86-0.89-0.9-1.4c-0.02-0.32,0.04-0.69,0.21-1.12c-0.11,0.23,0.04-0.24,0.45-1.43
			c0.41-1.19,0.82-2.3,1.22-3.36c0.11-0.26,0.14-0.48,0.1-0.63c-0.04-0.16-0.14-0.14-0.29,0.07c-2.55,3.3-4.63,5.65-6.26,7.05
			c-1.63,1.4-3.16,2.16-4.6,2.26C493.81,140.54,493.21,140.34,492.62,139.9z M500.5,134.61c1.24-1.21,2.58-2.82,4-4.82
			c1.02-1.42,1.82-2.71,2.41-3.86c0.59-1.15,0.86-2,0.82-2.54c-0.02-0.26-0.28-0.57-0.79-0.95c-0.64-0.37-1.12-0.54-1.43-0.52
			c-0.54,0.04-1.28,0.38-2.21,1.03c-0.93,0.65-1.75,1.38-2.46,2.2c-1.3,1.51-2.42,3.23-3.37,5.18c-0.95,1.95-1.38,3.48-1.3,4.59
			c0.04,0.51,0.2,0.91,0.47,1.19c0.28,0.28,0.62,0.41,1.04,0.38C498.32,136.45,499.26,135.82,500.5,134.61z"/>
		<path d="M518.55,137.94c-0.56-0.47-0.86-0.92-0.89-1.33c-0.03-0.38,0-0.78,0.08-1.18c0.08-0.41,0.2-0.84,0.36-1.3l3.62-12.87
			c0.02-0.1,0.03-0.21,0.02-0.34c-0.02-0.32-0.23-0.46-0.61-0.44l-2.02,0.05c-0.67,0.02-1.03-0.21-1.06-0.69
			c-0.01-0.16,0.17-0.44,0.56-0.83c0.39-0.4,0.79-0.61,1.2-0.64l1.96-0.14c0.38-0.03,0.63-0.1,0.75-0.22
			c0.12-0.12,0.28-0.4,0.47-0.83l1.01-2.58c0.22-0.53,0.65-1.1,1.29-1.71c0.64-0.61,1.14-0.92,1.49-0.95
			c0.25-0.02,0.45,0.07,0.57,0.27c0.13,0.2,0.2,0.44,0.22,0.73c0.01,0.16,0,0.4-0.04,0.72l-0.95,3.44c-0.02,0.1-0.03,0.21-0.02,0.34
			c0.01,0.16,0.07,0.26,0.19,0.3c0.12,0.04,0.29,0.05,0.51,0.04c0.64-0.05,1.33-0.04,2.07,0.02c0.74,0.06,1.19,0.1,1.36,0.12
			c0.55,0.06,0.9,0.13,1.05,0.24c0.15,0.1,0.24,0.26,0.25,0.49c0.01,0.1-0.07,0.23-0.23,0.4c-0.17,0.17-0.42,0.29-0.77,0.35
			c-1.65,0.25-2.84,0.42-3.57,0.5c-0.54,0.07-0.92,0.17-1.16,0.3c-0.23,0.13-0.38,0.34-0.46,0.64l-3.2,11.4
			c-0.13,0.39-0.18,0.8-0.15,1.21c0.04,0.54,0.36,0.79,0.97,0.75c0.86-0.06,2.25-1.16,4.18-3.29c0.21-0.24,0.41-0.37,0.62-0.41
			c0.21-0.03,0.31,0.03,0.33,0.19c0.03,0.03,0.06,0.11,0.07,0.24c0.02,0.29-0.09,0.66-0.35,1.13c-0.51,0.9-1.28,1.86-2.31,2.86
			c-1.03,1.01-2.09,1.86-3.18,2.57c-1.09,0.71-1.98,1.08-2.68,1.14C519.63,138.63,519.11,138.41,518.55,137.94z"/>
		<path d="M533.65,136.97c-0.48-0.38-0.73-0.81-0.77-1.29c-0.02-0.29,0.02-0.58,0.13-0.88c0.84-2.15,1.6-4.3,2.29-6.47
			c0.69-2.17,1.1-3.45,1.23-3.84c0.33-1.21,0.64-2.23,0.93-3.05l0.03-0.2c-0.01-0.19-0.12-0.28-0.31-0.27
			c-0.29,0.02-0.78,0.23-1.47,0.64c-0.69,0.4-1.31,0.83-1.85,1.29c-0.19,0.11-0.34,0.17-0.47,0.18c-0.35,0.03-0.53-0.07-0.55-0.3
			c-0.03-0.35,0.34-0.93,1.1-1.74c0.76-0.81,1.71-1.66,2.87-2.54c1.15-0.89,2.28-1.63,3.4-2.22c0.19-0.08,0.33-0.12,0.42-0.13
			c0.48-0.04,0.92,0.16,1.34,0.57s0.57,0.79,0.47,1.12l-4.64,14.05c-0.16,0.43-0.23,0.82-0.2,1.17c0.02,0.32,0.24,0.46,0.66,0.43
			c0.89-0.07,2.51-1.45,4.84-4.16c0.09-0.1,0.15-0.15,0.18-0.16c0.13-0.01,0.23,0.02,0.32,0.1s0.13,0.18,0.14,0.3
			c0.05,0.7-0.42,1.68-1.42,2.92c-1,1.24-2.17,2.37-3.53,3.36c-1.35,1-2.53,1.53-3.51,1.61
			C534.67,137.52,534.13,137.36,533.65,136.97z M541.33,111.18c-0.41-0.4-0.64-0.89-0.68-1.47c-0.07-0.89,0.18-1.7,0.74-2.41
			c0.56-0.71,1.28-1.1,2.17-1.17c0.57-0.04,1.05,0.17,1.44,0.64c0.39,0.47,0.6,1.01,0.65,1.61c0.06,0.83-0.2,1.58-0.77,2.24
			c-0.58,0.67-1.28,1.03-2.11,1.09C542.22,111.76,541.74,111.58,541.33,111.18z"/>
		<path d="M549.12,135.64c-0.85-0.48-1.56-1.15-2.12-2.01c-0.56-0.86-0.88-1.81-0.96-2.86c-0.15-2.04,0.24-4.28,1.17-6.7
			s2.27-4.51,4.04-6.26c1.76-1.75,3.78-2.71,6.04-2.87c1.75-0.13,3.19,0.33,4.31,1.39c1.12,1.06,1.75,2.48,1.88,4.26
			c0.15,2.04-0.23,4.26-1.15,6.65c-0.92,2.39-2.29,4.45-4.12,6.17c-1.83,1.72-3.97,2.67-6.43,2.85
			C550.86,136.33,549.97,136.12,549.12,135.64z M555.81,131.81c1.1-1.8,1.98-3.93,2.63-6.4c0.65-2.47,0.91-4.61,0.78-6.43
			c-0.13-1.72-0.83-2.54-2.1-2.44c-1.08,0.08-2.18,0.98-3.29,2.7c-1.11,1.72-2,3.8-2.67,6.23c-0.67,2.44-0.93,4.65-0.79,6.62
			c0.13,1.79,0.83,2.63,2.11,2.54C553.6,134.54,554.71,133.6,555.81,131.81z"/>
		<path d="M567.99,134.42c-0.46-0.43-0.72-0.92-0.76-1.46c-0.02-0.25,0-0.45,0.05-0.58l4.3-13.4c0.21-0.62,0.31-1.06,0.29-1.32
			c-0.02-0.32-0.2-0.47-0.51-0.44c-0.61,0.04-1.2,0.22-1.77,0.51c-0.57,0.3-1.15,0.89-1.72,1.76c-0.09,0.14-0.21,0.21-0.37,0.22
			c-0.26,0.02-0.41-0.1-0.46-0.35c-0.05-0.28,0.04-0.71,0.29-1.27c0.25-0.56,0.52-1.05,0.81-1.46c0.55-0.78,1.27-1.42,2.17-1.94
			c0.89-0.51,1.93-0.83,3.11-0.95c0.61-0.04,1.11,0.1,1.52,0.44c0.41,0.34,0.63,0.78,0.67,1.32c0.01,0.19-0.03,0.48-0.13,0.88
			l-2.37,7.73c-0.03,0.03-0.04,0.1-0.03,0.19c0.01,0.13,0.09,0.18,0.25,0.17c0.19-0.01,0.31-0.1,0.37-0.27
			c1.67-3.43,3.39-6.13,5.15-8.1c1.76-1.97,3.46-3.02,5.08-3.14c0.93-0.07,1.68,0.21,2.27,0.82c0.59,0.62,0.92,1.42,1,2.4
			c0.06,0.77-0.05,1.54-0.31,2.33l-3.4,10.02c-0.19,0.46-0.28,0.84-0.25,1.12c0.03,0.35,0.21,0.51,0.56,0.49
			c0.54-0.04,1.34-0.48,2.4-1.33c1.06-0.85,1.8-1.51,2.21-1.99c0.18-0.21,0.31-0.31,0.41-0.32c0.09-0.01,0.19,0.03,0.3,0.12
			c0.1,0.09,0.16,0.2,0.17,0.32c0.03,0.35-0.06,0.71-0.26,1.08c-1.25,1.73-2.66,3.16-4.23,4.28c-1.57,1.13-3.1,1.74-4.6,1.85
			c-0.45,0.03-0.88-0.12-1.31-0.46c-0.43-0.34-0.66-0.73-0.69-1.18c-0.02-0.22,0-0.38,0.06-0.48l1.44-3.91
			c1.65-4.64,2.75-7.88,3.33-9.72c0.23-0.72,0.33-1.37,0.29-1.95c-0.05-0.64-0.34-0.97-0.89-0.99c-0.99,0.07-2.46,1.59-4.43,4.56
			c-0.64,0.94-1.65,2.72-3.05,5.32c-1.4,2.6-2.66,5.1-3.8,7.5c-0.33,0.7-0.65,1.23-0.94,1.58c-0.29,0.36-0.62,0.55-0.97,0.58
			C568.87,135.05,568.45,134.85,567.99,134.42z"/>
	</g>
	<g>
		<path class="st219" d="M354,155.44c-1.21-16.47-2.77-17.82-19.25-16.61c16.47-1.21,17.82-2.77,16.61-19.25
			c1.21,16.47,2.77,17.82,19.25,16.61C354.13,137.4,352.78,138.96,354,155.44z"/>
	</g>
	<g>
		<path class="st219" d="M612.74,139.31c-1.21-16.47-2.77-17.82-19.25-16.61c16.47-1.21,17.82-2.77,16.61-19.25
			c1.21,16.47,2.77,17.82,19.25,16.61C612.87,121.28,611.52,122.84,612.74,139.31z"/>
	</g>
</g>
<g>
	
		<ellipse transform="matrix(0.9945 -0.1047 0.1047 0.9945 -28.0211 71.2648)" class="st220" cx="664.55" cy="302.44" rx="160.86" ry="68.37"/>
	<g>
		<g>
			<ellipse transform="matrix(0.9945 -0.1047 0.1047 0.9945 -28.0211 71.2648)" cx="664.55" cy="302.44" rx="141.5" ry="54.93"/>
		</g>
		<g>
			
				<ellipse transform="matrix(0.9945 -0.1047 0.1047 0.9945 -28.0211 71.2648)" class="st217" cx="664.55" cy="302.44" rx="98.51" ry="54.93"/>
		</g>
		<g>
			<path d="M658.62,357.94c-16.52,0-32.16-3.74-44.94-10.88c-15.8-8.82-25.36-21.75-26.9-36.43c-1.54-14.67,5.1-29.32,18.73-41.23
				c13.6-11.89,32.52-19.65,53.28-21.83c42.89-4.51,80.38,16.43,83.56,46.68l0,0c3.19,30.26-29.12,58.55-72,63.07
				C666.4,357.73,662.48,357.94,658.62,357.94z M670.38,247.45c-3.79,0-7.65,0.2-11.55,0.61c-20.66,2.17-39.48,9.89-53,21.71
				c-13.5,11.8-20.08,26.3-18.56,40.8c1.53,14.51,10.99,27.31,26.65,36.04c15.69,8.75,35.71,12.37,56.36,10.2
				c42.62-4.49,74.72-32.53,71.56-62.52l0,0C738.97,267.06,707.98,247.45,670.38,247.45z"/>
		</g>
		<g>
			<path d="M664.63,357.62c-12.42,0-24.39-4.29-34.2-12.35c-11.3-9.29-18.37-22.48-19.91-37.13c-1.54-14.66,2.62-29.03,11.74-40.47
				s22.08-18.58,36.51-20.1c14.44-1.51,28.6,2.76,39.9,12.05c11.3,9.29,18.37,22.48,19.91,37.13c3.19,30.26-18.46,57.43-48.25,60.57
				C668.42,357.52,666.52,357.62,664.63,357.62z M664.48,247.77c-1.88,0-3.76,0.1-5.65,0.3c-14.3,1.5-27.15,8.58-36.18,19.91
				c-9.03,11.34-13.16,25.58-11.63,40.1c1.53,14.53,8.54,27.6,19.73,36.8c11.19,9.21,25.24,13.44,39.53,11.94
				c29.52-3.11,50.97-30.03,47.81-60.02c-1.53-14.53-8.54-27.6-19.73-36.8C688.64,252.01,676.79,247.77,664.48,247.77z"/>
		</g>
		<g>
			<path d="M668.52,357.41c-7.52,0-15.03-4.89-21.34-13.96c-6.78-9.75-11.37-23.18-12.91-37.82c-1.54-14.63,0.15-28.72,4.75-39.68
				c4.62-11,11.64-17.53,19.76-18.39c8.12-0.85,16.34,4.07,23.15,13.87c6.78,9.75,11.37,23.18,12.91,37.82
				c3.19,30.26-7.81,56.31-24.5,58.07C669.73,357.38,669.12,357.41,668.52,357.41z M660.58,247.97c-0.59,0-1.17,0.03-1.76,0.09
				c-7.93,0.83-14.8,7.26-19.35,18.08c-4.57,10.88-6.24,24.88-4.71,39.43c1.53,14.55,6.09,27.9,12.82,37.58
				c6.71,9.64,14.76,14.5,22.69,13.66c16.42-1.73,27.22-27.53,24.06-57.51c-1.53-14.55-6.09-27.9-12.82-37.58
				C675.31,252.79,667.94,247.97,660.58,247.97z"/>
		</g>
		<g>
			<rect x="664.27" y="247.21" transform="matrix(0.9945 -0.1047 0.1047 0.9945 -27.9896 71.2596)" width="0.5" height="109.86"/>
		</g>
		<g>
			<rect x="530.22" y="302.19" transform="matrix(0.9944 -0.1053 0.1053 0.9944 -28.151 71.6545)" width="268.68" height="0.5"/>
		</g>
		<g>
			<g>
				<path class="st219" d="M549.24,327.57c-1.78-8.48-4.99-11.49-14.06-11.49c-0.05,0-0.11,0-0.16,0c4.51-0.94,7.3-2.22,9.08-4.42
					c1.78-2.19,2.45-5.18,2.43-9.77c1.78,8.46,4.99,11.47,14.05,11.47c0.06,0,0.12,0,0.18,0
					C551.86,315.23,549.21,318.49,549.24,327.57z"/>
			</g>
			<g>
				<path d="M546.8,304.56c1.74,6.02,4.73,8.63,11.32,9.11c-6.2,1.8-8.65,4.82-9.13,11.24c-1.74-6.02-4.73-8.63-11.32-9.11
					C543.86,313.99,546.32,310.98,546.8,304.56 M545.39,291.01c2.3,21.79,0.57,23.92-21.22,26.21c4.43-0.47,8.04-0.77,11.02-0.77
					c11.65,0,13.37,4.62,15.2,21.99c-2.3-21.79-0.57-23.92,21.22-26.21c-4.43,0.47-8.04,0.77-11.02,0.77
					C548.94,313,547.22,308.38,545.39,291.01L545.39,291.01z"/>
			</g>
		</g>
		<g>
			<g>
				<path class="st219" d="M783.19,302.94c-1.78-8.48-4.99-11.49-14.06-11.49c-0.05,0-0.11,0-0.16,0c4.51-0.94,7.3-2.22,9.08-4.42
					c1.78-2.19,2.45-5.18,2.43-9.77c1.78,8.46,4.99,11.47,14.05,11.47c0.06,0,0.12,0,0.18,0
					C785.8,290.59,783.16,293.85,783.19,302.94z"/>
			</g>
			<g>
				<path d="M780.74,279.92c1.74,6.02,4.73,8.63,11.32,9.11c-6.2,1.8-8.65,4.82-9.13,11.24c-1.74-6.02-4.73-8.63-11.32-9.11
					C777.81,289.35,780.26,286.34,780.74,279.92 M779.34,266.37c2.3,21.79,0.57,23.92-21.22,26.21c4.43-0.47,8.04-0.77,11.02-0.77
					c11.65,0,13.37,4.62,15.2,21.99c-2.3-21.79-0.57-23.92,21.22-26.21c-4.43,0.47-8.04,0.77-11.02,0.77
					C782.89,288.36,781.17,283.74,779.34,266.37L779.34,266.37z"/>
			</g>
		</g>
	</g>
	<g>
		<path d="M591.6,298.74l8.08-0.85l0.94,8.93l15.33-1.61l-0.94-8.93l8.08-0.85l2.5,23.76l-8.08,0.85l-1.08-10.24l-15.33,1.61
			l1.08,10.24l-8.08,0.85L591.6,298.74z"/>
		<path d="M640.49,298.24l-11.72,1.23l-0.48-4.59l31.5-3.32l0.48,4.59l-11.68,1.23l2.02,19.17l-8.09,0.85L640.49,298.24z"/>
		<path d="M696.8,302.49c-0.43-4.1-0.84-8.36-0.93-11.02l-0.05,0.01c-1.19,4.56-3.59,11.86-6.59,21.01l-7.12,0.75
			c-3.86-7.34-8.19-14.9-10.44-19.21l-0.05,0.01c0.54,2.74,1.33,7.32,1.75,11.37l0.91,8.66l-7.28,0.77l-2.5-23.76l11.68-1.23
			c4.12,7.01,7.87,13.14,9.21,16.29l0.05,0c1.02-3.9,3.37-10.46,5.86-17.87l11.73-1.24l2.5,23.76l-7.79,0.82L696.8,302.49z"/>
		<path d="M711.76,286.09l8.08-0.85l2.02,19.14l18.65-1.96l-0.57,4.73l-25.66,2.7L711.76,286.09z"/>
	</g>
</g>
<g>
	<g>
		<path d="M1043.07,160.91L905.06,60.82c-2.01-1.46-4.31-2.39-6.7-2.76c-2.51-0.39-5.11-0.16-7.58,0.72l-153.35,54.79
			c-15.1,5.39-13.01,27.37,2.83,29.83l291.36,45.3C1047.66,191.19,1056.21,170.44,1043.07,160.91z"/>
	</g>
	<g>
		<path class="st217" d="M1034.23,180.2c-0.4,0-0.82-0.03-1.27-0.1L741.6,134.8c-4.81-0.75-5.57-4.81-5.69-6.04
			c-0.12-1.23-0.14-5.36,4.45-7l153.35-54.79c1.06-0.38,2.2-0.48,3.31-0.31c1.05,0.16,2.06,0.58,2.93,1.21l138.01,100.09
			c4,2.9,2.75,6.88,2.28,8.04C1039.81,177.04,1038.18,180.2,1034.23,180.2z M895.99,67.08c-0.72,0-1.43,0.12-2.11,0.36
			l-153.35,54.79c-4.25,1.52-4.23,5.34-4.12,6.48s0.81,4.9,5.26,5.59l291.36,45.3c4.53,0.71,6.3-2.73,6.74-3.8
			c0.44-1.07,1.59-4.76-2.11-7.44L899.66,68.27c-0.8-0.58-1.74-0.96-2.71-1.12l0,0C896.63,67.11,896.31,67.08,895.99,67.08z"/>
	</g>
	<g>
		<path class="st217" d="M803.49,134.68c0.04-0.12,0.13-0.21,0.29-0.27c0.15-0.06,0.37-0.09,0.66-0.1c0.72-0.01,1.28-0.13,1.68-0.35
			c0.39-0.22,0.73-0.61,1.02-1.18l5.41-11.16c0.24-0.49,0.38-0.85,0.41-1.1c0.05-0.3-0.04-0.52-0.26-0.67
			c-0.22-0.15-0.65-0.32-1.29-0.51c-0.48-0.13-0.71-0.33-0.67-0.59c0.02-0.12,0.13-0.2,0.34-0.24c0.2-0.04,0.42-0.04,0.65-0.01
			l1.47,0.28l1.26,0.22c0.35,0.05,0.88,0.12,1.59,0.19c0.57,0.03,1.12,0.09,1.65,0.18c1.53,0.24,2.72,0.77,3.58,1.6
			c0.85,0.83,1.18,1.87,0.98,3.14c-0.2,1.27-0.8,2.26-1.81,2.97c-1.01,0.72-2.2,1.15-3.55,1.3c-0.22,0.06-0.32,0.19-0.28,0.39
			c0.22,1.01,0.75,2.84,1.58,5.49c0.23,0.7,0.5,1.23,0.81,1.57s0.74,0.6,1.29,0.75c0.28,0.08,0.49,0.16,0.64,0.25
			c0.15,0.09,0.21,0.2,0.19,0.34c-0.03,0.21-0.21,0.33-0.54,0.35c-0.33,0.02-0.86-0.03-1.6-0.14c-0.95-0.15-1.69-0.38-2.23-0.71
			c-0.54-0.33-0.88-0.75-1.03-1.28c-0.27-0.82-0.54-1.75-0.82-2.8c-0.28-1.05-0.5-2.02-0.67-2.91c-0.11-0.49-0.24-0.82-0.4-1.01
			c-0.16-0.19-0.43-0.31-0.82-0.37c-0.3-0.05-0.52-0.04-0.65,0.02c-0.14,0.06-0.24,0.17-0.32,0.34l-2.13,4.34
			c-0.16,0.32-0.25,0.6-0.29,0.85c-0.1,0.65,0.26,1.13,1.07,1.44c0.22,0.09,0.37,0.17,0.45,0.26s0.1,0.2,0.06,0.33
			c-0.08,0.2-0.35,0.27-0.79,0.2c-0.16-0.03-0.71-0.14-1.65-0.34c-0.41-0.12-0.83-0.21-1.25-0.28c-0.56-0.09-1.13-0.15-1.7-0.18
			c-0.18-0.03-0.45-0.06-0.81-0.08c-0.36-0.03-0.7-0.07-1-0.11C803.62,135.03,803.46,134.89,803.49,134.68z M816.21,127.65
			c0.79-0.25,1.49-0.71,2.11-1.39c0.62-0.68,1.02-1.59,1.2-2.73c0.13-0.84-0.03-1.6-0.48-2.28s-1.08-1.07-1.87-1.2
			c-0.26-0.04-0.48-0.02-0.64,0.05c-0.17,0.07-0.34,0.25-0.53,0.51c-0.19,0.27-0.42,0.71-0.69,1.31l-2.15,4.77
			c-0.08,0.15-0.13,0.29-0.15,0.41c-0.03,0.21,0.03,0.37,0.19,0.49c0.16,0.11,0.44,0.2,0.82,0.26
			C814.7,127.97,815.43,127.9,816.21,127.65z"/>
		<path class="st217" d="M822.27,137.63c0.05-0.23,0.37-0.35,0.95-0.37c0.83-0.03,1.45-0.15,1.85-0.36c0.4-0.21,0.74-0.59,1-1.14
			l5.5-11.36c0.16-0.35,0.26-0.64,0.3-0.87c0.05-0.32-0.03-0.56-0.23-0.72s-0.57-0.35-1.12-0.54c-0.41-0.14-0.6-0.31-0.57-0.52
			c0.02-0.12,0.12-0.21,0.3-0.25c0.18-0.04,0.41-0.04,0.69,0l1.05,0.19c0.68,0.16,1.4,0.3,2.18,0.42l4.27,0.66
			c1.43,0.22,2.37,0.32,2.85,0.29c0.47-0.03,0.74-0.03,0.79-0.03c0.09,0.01,0.16,0.07,0.23,0.17c0.07,0.1,0.09,0.2,0.07,0.31
			s-0.14,0.38-0.37,0.83c-0.42,0.87-0.71,1.59-0.88,2.16c-0.04,0.16-0.12,0.27-0.23,0.34c-0.11,0.07-0.21,0.1-0.3,0.09
			s-0.15-0.08-0.2-0.21s-0.05-0.27-0.02-0.45c0.14-0.9,0.13-1.53-0.04-1.9c-0.17-0.37-0.58-0.6-1.25-0.71l-2.82-0.44
			c-0.42-0.07-0.75-0.03-0.99,0.1c-0.24,0.13-0.46,0.42-0.67,0.85l-2.38,4.9c-0.08,0.17-0.13,0.31-0.15,0.44
			c-0.04,0.23,0.12,0.36,0.48,0.4l2.96,0.41c0.42,0.05,0.8,0,1.12-0.15c0.32-0.15,0.64-0.39,0.96-0.71c0.15-0.14,0.31-0.28,0.5-0.41
			c0.18-0.13,0.33-0.19,0.43-0.18c0.14,0.02,0.2,0.13,0.17,0.32c-0.02,0.12-0.07,0.25-0.14,0.38c-0.44,0.63-0.78,1.19-1.02,1.68
			c-0.23,0.45-0.52,1.08-0.86,1.89c-0.17,0.41-0.33,0.6-0.47,0.58c-0.12-0.02-0.21-0.11-0.25-0.28c-0.05-0.17-0.06-0.33-0.03-0.49
			c0.18-1.04-0.05-1.6-0.68-1.7l-2.89-0.5c-0.32-0.05-0.57-0.03-0.76,0.04c-0.19,0.08-0.36,0.26-0.49,0.54l-2.05,4.52
			c-0.22,0.51-0.36,0.89-0.4,1.15c-0.05,0.35,0.01,0.62,0.19,0.8c0.18,0.18,0.49,0.31,0.93,0.38l3.43,0.53
			c0.74,0.12,1.48-0.01,2.22-0.38c0.31-0.15,0.61-0.36,0.91-0.64c0.29-0.28,0.64-0.63,1.03-1.06c0.09-0.09,0.18-0.18,0.27-0.25
			c0.09-0.08,0.18-0.11,0.27-0.09c0.14,0.02,0.18,0.22,0.12,0.59c-0.04,0.25-0.25,0.68-0.62,1.31c-0.38,0.63-0.72,1.1-1.02,1.44
			c-0.25,0.3-0.54,0.43-0.9,0.37c-1.43-0.22-2.97-0.49-4.63-0.8c-0.6-0.11-1.29-0.24-2.09-0.38c-0.8-0.14-1.65-0.28-2.57-0.43
			c-0.28-0.04-0.59-0.08-0.94-0.11c-0.35-0.03-0.6-0.05-0.76-0.08c-0.54-0.03-1.1-0.09-1.7-0.18
			C822.41,137.98,822.24,137.84,822.27,137.63z"/>
		<path class="st217" d="M842.48,140.77c0.02-0.14,0.11-0.23,0.27-0.28c0.16-0.05,0.39-0.07,0.7-0.05c0.72-0.03,1.31-0.17,1.75-0.42
			s0.79-0.65,1.04-1.2l5.08-10.75c0.35-0.77,0.56-1.34,0.61-1.69c0.03-0.19,0.02-0.34-0.04-0.43c-0.06-0.09-0.16-0.15-0.3-0.17
			l-1.85-0.29c-0.7-0.11-1.33-0.05-1.88,0.17c-0.55,0.22-1.08,0.54-1.6,0.97c-0.12,0.11-0.31,0.26-0.55,0.47
			c-0.24,0.21-0.45,0.37-0.62,0.48c-0.17,0.12-0.31,0.17-0.42,0.15c-0.21-0.03-0.29-0.17-0.23-0.41c0.11-0.27,0.25-0.52,0.41-0.75
			c0.83-0.92,1.44-1.79,1.84-2.63c0.08-0.15,0.18-0.27,0.3-0.37c0.12-0.1,0.24-0.14,0.34-0.12c0.14,0.02,0.35,0.2,0.62,0.53
			c0.15,0.17,0.36,0.31,0.61,0.42c0.25,0.11,0.76,0.23,1.51,0.34l8.66,1.32c0.79,0.12,1.35,0.18,1.69,0.17
			c0.33-0.01,0.59-0.06,0.76-0.14c0.15-0.05,0.32-0.12,0.49-0.22c0.18-0.1,0.31-0.14,0.4-0.13c0.18,0.03,0.25,0.13,0.22,0.3
			c-0.02,0.14-0.15,0.37-0.38,0.7c-0.23,0.31-0.49,0.73-0.79,1.28c-0.3,0.55-0.58,1.14-0.84,1.76c-0.14,0.34-0.31,0.49-0.5,0.46
			c-0.26-0.04-0.36-0.3-0.28-0.77c0.11-0.81,0.06-1.44-0.15-1.87c-0.21-0.44-0.65-0.71-1.32-0.81l-2.16-0.34
			c-0.26-0.04-0.48-0.02-0.65,0.07c-0.17,0.09-0.35,0.29-0.54,0.59c-0.19,0.3-0.44,0.78-0.73,1.41l-5.04,10.7
			c-0.11,0.22-0.17,0.43-0.21,0.64c-0.05,0.35,0.02,0.65,0.22,0.9c0.2,0.25,0.54,0.47,1.02,0.67c0.22,0.09,0.37,0.17,0.44,0.23
			c0.07,0.07,0.1,0.15,0.08,0.26c-0.04,0.25-0.3,0.33-0.8,0.25c-0.63-0.1-1.21-0.21-1.73-0.35c-0.63-0.13-1.12-0.23-1.47-0.28
			c-0.39-0.06-0.95-0.13-1.7-0.21c-0.59-0.04-1.19-0.1-1.81-0.2C842.62,141.09,842.45,140.97,842.48,140.77z"/>
		<path class="st217" d="M861.73,143.41c-0.81-0.74-1.37-1.65-1.68-2.75c-0.31-1.09-0.36-2.28-0.16-3.57
			c0.28-1.79,0.99-3.48,2.14-5.06c1.14-1.58,2.6-2.79,4.36-3.63c1.76-0.84,3.67-1.11,5.73-0.79c1.27,0.2,2.31,0.67,3.13,1.41
			c0.82,0.74,1.39,1.66,1.7,2.75c0.31,1.09,0.36,2.28,0.16,3.56c-0.28,1.79-0.99,3.48-2.14,5.06c-1.15,1.58-2.6,2.79-4.38,3.63
			c-1.77,0.84-3.67,1.1-5.71,0.79C863.59,144.62,862.54,144.15,861.73,143.41z M869.22,142.77c1.37-1.01,2.53-2.36,3.49-4.05
			c0.96-1.69,1.58-3.36,1.83-5.01c0.21-1.34,0.1-2.51-0.32-3.52c-0.42-1.01-1.19-1.6-2.32-1.78c-1.36-0.21-2.72,0.2-4.08,1.23
			c-1.37,1.03-2.54,2.4-3.53,4.1c-0.99,1.7-1.6,3.37-1.86,5.01c-0.21,1.32-0.1,2.47,0.31,3.47s1.18,1.58,2.31,1.75
			C866.47,144.18,867.85,143.78,869.22,142.77z"/>
		<path class="st217" d="M880.42,146.02c-0.87-0.95-1.19-2.16-0.96-3.63c0.11-0.72,0.37-1.51,0.77-2.37l3.55-7.34
			c0.13-0.25,0.22-0.53,0.27-0.85c0.09-0.6-0.09-1-0.54-1.22c-0.47-0.23-0.69-0.46-0.65-0.67c0.02-0.12,0.13-0.2,0.33-0.23
			c0.2-0.03,0.43-0.03,0.67,0.01c0.26,0.04,0.69,0.13,1.28,0.25s1.06,0.22,1.39,0.27c0.3,0.05,0.77,0.1,1.41,0.17l1.14,0.15
			c0.46,0.07,0.64,0.22,0.55,0.44c-0.04,0.1-0.12,0.18-0.27,0.23s-0.32,0.09-0.52,0.12c-0.2,0.03-0.35,0.06-0.45,0.08
			c-0.35,0.05-0.71,0.24-1.07,0.55s-0.69,0.77-0.98,1.37l-3.59,7.44c-0.29,0.6-0.48,1.2-0.58,1.8c-0.17,1.11,0.03,2.01,0.62,2.7
			c0.59,0.69,1.4,1.12,2.44,1.28c1.63,0.25,3.07-0.1,4.3-1.05c1.23-0.95,2.25-2.27,3.08-3.97l1.62-3.31l0.83-1.71
			c0.53-1.07,0.84-1.91,0.93-2.5c0.07-0.44,0.03-0.78-0.13-1.02c-0.15-0.24-0.41-0.45-0.78-0.63c-0.25-0.13-0.43-0.24-0.54-0.33
			c-0.11-0.09-0.15-0.19-0.11-0.32c0.02-0.1,0.11-0.17,0.27-0.2c0.17-0.03,0.36-0.02,0.59,0.01l1.45,0.25
			c0.3,0.06,0.71,0.14,1.24,0.22c0.3,0.05,0.68,0.09,1.14,0.12c0.46,0.04,0.79,0.07,0.98,0.1c0.4,0.06,0.59,0.19,0.56,0.38
			c-0.04,0.25-0.39,0.39-1.07,0.43c-0.38,0.05-0.7,0.13-0.93,0.23c-0.23,0.11-0.48,0.33-0.75,0.67c-0.27,0.34-0.6,0.86-1,1.57
			c-0.55,0.98-1.28,2.35-2.18,4.12l-1.23,2.35c-1.15,2.16-2.45,3.76-3.92,4.78c-1.47,1.02-3.29,1.37-5.47,1.03
			C882.53,147.57,881.29,146.97,880.42,146.02z"/>
		<path class="st217" d="M901.01,149.55c-0.94-0.74-1.66-1.68-2.16-2.82c-0.5-1.14-0.65-2.36-0.44-3.66
			c0.32-2.06,1.12-3.86,2.39-5.4c1.28-1.54,2.84-2.67,4.7-3.38s3.77-0.91,5.74-0.61c0.93,0.15,1.88,0.47,2.85,0.98
			c0.15,0.08,0.37,0.19,0.66,0.35c0.29,0.15,0.53,0.24,0.73,0.27c0.18,0.03,0.39-0.01,0.64-0.12c0.3-0.1,0.53-0.13,0.69-0.11
			c0.09,0.01,0.16,0.05,0.2,0.1c0.05,0.05,0.06,0.11,0.05,0.18c-0.01,0.05-0.06,0.13-0.14,0.22c-0.41,0.41-0.86,0.98-1.37,1.73
			c-0.5,0.75-0.86,1.41-1.08,1.97c-0.06,0.15-0.15,0.27-0.27,0.36c-0.12,0.09-0.24,0.12-0.34,0.11c-0.16-0.02-0.26-0.13-0.31-0.32
			c-0.05-0.19-0.04-0.4,0.03-0.64c0.09-0.24,0.16-0.48,0.19-0.73c0.1-0.65,0.01-1.22-0.27-1.72c-0.25-0.47-0.59-0.87-1.02-1.19
			c-0.43-0.32-0.91-0.52-1.46-0.61c-1.32-0.21-2.69,0.11-4.11,0.96c-1.42,0.84-2.65,2.05-3.7,3.63c-1.05,1.58-1.71,3.29-2,5.13
			c-0.27,1.76-0.03,3.13,0.73,4.11c0.76,0.98,1.77,1.57,3.04,1.77c1.14,0.18,2.12,0.04,2.94-0.41c0.82-0.45,1.69-1.19,2.63-2.21
			c0.15-0.17,0.28-0.3,0.38-0.37c0.1-0.07,0.21-0.1,0.34-0.08c0.19,0.03,0.24,0.24,0.15,0.62c-0.14,0.46-0.57,1.23-1.29,2.29
			c-0.71,1.06-1.17,1.57-1.36,1.54c-0.09-0.01-0.18-0.07-0.29-0.17c-0.1-0.1-0.18-0.17-0.22-0.21c-0.17-0.19-0.39-0.3-0.65-0.34
			c-0.18-0.03-0.59,0.01-1.23,0.11c-0.81,0.13-1.6,0.13-2.35,0.01C902.95,150.74,901.95,150.29,901.01,149.55z"/>
		<path class="st217" d="M912.58,151.65c0.04-0.12,0.12-0.21,0.26-0.26c0.13-0.05,0.36-0.1,0.67-0.14c0.66-0.06,1.13-0.15,1.42-0.28
			c0.29-0.13,0.53-0.38,0.71-0.77l5.79-11.85c0.21-0.43,0.33-0.75,0.36-0.94c0.04-0.25-0.01-0.45-0.14-0.6
			c-0.13-0.15-0.38-0.3-0.76-0.43c-0.35-0.15-0.51-0.33-0.48-0.56c0.02-0.12,0.11-0.21,0.27-0.25c0.16-0.05,0.34-0.06,0.53-0.03
			c0.46,0.07,1,0.17,1.63,0.31c0.52,0.12,0.93,0.2,1.23,0.25l1.35,0.18c0.67,0.07,1.25,0.14,1.72,0.21
			c0.35,0.05,0.51,0.17,0.49,0.35c-0.04,0.28-0.37,0.43-0.99,0.44c-0.69,0.04-1.23,0.17-1.6,0.4c-0.38,0.23-0.69,0.6-0.93,1.1
			l-2.35,4.85l-0.04,0.1c-0.02,0.11,0.07,0.17,0.26,0.2l8.02,1.25c0.14,0.02,0.26-0.07,0.37-0.27l2.37-4.79
			c0.13-0.29,0.22-0.52,0.24-0.69c0.04-0.28-0.02-0.53-0.18-0.73c-0.17-0.21-0.46-0.4-0.88-0.6c-0.34-0.14-0.49-0.32-0.46-0.53
			c0.04-0.26,0.3-0.36,0.77-0.29c0.44,0.07,1.01,0.17,1.71,0.32l1.47,0.26c0.26,0.04,0.64,0.08,1.14,0.12
			c0.57,0.05,1.09,0.12,1.57,0.19c0.37,0.06,0.54,0.19,0.5,0.4c-0.02,0.12-0.12,0.22-0.29,0.29c-0.17,0.07-0.41,0.11-0.7,0.12
			c-0.62,0.03-1.07,0.16-1.36,0.38c-0.29,0.22-0.57,0.6-0.85,1.14l-5.69,11.71c-0.13,0.25-0.21,0.46-0.23,0.61
			c-0.04,0.25,0.01,0.45,0.16,0.62c0.14,0.17,0.4,0.33,0.78,0.47c0.2,0.08,0.34,0.17,0.41,0.24s0.09,0.17,0.08,0.29
			c-0.02,0.12-0.1,0.21-0.25,0.24c-0.15,0.04-0.33,0.04-0.54,0.01c-0.6-0.09-1.12-0.2-1.57-0.33c-0.52-0.12-0.95-0.2-1.29-0.25
			c-0.32-0.05-0.78-0.1-1.38-0.16c-0.5-0.02-1.08-0.09-1.73-0.19c-0.35-0.06-0.51-0.17-0.49-0.35c0.04-0.26,0.36-0.4,0.96-0.42
			c0.64-0.05,1.15-0.18,1.55-0.41c0.4-0.23,0.72-0.59,0.98-1.09l2.41-4.87c0.15-0.26,0.15-0.41,0.01-0.43l-8.21-1.28
			c-0.16-0.02-0.28,0.07-0.37,0.29l-2.35,4.82c-0.13,0.25-0.21,0.51-0.25,0.77c-0.05,0.33,0.02,0.6,0.21,0.8
			c0.19,0.2,0.52,0.4,0.97,0.6c0.2,0.08,0.34,0.17,0.41,0.24c0.07,0.07,0.09,0.17,0.08,0.3c-0.04,0.25-0.29,0.33-0.77,0.26
			c-0.63-0.1-1.2-0.21-1.7-0.35c-0.66-0.14-1.15-0.23-1.47-0.28c-0.32-0.05-0.79-0.11-1.43-0.17c-0.52-0.03-1.07-0.08-1.65-0.17
			C912.72,151.99,912.55,151.86,912.58,151.65z"/>
		<path class="st217" d="M933.16,154.87c0.05-0.23,0.37-0.35,0.95-0.37c0.83-0.03,1.45-0.15,1.85-0.36c0.4-0.21,0.73-0.59,1-1.14
			l5.5-11.36c0.16-0.35,0.26-0.64,0.3-0.87c0.05-0.32-0.03-0.56-0.23-0.72c-0.2-0.17-0.57-0.35-1.12-0.54
			c-0.41-0.14-0.6-0.31-0.57-0.52c0.02-0.12,0.12-0.21,0.3-0.25c0.18-0.04,0.41-0.04,0.69,0l1.05,0.19c0.68,0.16,1.4,0.3,2.18,0.42
			l4.27,0.67c1.42,0.22,2.37,0.32,2.85,0.29c0.47-0.03,0.73-0.03,0.79-0.03c0.09,0.01,0.16,0.07,0.23,0.17
			c0.07,0.1,0.09,0.2,0.07,0.31s-0.14,0.38-0.37,0.83c-0.42,0.87-0.72,1.59-0.88,2.16c-0.04,0.16-0.12,0.27-0.23,0.34
			c-0.11,0.07-0.21,0.1-0.3,0.09c-0.09-0.01-0.15-0.08-0.2-0.21s-0.05-0.27-0.02-0.45c0.14-0.9,0.12-1.53-0.04-1.9
			s-0.59-0.6-1.25-0.71l-2.82-0.44c-0.42-0.07-0.75-0.03-0.99,0.1c-0.24,0.13-0.46,0.42-0.67,0.85l-2.38,4.9
			c-0.08,0.17-0.13,0.31-0.15,0.44c-0.04,0.23,0.12,0.36,0.48,0.4l2.96,0.41c0.42,0.05,0.8,0,1.12-0.15
			c0.32-0.15,0.64-0.39,0.96-0.71c0.15-0.14,0.31-0.28,0.5-0.41c0.18-0.13,0.33-0.19,0.43-0.18c0.14,0.02,0.2,0.13,0.17,0.32
			c-0.02,0.12-0.07,0.25-0.14,0.38c-0.44,0.63-0.78,1.19-1.02,1.68c-0.23,0.45-0.52,1.08-0.86,1.89c-0.17,0.41-0.33,0.6-0.47,0.58
			c-0.12-0.02-0.21-0.11-0.25-0.28c-0.05-0.17-0.06-0.33-0.03-0.49c0.18-1.04-0.05-1.6-0.68-1.7l-2.89-0.5
			c-0.32-0.05-0.57-0.04-0.76,0.04c-0.19,0.08-0.36,0.26-0.49,0.54l-2.05,4.52c-0.22,0.51-0.36,0.89-0.4,1.15
			c-0.05,0.35,0.01,0.62,0.19,0.8c0.18,0.18,0.49,0.31,0.93,0.38l3.43,0.53c0.74,0.12,1.48-0.01,2.22-0.38
			c0.31-0.15,0.62-0.36,0.91-0.64c0.29-0.28,0.64-0.63,1.03-1.06c0.09-0.09,0.18-0.18,0.27-0.25c0.09-0.08,0.18-0.11,0.27-0.09
			c0.14,0.02,0.18,0.22,0.12,0.59c-0.04,0.25-0.25,0.68-0.62,1.31s-0.72,1.1-1.02,1.44c-0.25,0.3-0.54,0.43-0.89,0.37
			c-1.43-0.22-2.97-0.49-4.63-0.8c-0.6-0.11-1.29-0.24-2.09-0.38c-0.8-0.14-1.65-0.28-2.57-0.43c-0.28-0.04-0.6-0.08-0.94-0.11
			c-0.35-0.03-0.6-0.05-0.76-0.08c-0.54-0.03-1.1-0.09-1.7-0.18C933.29,155.22,933.12,155.08,933.16,154.87z"/>
		<path class="st217" d="M949.97,157.46c0.04-0.12,0.13-0.21,0.29-0.27c0.15-0.06,0.37-0.09,0.66-0.1c0.72-0.01,1.28-0.13,1.68-0.35
			c0.39-0.22,0.73-0.61,1.02-1.18l5.41-11.16c0.24-0.49,0.38-0.85,0.41-1.1c0.05-0.3-0.04-0.52-0.26-0.67
			c-0.22-0.15-0.65-0.32-1.29-0.51c-0.48-0.13-0.71-0.33-0.67-0.59c0.02-0.12,0.13-0.21,0.34-0.25c0.2-0.04,0.42-0.04,0.65-0.01
			l1.47,0.28l1.26,0.22c0.35,0.05,0.88,0.12,1.59,0.19c0.57,0.03,1.12,0.09,1.65,0.17c1.53,0.24,2.72,0.77,3.58,1.6
			c0.85,0.83,1.18,1.87,0.98,3.14c-0.2,1.27-0.8,2.26-1.81,2.97c-1.01,0.72-2.2,1.15-3.55,1.3c-0.22,0.05-0.32,0.18-0.28,0.39
			c0.22,1.01,0.75,2.84,1.58,5.49c0.23,0.7,0.5,1.23,0.81,1.57c0.31,0.34,0.74,0.6,1.29,0.75c0.28,0.08,0.49,0.16,0.64,0.25
			c0.15,0.09,0.21,0.2,0.19,0.34c-0.03,0.21-0.21,0.33-0.54,0.35s-0.86-0.03-1.6-0.14c-0.95-0.15-1.69-0.38-2.23-0.71
			c-0.54-0.33-0.88-0.75-1.03-1.28c-0.27-0.82-0.54-1.75-0.82-2.8c-0.28-1.05-0.5-2.02-0.67-2.91c-0.11-0.48-0.24-0.82-0.4-1.01
			c-0.16-0.19-0.43-0.31-0.82-0.37c-0.3-0.05-0.52-0.04-0.65,0.02c-0.14,0.06-0.24,0.17-0.32,0.34l-2.13,4.34
			c-0.16,0.32-0.25,0.6-0.29,0.85c-0.1,0.65,0.25,1.13,1.07,1.44c0.22,0.09,0.37,0.17,0.45,0.26s0.1,0.2,0.06,0.33
			c-0.08,0.2-0.35,0.27-0.79,0.2c-0.16-0.03-0.71-0.14-1.65-0.34c-0.41-0.12-0.83-0.21-1.25-0.28c-0.56-0.09-1.13-0.15-1.7-0.18
			c-0.18-0.03-0.45-0.06-0.81-0.09c-0.36-0.03-0.7-0.07-1-0.11C950.1,157.8,949.94,157.67,949.97,157.46z M962.69,150.42
			c0.79-0.25,1.49-0.71,2.11-1.39c0.62-0.68,1.02-1.59,1.2-2.73c0.13-0.84-0.03-1.6-0.48-2.28c-0.45-0.67-1.08-1.07-1.87-1.19
			c-0.26-0.04-0.48-0.03-0.64,0.05s-0.34,0.24-0.53,0.51c-0.19,0.27-0.42,0.71-0.69,1.31l-2.15,4.77c-0.08,0.15-0.13,0.29-0.14,0.41
			c-0.03,0.21,0.03,0.38,0.19,0.49c0.16,0.11,0.44,0.2,0.82,0.26C961.18,150.74,961.91,150.67,962.69,150.42z"/>
	</g>
	<g>
		<path class="st217" d="M842.01,101.91l9.3,1.45c4.18,0.65,6.72,2.59,6.33,5.11c-0.41,2.62-3.27,3.78-7.67,3.1l-4.85-0.75
			l-0.71,4.6l-4.38-0.68L842.01,101.91z M845.49,108.4l4.51,0.7c1.85,0.29,3.08,0.02,3.28-1.26c0.16-1.04-0.63-1.82-2.75-2.15
			l-4.51-0.7L845.49,108.4z"/>
		<path class="st217" d="M861.29,104.91l4.36,0.68l-0.75,4.82l8.27,1.29l0.75-4.82l4.36,0.68l-1.99,12.82l-4.36-0.68l0.86-5.52
			l-8.27-1.29l-0.86,5.52l-4.36-0.68L861.29,104.91z"/>
		<path class="st217" d="M900.49,117.52c-0.55,3.55-4.37,6.21-10.9,5.19c-6.09-0.95-9.11-4.46-8.53-8.2
			c0.55-3.53,4.72-6.08,10.81-5.13C898.14,110.36,901.03,114.03,900.49,117.52z M885.66,115.19c-0.38,2.42,1.05,4.59,4.55,5.13
			c3.62,0.56,5.35-1.4,5.68-3.48c0.35-2.27-0.89-4.49-4.53-5.05C887.86,111.25,885.99,113.03,885.66,115.19z"/>
		<path class="st217" d="M908.87,114.84l-6.32-0.98l0.39-2.48l16.99,2.64l-0.39,2.48l-6.3-0.98l-1.61,10.34l-4.36-0.68
			L908.87,114.84z"/>
		<path class="st217" d="M939.68,123.62c-0.55,3.55-4.37,6.21-10.9,5.19c-6.09-0.95-9.11-4.46-8.53-8.2
			c0.55-3.53,4.72-6.08,10.81-5.13C937.34,116.45,940.23,120.12,939.68,123.62z M924.86,121.29c-0.38,2.42,1.05,4.59,4.55,5.13
			c3.62,0.56,5.35-1.4,5.68-3.48c0.35-2.27-0.89-4.49-4.53-5.05C927.06,117.34,925.19,119.12,924.86,121.29z"/>
	</g>
	<g>
		<g>
			<path class="st219" d="M887.29,99.98l1.52-7.83l-7.96,0.46l6.19-5.02l-6.39-4.76l7.97,0.13l-1.83-7.76l6.02,5.22l3.58-7.12
				l1.25,7.87l7.32-3.15l-4.1,6.83l7.63,2.29l-7.53,2.6l4.37,6.66l-7.44-2.85l-0.93,7.92l-3.87-6.97L887.29,99.98z"/>
		</g>
	</g>
</g>
<g>
	<g>
		<g>
			<g>
				<path d="M307.84,243.03l9.74-0.24c4.38-0.11,7.33,1.4,7.39,4.04c0.07,2.75-2.63,4.46-7.25,4.58l-5.08,0.13l0.12,4.82l-4.59,0.11
					L307.84,243.03z M312.59,249l4.72-0.12c1.93-0.05,3.15-0.55,3.11-1.89c-0.03-1.09-0.98-1.74-3.2-1.68l-4.72,0.12L312.59,249z"/>
				<path d="M333.45,252.59l-1.26,5.02l-4.39-1.11l3.28-13.03l9.95,2.5c4.21,1.06,6.25,3.15,5.68,5.39
					c-0.42,1.68-2.04,2.33-3.96,2.28c0.7,0.4,2.53,1.4,1.94,3.75l-0.16,0.65c-0.22,0.89-0.5,1.89-0.4,2.57l-4.55-1.15
					c-0.16-0.65,0-1.43,0.35-2.81l0.11-0.43c0.33-1.32-0.21-2.04-2.87-2.71L333.45,252.59z M334.05,250.22l4.57,1.15
					c2.15,0.54,3.22,0.22,3.5-0.88c0.26-1.03-0.55-1.85-2.64-2.38l-4.61-1.16L334.05,250.22z"/>
				<path d="M357.06,252.23l-5.77,12.14l-4.13-1.96l5.77-12.14L357.06,252.23z"/>
				<path d="M355.29,265.97l8.21-10.64l4.29,3.3c0.67,7.79,1.06,10.74,1.02,12.73l0.04,0.03c0.72-1.23,2.27-3.21,3.62-4.96
					l2.03-2.63l3.32,2.56l-8.21,10.64l-4.02-3.1c-0.18-2.67-0.88-11.63-0.83-13.54l-0.04-0.03c-0.89,1.41-2.06,2.92-3.51,4.81
					l-2.6,3.37L355.29,265.97z"/>
				<path d="M383.58,277.18l-3.98-5.3l2.08-1.56l10.68,14.25l-2.08,1.56l-3.96-5.29l-8.67,6.5l-2.74-3.66L383.58,277.18z"/>
			</g>
		</g>
		<g>
			<path class="st221" d="M257.03,358.13l4.79,7.04c3.57,5.25,3.09,9.77,0.16,11.77c-3.56,2.42-8.25,0.25-11.33-4.28l-4.74-6.96
				L257.03,358.13z M250.58,368.05l1.83,2.68c2.07,3.05,4.42,3.86,6.78,2.25c2.05-1.4,2.3-3.77,0.2-6.93l-1.86-2.73L250.58,368.05z"
				/>
			<path class="st221" d="M275.69,390.52l-8.05-6.75l-1.96,2.34l8.95,7.51l-2.08,1.66l-12.05-10.11l8.63-10.3l11.99,10.06l-1.68,2
				l-8.49-7.12l-1.64,1.95l8.05,6.75L275.69,390.52z"/>
			<path class="st221" d="M282.54,396.13c0.05,1.28,0.96,2.48,3.85,3.68c2.7,1.12,3.73,0.86,4.06,0.06
				c0.36-0.85-0.24-1.67-3.72-3.64c-5.73-3.24-6.24-5.1-5.55-6.76c1.03-2.48,4.9-2.36,9.01-0.65c5.97,2.48,6.68,5.35,6.27,6.87
				l-4.23-1.76c0.01-0.72-0.23-1.78-3.1-2.97c-2.01-0.84-3.22-0.8-3.55,0c-0.3,0.72,0.27,1.38,3.36,3.15
				c6.25,3.59,6.7,5.45,5.95,7.25c-0.89,2.15-3.98,2.91-9.81,0.48c-5.44-2.26-7.17-5.01-6.77-7.47L282.54,396.13z"/>
			<path class="st221" d="M305.68,393.33l-2.19,13.26l-4.51-0.75l2.19-13.26L305.68,393.33z"/>
			<path class="st221" d="M328.09,407.85l-3.31-0.05c-0.1-0.3-0.22-0.9-0.28-1.38c-1.21,0.99-2.83,1.62-6.37,1.56
				c-6.1-0.09-9.46-3.14-9.39-7.08c0.06-3.93,3.73-7.03,10.46-6.93c6.05,0.09,8.62,2.48,9.09,4.44l-4.61-0.07
				c-0.36-0.69-1.43-1.86-4.52-1.91c-3.86-0.06-5.56,1.88-5.6,4.38c-0.04,2.64,1.68,4.64,5.51,4.7c3.19,0.05,4.66-1.11,4.68-2.71
				l0-0.21l-4.58-0.07l0.04-2.52l9.01,0.14L328.09,407.85z"/>
			<path class="st221" d="M334.52,407.25l-3.06-13.09l5.27-1.23c6.46,4.41,9,5.97,10.51,7.26l0.05-0.01
				c-0.5-1.33-1.05-3.79-1.55-5.94l-0.76-3.23l4.08-0.95l3.06,13.09l-4.94,1.15c-2.18-1.55-9.58-6.68-11.01-7.93l-0.05,0.01
				c0.53,1.58,0.97,3.44,1.51,5.77l0.97,4.15L334.52,407.25z"/>
		</g>
		<path class="st222" d="M248.83,355.71c-6.41-14.01-8.69-30.08-5.58-46.37c5.95-31.18,29.95-54.35,59.11-60.74"/>
		<path class="st222" d="M388.73,291.74c6.43,14.02,8.72,30.12,5.61,46.43c-4.4,23.05-18.65,41.72-37.57,52.47"/>
	</g>
	<line class="st223" x1="318.33" y1="271.38" x2="318.33" y2="377.05"/>
	<line class="st223" x1="371.17" y1="324.22" x2="265.5" y2="324.22"/>
	<line class="st223" x1="355.69" y1="361.58" x2="280.97" y2="286.86"/>
	<line class="st223" x1="280.97" y1="361.58" x2="355.69" y2="286.86"/>
	<line class="st223" x1="269.54" y1="303.95" x2="367.12" y2="344.49"/>
	<line class="st223" x1="269.5" y1="344.39" x2="367.17" y2="304.05"/>
	<line class="st223" x1="298.16" y1="275.38" x2="338.5" y2="373.05"/>
	<line class="st223" x1="338.6" y1="275.42" x2="298.06" y2="373.01"/>
</g>
</svg>
