<?xml version="1.0" encoding="utf-8"?>
<!-- Generator: Adobe Illustrator 27.0.0, SVG Export Plug-In . SVG Version: 6.00 Build 0)  -->
<svg version="1.1" id="Layer_1" xmlns="http://www.w3.org/2000/svg" xmlns:xlink="http://www.w3.org/1999/xlink" x="0px" y="0px"
	 viewBox="0 0 229 232" style="enable-background:new 0 0 229 232;" xml:space="preserve">
<style type="text/css">
	.st0{opacity:0.75;fill:url(#SVGID_1_);}
	.st1{fill:none;stroke:#000000;}
	.st2{opacity:0.75;fill:url(#SVGID_00000019643412158649044230000011150164645619975335_);}
	.st3{fill:none;stroke:#2F312E;stroke-miterlimit:10;}
	.st4{opacity:0.75;fill:url(#SVGID_00000182502294944084924940000005580245752038631332_);}
	.st5{fill:none;stroke:#F2EBE0;stroke-miterlimit:10;}
	.st6{fill:none;stroke:#D5DE00;stroke-miterlimit:10;}
	.st7{fill:none;stroke:#000000;stroke-width:0.5;stroke-miterlimit:10;}
	.st8{fill:#F2EBE0;}
	.st9{fill:#D5DE00;}
	.st10{fill:#F2EBE0;stroke:#000000;stroke-width:0.5;stroke-miterlimit:10;}
	.st11{fill:none;stroke:#F2EBE0;stroke-width:0.5;stroke-miterlimit:10;}
	.st12{fill:none;stroke:#000000;stroke-width:0.25;stroke-miterlimit:10;}
	.st13{fill:none;stroke:#D5DE00;stroke-width:6;stroke-miterlimit:10;}
	.st14{opacity:0.4;}
	.st15{opacity:0.1;fill:none;stroke:#D5DE00;stroke-miterlimit:10;}
	.st16{opacity:0.1111;fill:none;stroke:#D5DE00;stroke-miterlimit:10;}
	.st17{opacity:0.1222;fill:none;stroke:#D5DE00;stroke-miterlimit:10;}
	.st18{opacity:0.1333;fill:none;stroke:#D5DE00;stroke-miterlimit:10;}
	.st19{opacity:0.1444;fill:none;stroke:#D5DE00;stroke-miterlimit:10;}
	.st20{opacity:0.1556;fill:none;stroke:#D5DE00;stroke-miterlimit:10;}
	.st21{opacity:0.1667;fill:none;stroke:#D5DE00;stroke-miterlimit:10;}
	.st22{opacity:0.1778;fill:none;stroke:#D5DE00;stroke-miterlimit:10;}
	.st23{opacity:0.1889;fill:none;stroke:#D5DE00;stroke-miterlimit:10;}
	.st24{opacity:0.2;fill:none;stroke:#D5DE00;stroke-miterlimit:10;}
	.st25{opacity:0.2111;fill:none;stroke:#D5DE00;stroke-miterlimit:10;}
	.st26{opacity:0.2222;fill:none;stroke:#D5DE00;stroke-miterlimit:10;}
	.st27{opacity:0.2333;fill:none;stroke:#D5DE00;stroke-miterlimit:10;}
	.st28{opacity:0.2444;fill:none;stroke:#D5DE00;stroke-miterlimit:10;}
	.st29{opacity:0.2556;fill:none;stroke:#D5DE00;stroke-miterlimit:10;}
	.st30{opacity:0.2667;fill:none;stroke:#D5DE00;stroke-miterlimit:10;}
	.st31{opacity:0.2778;fill:none;stroke:#D5DE00;stroke-miterlimit:10;}
	.st32{opacity:0.2889;fill:none;stroke:#D5DE00;stroke-miterlimit:10;}
	.st33{opacity:0.3;fill:none;stroke:#D5DE00;stroke-miterlimit:10;}
	.st34{opacity:0.3111;fill:none;stroke:#D5DE00;stroke-miterlimit:10;}
	.st35{opacity:0.3222;fill:none;stroke:#D5DE00;stroke-miterlimit:10;}
	.st36{opacity:0.3333;fill:none;stroke:#D5DE00;stroke-miterlimit:10;}
	.st37{opacity:0.3444;fill:none;stroke:#D5DE00;stroke-miterlimit:10;}
	.st38{opacity:0.3556;fill:none;stroke:#D5DE00;stroke-miterlimit:10;}
	.st39{opacity:0.3667;fill:none;stroke:#D5DE00;stroke-miterlimit:10;}
	.st40{opacity:0.3778;fill:none;stroke:#D5DE00;stroke-miterlimit:10;}
	.st41{opacity:0.3889;fill:none;stroke:#D5DE00;stroke-miterlimit:10;}
	.st42{opacity:0.4;fill:none;stroke:#D5DE00;stroke-miterlimit:10;}
	.st43{opacity:0.4111;fill:none;stroke:#D5DE00;stroke-miterlimit:10;}
	.st44{opacity:0.4222;fill:none;stroke:#D5DE00;stroke-miterlimit:10;}
	.st45{opacity:0.4333;fill:none;stroke:#D5DE00;stroke-miterlimit:10;}
	.st46{opacity:0.4444;fill:none;stroke:#D5DE00;stroke-miterlimit:10;}
	.st47{opacity:0.4556;fill:none;stroke:#D5DE00;stroke-miterlimit:10;}
	.st48{opacity:0.4667;fill:none;stroke:#D5DE00;stroke-miterlimit:10;}
	.st49{opacity:0.4778;fill:none;stroke:#D5DE00;stroke-miterlimit:10;}
	.st50{opacity:0.4889;fill:none;stroke:#D5DE00;stroke-miterlimit:10;}
	.st51{opacity:0.5;fill:none;stroke:#D5DE00;stroke-miterlimit:10;}
	.st52{opacity:0.5111;fill:none;stroke:#D5DE00;stroke-miterlimit:10;}
	.st53{opacity:0.5222;fill:none;stroke:#D5DE00;stroke-miterlimit:10;}
	.st54{opacity:0.5333;fill:none;stroke:#D5DE00;stroke-miterlimit:10;}
	.st55{opacity:0.5444;fill:none;stroke:#D5DE00;stroke-miterlimit:10;}
	.st56{opacity:0.5556;fill:none;stroke:#D5DE00;stroke-miterlimit:10;}
	.st57{opacity:0.5667;fill:none;stroke:#D5DE00;stroke-miterlimit:10;}
	.st58{opacity:0.5778;fill:none;stroke:#D5DE00;stroke-miterlimit:10;}
	.st59{opacity:0.5889;fill:none;stroke:#D5DE00;stroke-miterlimit:10;}
	.st60{opacity:0.6;fill:none;stroke:#D5DE00;stroke-miterlimit:10;}
	.st61{opacity:0.6111;fill:none;stroke:#D5DE00;stroke-miterlimit:10;}
	.st62{opacity:0.6222;fill:none;stroke:#D5DE00;stroke-miterlimit:10;}
	.st63{opacity:0.6333;fill:none;stroke:#D5DE00;stroke-miterlimit:10;}
	.st64{opacity:0.6444;fill:none;stroke:#D5DE00;stroke-miterlimit:10;}
	.st65{opacity:0.6556;fill:none;stroke:#D5DE00;stroke-miterlimit:10;}
	.st66{opacity:0.6667;fill:none;stroke:#D5DE00;stroke-miterlimit:10;}
	.st67{opacity:0.6778;fill:none;stroke:#D5DE00;stroke-miterlimit:10;}
	.st68{opacity:0.6889;fill:none;stroke:#D5DE00;stroke-miterlimit:10;}
	.st69{opacity:0.7;fill:none;stroke:#D5DE00;stroke-miterlimit:10;}
	.st70{opacity:0.7111;fill:none;stroke:#D5DE00;stroke-miterlimit:10;}
	.st71{opacity:0.7222;fill:none;stroke:#D5DE00;stroke-miterlimit:10;}
	.st72{opacity:0.7333;fill:none;stroke:#D5DE00;stroke-miterlimit:10;}
	.st73{opacity:0.7444;fill:none;stroke:#D5DE00;stroke-miterlimit:10;}
	.st74{opacity:0.7556;fill:none;stroke:#D5DE00;stroke-miterlimit:10;}
	.st75{opacity:0.7667;fill:none;stroke:#D5DE00;stroke-miterlimit:10;}
	.st76{opacity:0.7778;fill:none;stroke:#D5DE00;stroke-miterlimit:10;}
	.st77{opacity:0.7889;fill:none;stroke:#D5DE00;stroke-miterlimit:10;}
	.st78{opacity:0.8;fill:none;stroke:#D5DE00;stroke-miterlimit:10;}
	.st79{opacity:0.8111;fill:none;stroke:#D5DE00;stroke-miterlimit:10;}
	.st80{opacity:0.8222;fill:none;stroke:#D5DE00;stroke-miterlimit:10;}
	.st81{opacity:0.8333;fill:none;stroke:#D5DE00;stroke-miterlimit:10;}
	.st82{opacity:0.8444;fill:none;stroke:#D5DE00;stroke-miterlimit:10;}
	.st83{opacity:0.8556;fill:none;stroke:#D5DE00;stroke-miterlimit:10;}
	.st84{opacity:0.8667;fill:none;stroke:#D5DE00;stroke-miterlimit:10;}
	.st85{opacity:0.8778;fill:none;stroke:#D5DE00;stroke-miterlimit:10;}
	.st86{opacity:0.8889;fill:none;stroke:#D5DE00;stroke-miterlimit:10;}
	.st87{opacity:0.9;fill:none;stroke:#D5DE00;stroke-miterlimit:10;}
	.st88{opacity:0.9111;fill:none;stroke:#D5DE00;stroke-miterlimit:10;}
	.st89{opacity:0.9222;fill:none;stroke:#D5DE00;stroke-miterlimit:10;}
	.st90{opacity:0.9333;fill:none;stroke:#D5DE00;stroke-miterlimit:10;}
	.st91{opacity:0.9444;fill:none;stroke:#D5DE00;stroke-miterlimit:10;}
	.st92{opacity:0.9556;fill:none;stroke:#D5DE00;stroke-miterlimit:10;}
	.st93{opacity:0.9667;fill:none;stroke:#D5DE00;stroke-miterlimit:10;}
	.st94{opacity:0.9778;fill:none;stroke:#D5DE00;stroke-miterlimit:10;}
	.st95{opacity:0.9889;fill:none;stroke:#D5DE00;stroke-miterlimit:10;}
	.st96{opacity:0.75;fill:url(#SVGID_00000011000220157149821720000016293517714230552726_);}
	.st97{opacity:0.75;fill:url(#SVGID_00000167354247399644207550000002206517239735869325_);}
	.st98{opacity:0.75;fill:url(#SVGID_00000120536538599269282810000008276346657509500568_);}
	.st99{fill:none;stroke:#F2EBE0;stroke-width:0.25;stroke-miterlimit:10;}
</style>
<g>
	<radialGradient id="SVGID_1_" cx="107.5" cy="112.5" r="80.5" gradientUnits="userSpaceOnUse">
		<stop  offset="0" style="stop-color:#D5DE00"/>
		<stop  offset="0.1002" style="stop-color:#D8E01B"/>
		<stop  offset="0.4297" style="stop-color:#E3E46E"/>
		<stop  offset="0.6997" style="stop-color:#EBE8AC"/>
		<stop  offset="0.8966" style="stop-color:#F0EAD2"/>
		<stop  offset="1" style="stop-color:#F2EBE0"/>
	</radialGradient>
	<circle class="st0" cx="107.5" cy="112.5" r="80.5"/>
	<g>
		<g>
			<path d="M97.36,34.15l-2.41,0.77c-0.17-0.28-0.46-0.86-0.67-1.33c-0.54,1.31-1.5,2.34-4.08,3.17c-4.44,1.42-7.88-0.85-9.16-4.86
				c-1.28-4,0.33-8.05,5.22-9.62c4.4-1.4,7.05,0.38,8.05,2.26l-3.35,1.07c-0.49-0.6-1.66-1.54-3.91-0.82
				c-2.8,0.89-3.38,3.28-2.57,5.83c0.86,2.69,2.77,4.29,5.56,3.4c2.32-0.74,2.99-2.28,2.47-3.91l-0.07-0.22l-3.33,1.06L88.3,28.4
				l6.55-2.09L97.36,34.15z"/>
			<path d="M104.84,27.55l0.49,5.51l-3.44,0.31l-1.27-14.31l7.79-0.69c3.3-0.29,5.33,1.17,5.55,3.62c0.17,1.85-0.81,3.03-2.19,3.61
				c0.61,0.18,2.19,0.61,2.42,3.17l0.06,0.71c0.09,0.98,0.17,2.08,0.43,2.74l-3.56,0.32c-0.29-0.61-0.4-1.45-0.53-2.97l-0.04-0.47
				c-0.13-1.45-0.71-2-2.8-1.82L104.84,27.55z M104.6,24.95l3.58-0.32c1.69-0.15,2.36-0.82,2.25-2.03c-0.1-1.13-0.91-1.71-2.54-1.56
				l-3.61,0.32L104.6,24.95z"/>
			<path d="M122.39,29.5l-1.66,3.08l-3.56-0.45l7.56-13.52l4.44,0.56l4.22,15.02l-3.74-0.48l-0.91-3.4L122.39,29.5z M128.12,27.41
				c-0.91-3.44-1.34-5.18-1.55-6.31l-0.02,0c-0.46,1.03-1.49,3.1-2.91,5.75L128.12,27.41z"/>
			<path d="M141.2,21.62l7,2.49c3.15,1.12,4.67,3.45,3.73,6.12c-0.98,2.77-3.54,3.72-6.86,2.54l-3.65-1.3l-1.73,4.86l-3.3-1.17
				L141.2,21.62z M142.32,28.92l3.4,1.21c1.39,0.5,2.44,0.33,2.92-1.01c0.39-1.1-0.04-2.01-1.64-2.58l-3.4-1.21L142.32,28.92z"/>
			<path d="M159.74,29.06l2.95,1.85l-2.87,4.57l5.6,3.52l2.87-4.57l2.95,1.85l-7.64,12.16l-2.95-1.86l3.29-5.24l-5.6-3.52
				l-3.29,5.24l-2.95-1.85L159.74,29.06z"/>
			<path d="M179.64,43.51l-9.58,10.71l-2.6-2.33l9.58-10.71L179.64,43.51z"/>
			<path d="M186.15,65.71c-2.38,1.06-5.47,0.96-8.29-2.56c-3.21-4.01-1.99-8.16,1.08-10.61c3.06-2.45,7.56-2.56,10.73,1.39
				c2.75,3.43,2.21,6.68,0.6,8.51l-2.21-2.76c0.46-0.74,1-2.18-0.53-4.09c-1.68-2.1-4.15-1.91-6.2-0.27
				c-2.06,1.65-3.04,4.07-1.27,6.28c1.28,1.6,2.46,1.8,3.89,1.37L186.15,65.71z"/>
			<path d="M201.57,73.5l2.28,6.08c1.7,4.53-0.32,8.12-3.87,9.45c-4.31,1.61-8.15-0.56-9.62-4.48l-2.25-6.01L201.57,73.5z
				 M191.87,80.86l0.87,2.32c0.99,2.63,3,3.5,5.86,2.43c2.49-0.93,3.55-2.81,2.56-5.54l-0.88-2.36L191.87,80.86z"/>
			<path d="M201.59,106.11l-1.24-7.92l-3.23,0.51l1.38,8.81l-2.82,0.04l-1.86-11.86l14.2-2.22l1.85,11.8l-2.76,0.43l-1.31-8.35
				l-2.69,0.42l1.24,7.92L201.59,106.11z"/>
			<path d="M199.94,114.17c-1.26,0.34-2.13,1.29-2.26,3.67c-0.13,2.23,0.52,2.91,1.44,2.96c0.99,0.06,1.58-0.58,2.27-3.57
				c1.13-4.93,2.8-5.74,4.72-5.63c2.86,0.16,4.17,3,3.98,6.39c-0.28,4.92-2.88,6.12-4.56,6.18l0.2-3.48
				c0.72-0.16,1.7-0.59,1.83-2.95c0.09-1.66-0.39-2.53-1.31-2.58c-0.83-0.05-1.28,0.52-1.91,3.19c-1.28,5.39-2.98,6.15-5.06,6.04
				c-2.49-0.14-4.38-2.2-4.11-7.01c0.25-4.49,2.37-6.39,4.97-6.68L199.94,114.17z"/>
			<path d="M207.4,134.9l-14.04-3.06l0.74-3.41l14.04,3.06L207.4,134.9z"/>
			<path d="M186.99,149.86l0.95-2.34c0.32,0.04,0.95,0.19,1.45,0.34c-0.66-1.25-0.84-2.65,0.17-5.16c1.75-4.31,5.69-5.51,9.58-3.93
				c3.89,1.58,5.98,5.4,4.05,10.16c-1.73,4.27-4.8,5.17-6.88,4.74l1.32-3.26c0.78,0.01,2.24-0.29,3.12-2.48
				c1.1-2.73-0.36-4.7-2.83-5.7c-2.61-1.06-5.07-0.62-6.17,2.1c-0.91,2.25-0.16,3.75,1.42,4.4l0.21,0.09l1.31-3.24l2.49,1.01
				l-2.58,6.37L186.99,149.86z"/>
			<path d="M184.77,153.85l11.73,8.3l-2.38,3.37c-7.36-0.26-10.12-0.24-12.04-0.49l-0.02,0.03c1.31,0.76,3.5,2.33,5.43,3.69
				l2.9,2.05l-1.84,2.61l-11.73-8.3l2.24-3.16c2.53,0.13,11.02,0.5,12.85,0.75l0.02-0.03c-1.52-0.93-3.19-2.11-5.27-3.58l-3.72-2.63
				L184.77,153.85z"/>
		</g>
	</g>
	<path class="st12" d="M166.57,190.81C151.08,202.84,131.63,210,110.5,210C59.97,210,19,169.03,19,118.5
		c0-27.46,12.1-52.1,31.26-68.87"/>
</g>
</svg>
