<?xml version="1.0" encoding="utf-8"?>
<!-- Generator: Adobe Illustrator 27.0.0, SVG Export Plug-In . SVG Version: 6.00 Build 0)  -->
<svg version="1.1" id="Layer_1" xmlns="http://www.w3.org/2000/svg" xmlns:xlink="http://www.w3.org/1999/xlink" x="0px" y="0px"
	 viewBox="0 0 234 232" style="enable-background:new 0 0 234 232;" xml:space="preserve">
<style type="text/css">
	.st0{opacity:0.75;fill:url(#SVGID_1_);}
	.st1{fill:none;stroke:#000000;}
	.st2{opacity:0.75;fill:url(#SVGID_00000099649743523897678860000004216468151690872984_);}
	.st3{fill:none;stroke:#2F312E;stroke-miterlimit:10;}
	.st4{opacity:0.75;fill:url(#SVGID_00000151539695151504701210000012950841287954733716_);}
	.st5{fill:none;stroke:#F2EBE0;stroke-miterlimit:10;}
	.st6{fill:none;stroke:#D5DE00;stroke-miterlimit:10;}
	.st7{fill:none;stroke:#000000;stroke-width:0.5;stroke-miterlimit:10;}
	.st8{fill:#F2EBE0;}
	.st9{fill:#D5DE00;}
	.st10{fill:#F2EBE0;stroke:#000000;stroke-width:0.5;stroke-miterlimit:10;}
	.st11{fill:none;stroke:#F2EBE0;stroke-width:0.5;stroke-miterlimit:10;}
	.st12{fill:none;stroke:#000000;stroke-width:0.25;stroke-miterlimit:10;}
	.st13{fill:none;stroke:#D5DE00;stroke-width:6;stroke-miterlimit:10;}
	.st14{opacity:0.4;}
	.st15{opacity:0.1;fill:none;stroke:#D5DE00;stroke-miterlimit:10;}
	.st16{opacity:0.1111;fill:none;stroke:#D5DE00;stroke-miterlimit:10;}
	.st17{opacity:0.1222;fill:none;stroke:#D5DE00;stroke-miterlimit:10;}
	.st18{opacity:0.1333;fill:none;stroke:#D5DE00;stroke-miterlimit:10;}
	.st19{opacity:0.1444;fill:none;stroke:#D5DE00;stroke-miterlimit:10;}
	.st20{opacity:0.1556;fill:none;stroke:#D5DE00;stroke-miterlimit:10;}
	.st21{opacity:0.1667;fill:none;stroke:#D5DE00;stroke-miterlimit:10;}
	.st22{opacity:0.1778;fill:none;stroke:#D5DE00;stroke-miterlimit:10;}
	.st23{opacity:0.1889;fill:none;stroke:#D5DE00;stroke-miterlimit:10;}
	.st24{opacity:0.2;fill:none;stroke:#D5DE00;stroke-miterlimit:10;}
	.st25{opacity:0.2111;fill:none;stroke:#D5DE00;stroke-miterlimit:10;}
	.st26{opacity:0.2222;fill:none;stroke:#D5DE00;stroke-miterlimit:10;}
	.st27{opacity:0.2333;fill:none;stroke:#D5DE00;stroke-miterlimit:10;}
	.st28{opacity:0.2444;fill:none;stroke:#D5DE00;stroke-miterlimit:10;}
	.st29{opacity:0.2556;fill:none;stroke:#D5DE00;stroke-miterlimit:10;}
	.st30{opacity:0.2667;fill:none;stroke:#D5DE00;stroke-miterlimit:10;}
	.st31{opacity:0.2778;fill:none;stroke:#D5DE00;stroke-miterlimit:10;}
	.st32{opacity:0.2889;fill:none;stroke:#D5DE00;stroke-miterlimit:10;}
	.st33{opacity:0.3;fill:none;stroke:#D5DE00;stroke-miterlimit:10;}
	.st34{opacity:0.3111;fill:none;stroke:#D5DE00;stroke-miterlimit:10;}
	.st35{opacity:0.3222;fill:none;stroke:#D5DE00;stroke-miterlimit:10;}
	.st36{opacity:0.3333;fill:none;stroke:#D5DE00;stroke-miterlimit:10;}
	.st37{opacity:0.3444;fill:none;stroke:#D5DE00;stroke-miterlimit:10;}
	.st38{opacity:0.3556;fill:none;stroke:#D5DE00;stroke-miterlimit:10;}
	.st39{opacity:0.3667;fill:none;stroke:#D5DE00;stroke-miterlimit:10;}
	.st40{opacity:0.3778;fill:none;stroke:#D5DE00;stroke-miterlimit:10;}
	.st41{opacity:0.3889;fill:none;stroke:#D5DE00;stroke-miterlimit:10;}
	.st42{opacity:0.4;fill:none;stroke:#D5DE00;stroke-miterlimit:10;}
	.st43{opacity:0.4111;fill:none;stroke:#D5DE00;stroke-miterlimit:10;}
	.st44{opacity:0.4222;fill:none;stroke:#D5DE00;stroke-miterlimit:10;}
	.st45{opacity:0.4333;fill:none;stroke:#D5DE00;stroke-miterlimit:10;}
	.st46{opacity:0.4444;fill:none;stroke:#D5DE00;stroke-miterlimit:10;}
	.st47{opacity:0.4556;fill:none;stroke:#D5DE00;stroke-miterlimit:10;}
	.st48{opacity:0.4667;fill:none;stroke:#D5DE00;stroke-miterlimit:10;}
	.st49{opacity:0.4778;fill:none;stroke:#D5DE00;stroke-miterlimit:10;}
	.st50{opacity:0.4889;fill:none;stroke:#D5DE00;stroke-miterlimit:10;}
	.st51{opacity:0.5;fill:none;stroke:#D5DE00;stroke-miterlimit:10;}
	.st52{opacity:0.5111;fill:none;stroke:#D5DE00;stroke-miterlimit:10;}
	.st53{opacity:0.5222;fill:none;stroke:#D5DE00;stroke-miterlimit:10;}
	.st54{opacity:0.5333;fill:none;stroke:#D5DE00;stroke-miterlimit:10;}
	.st55{opacity:0.5444;fill:none;stroke:#D5DE00;stroke-miterlimit:10;}
	.st56{opacity:0.5556;fill:none;stroke:#D5DE00;stroke-miterlimit:10;}
	.st57{opacity:0.5667;fill:none;stroke:#D5DE00;stroke-miterlimit:10;}
	.st58{opacity:0.5778;fill:none;stroke:#D5DE00;stroke-miterlimit:10;}
	.st59{opacity:0.5889;fill:none;stroke:#D5DE00;stroke-miterlimit:10;}
	.st60{opacity:0.6;fill:none;stroke:#D5DE00;stroke-miterlimit:10;}
	.st61{opacity:0.6111;fill:none;stroke:#D5DE00;stroke-miterlimit:10;}
	.st62{opacity:0.6222;fill:none;stroke:#D5DE00;stroke-miterlimit:10;}
	.st63{opacity:0.6333;fill:none;stroke:#D5DE00;stroke-miterlimit:10;}
	.st64{opacity:0.6444;fill:none;stroke:#D5DE00;stroke-miterlimit:10;}
	.st65{opacity:0.6556;fill:none;stroke:#D5DE00;stroke-miterlimit:10;}
	.st66{opacity:0.6667;fill:none;stroke:#D5DE00;stroke-miterlimit:10;}
	.st67{opacity:0.6778;fill:none;stroke:#D5DE00;stroke-miterlimit:10;}
	.st68{opacity:0.6889;fill:none;stroke:#D5DE00;stroke-miterlimit:10;}
	.st69{opacity:0.7;fill:none;stroke:#D5DE00;stroke-miterlimit:10;}
	.st70{opacity:0.7111;fill:none;stroke:#D5DE00;stroke-miterlimit:10;}
	.st71{opacity:0.7222;fill:none;stroke:#D5DE00;stroke-miterlimit:10;}
	.st72{opacity:0.7333;fill:none;stroke:#D5DE00;stroke-miterlimit:10;}
	.st73{opacity:0.7444;fill:none;stroke:#D5DE00;stroke-miterlimit:10;}
	.st74{opacity:0.7556;fill:none;stroke:#D5DE00;stroke-miterlimit:10;}
	.st75{opacity:0.7667;fill:none;stroke:#D5DE00;stroke-miterlimit:10;}
	.st76{opacity:0.7778;fill:none;stroke:#D5DE00;stroke-miterlimit:10;}
	.st77{opacity:0.7889;fill:none;stroke:#D5DE00;stroke-miterlimit:10;}
	.st78{opacity:0.8;fill:none;stroke:#D5DE00;stroke-miterlimit:10;}
	.st79{opacity:0.8111;fill:none;stroke:#D5DE00;stroke-miterlimit:10;}
	.st80{opacity:0.8222;fill:none;stroke:#D5DE00;stroke-miterlimit:10;}
	.st81{opacity:0.8333;fill:none;stroke:#D5DE00;stroke-miterlimit:10;}
	.st82{opacity:0.8444;fill:none;stroke:#D5DE00;stroke-miterlimit:10;}
	.st83{opacity:0.8556;fill:none;stroke:#D5DE00;stroke-miterlimit:10;}
	.st84{opacity:0.8667;fill:none;stroke:#D5DE00;stroke-miterlimit:10;}
	.st85{opacity:0.8778;fill:none;stroke:#D5DE00;stroke-miterlimit:10;}
	.st86{opacity:0.8889;fill:none;stroke:#D5DE00;stroke-miterlimit:10;}
	.st87{opacity:0.9;fill:none;stroke:#D5DE00;stroke-miterlimit:10;}
	.st88{opacity:0.9111;fill:none;stroke:#D5DE00;stroke-miterlimit:10;}
	.st89{opacity:0.9222;fill:none;stroke:#D5DE00;stroke-miterlimit:10;}
	.st90{opacity:0.9333;fill:none;stroke:#D5DE00;stroke-miterlimit:10;}
	.st91{opacity:0.9444;fill:none;stroke:#D5DE00;stroke-miterlimit:10;}
	.st92{opacity:0.9556;fill:none;stroke:#D5DE00;stroke-miterlimit:10;}
	.st93{opacity:0.9667;fill:none;stroke:#D5DE00;stroke-miterlimit:10;}
	.st94{opacity:0.9778;fill:none;stroke:#D5DE00;stroke-miterlimit:10;}
	.st95{opacity:0.9889;fill:none;stroke:#D5DE00;stroke-miterlimit:10;}
	.st96{opacity:0.75;fill:url(#SVGID_00000133511116121723229340000007043627764056959649_);}
	.st97{opacity:0.75;fill:url(#SVGID_00000107546956712885709990000007123044761466706061_);}
	.st98{opacity:0.75;fill:url(#SVGID_00000053538939713675406630000004148477386634080191_);}
	.st99{fill:none;stroke:#F2EBE0;stroke-width:0.25;stroke-miterlimit:10;}
</style>
<g>
	<radialGradient id="SVGID_1_" cx="112.5" cy="109.5" r="80.5" gradientUnits="userSpaceOnUse">
		<stop  offset="0" style="stop-color:#D5DE00"/>
		<stop  offset="0.1002" style="stop-color:#D8E01B"/>
		<stop  offset="0.4297" style="stop-color:#E3E46E"/>
		<stop  offset="0.6997" style="stop-color:#EBE8AC"/>
		<stop  offset="0.8966" style="stop-color:#F0EAD2"/>
		<stop  offset="1" style="stop-color:#F2EBE0"/>
	</radialGradient>
	<circle class="st0" cx="112.5" cy="109.5" r="80.5"/>
	<g>
		<g>
			<path d="M83.39,22.44l5.79,13.14L86,36.99L80.2,23.85L83.39,22.44z"/>
			<path d="M90.29,19.75l3.36-0.91L96.68,30l7.76-2.11l0.29,2.82l-10.68,2.9L90.29,19.75z"/>
			<path d="M107.56,15.81l3.47-0.27l0.9,11.54l8.02-0.63l-0.24,2.82l-11.04,0.86L107.56,15.81z"/>
			<path d="M128.77,15.48l-1.02,8.06c-0.38,3.03,1.11,4,2.86,4.22c1.86,0.24,3.21-0.41,3.59-3.4l1.02-8.06l3.46,0.44l-1.04,8.17
				c-0.55,4.32-3.24,6.08-7.47,5.54c-4.1-0.52-6.46-2.73-5.9-7.16l1.04-8.25L128.77,15.48z"/>
			<path d="M144.97,28.85c-0.03,1.31,0.63,2.41,2.88,3.2c2.1,0.75,2.94,0.32,3.25-0.55c0.33-0.93-0.1-1.68-2.78-3.18
				c-4.41-2.47-4.72-4.3-4.08-6.12c0.96-2.7,4.05-3.16,7.25-2.02c4.64,1.65,5.05,4.49,4.65,6.12l-3.29-1.17
				c0.05-0.74-0.08-1.8-2.32-2.59c-1.56-0.56-2.53-0.34-2.85,0.53c-0.28,0.78,0.14,1.37,2.52,2.73c4.81,2.75,5.06,4.59,4.37,6.55
				c-0.83,2.35-3.35,3.59-7.89,1.97c-4.23-1.51-5.47-4.07-5.01-6.66L144.97,28.85z"/>
			<path d="M165.77,30.05l-4.34-2.6l1.43-2.38l11.66,6.98l-1.43,2.38l-4.32-2.59l-5.96,9.94L159.81,40L165.77,30.05z"/>
			<path d="M176.1,44.71l-3.74,4.09l-2.55-2.33l9.69-10.61l5.78,5.28c2.45,2.24,2.74,4.72,1.08,6.54c-1.25,1.37-2.78,1.45-4.14,0.82
				c0.28,0.57,1.04,2.03-0.71,3.93l-0.48,0.53c-0.67,0.73-1.42,1.53-1.74,2.17l-2.64-2.42c0.25-0.63,0.8-1.28,1.83-2.4l0.32-0.35
				c0.98-1.07,1-1.88-0.55-3.29L176.1,44.71z M177.86,42.78l2.65,2.42c1.25,1.14,2.2,1.19,3.02,0.29c0.77-0.84,0.65-1.82-0.57-2.93
				l-2.67-2.45L177.86,42.78z"/>
			<path d="M186.51,58.96l-3.39,0.86l-2.07-2.93l15.07-3.57l2.58,3.65l-8.21,13.26l-2.18-3.08l1.89-2.97L186.51,58.96z
				 M191.92,61.77c1.92-2.99,2.91-4.49,3.61-5.41l-0.01-0.02c-1.06,0.36-3.29,1-6.2,1.74L191.92,61.77z"/>
			<path d="M203.72,71.57l-2.02-4.63l2.54-1.11l5.44,12.45l-2.54,1.11l-2.02-4.62L194.5,79.4l-1.4-3.2L203.72,71.57z"/>
			<path d="M212.1,87.13l-13.87,3.71l-0.9-3.37l13.87-3.71L212.1,87.13z"/>
			<path d="M208.07,109.77c-3.96,0.36-7.74-1.97-8.21-7.17c-0.44-4.85,2.63-7.92,6.8-8.3c3.93-0.35,7.69,2.27,8.12,7.11
				C215.24,106.41,211.97,109.42,208.07,109.77z M207.04,97.96c-2.7,0.24-4.7,1.81-4.45,4.59c0.26,2.88,2.79,3.77,5.11,3.56
				c2.53-0.23,4.63-1.66,4.36-4.56C211.82,98.77,209.45,97.74,207.04,97.96z"/>
			<path d="M200.67,114.55l14.23,2.01l-0.58,4.09c-6.67,3.14-9.11,4.42-10.93,5.07l-0.01,0.04c1.51,0.07,4.17,0.47,6.51,0.8
				l3.52,0.5l-0.45,3.16l-14.23-2.01l0.54-3.83c2.31-1.04,10.02-4.6,11.77-5.21l0.01-0.04c-1.77-0.13-3.8-0.42-6.32-0.77l-4.51-0.64
				L200.67,114.55z"/>
		</g>
	</g>
	<path class="st12" d="M203.65,140.12C192.9,178.7,157.5,207,115.5,207C64.97,207,24,166.03,24,115.5c0-35,19.65-65.4,48.51-80.79"
		/>
</g>
</svg>
