<?xml version="1.0" encoding="utf-8"?>
<!-- Generator: Adobe Illustrator 27.0.0, SVG Export Plug-In . SVG Version: 6.00 Build 0)  -->
<svg version="1.1" id="Layer_1" xmlns="http://www.w3.org/2000/svg" xmlns:xlink="http://www.w3.org/1999/xlink" x="0px" y="0px"
	 viewBox="0 0 268 232" style="enable-background:new 0 0 268 232;" xml:space="preserve">
<style type="text/css">
	.st0{opacity:0.75;fill:url(#SVGID_1_);}
	.st1{fill:none;stroke:#000000;}
	.st2{opacity:0.75;fill:url(#SVGID_00000085247894426971100040000013965531727778158729_);}
	.st3{fill:none;stroke:#2F312E;stroke-miterlimit:10;}
	.st4{opacity:0.75;fill:url(#SVGID_00000176736111862534619740000011661381079198186409_);}
	.st5{fill:none;stroke:#F2EBE0;stroke-miterlimit:10;}
	.st6{fill:none;stroke:#D5DE00;stroke-miterlimit:10;}
	.st7{fill:none;stroke:#000000;stroke-width:0.5;stroke-miterlimit:10;}
	.st8{fill:#F2EBE0;}
	.st9{fill:#D5DE00;}
	.st10{fill:#F2EBE0;stroke:#000000;stroke-width:0.5;stroke-miterlimit:10;}
	.st11{fill:none;stroke:#F2EBE0;stroke-width:0.5;stroke-miterlimit:10;}
	.st12{fill:none;stroke:#000000;stroke-width:0.25;stroke-miterlimit:10;}
	.st13{fill:none;stroke:#D5DE00;stroke-width:6;stroke-miterlimit:10;}
	.st14{opacity:0.4;}
	.st15{opacity:0.1;fill:none;stroke:#D5DE00;stroke-miterlimit:10;}
	.st16{opacity:0.1111;fill:none;stroke:#D5DE00;stroke-miterlimit:10;}
	.st17{opacity:0.1222;fill:none;stroke:#D5DE00;stroke-miterlimit:10;}
	.st18{opacity:0.1333;fill:none;stroke:#D5DE00;stroke-miterlimit:10;}
	.st19{opacity:0.1444;fill:none;stroke:#D5DE00;stroke-miterlimit:10;}
	.st20{opacity:0.1556;fill:none;stroke:#D5DE00;stroke-miterlimit:10;}
	.st21{opacity:0.1667;fill:none;stroke:#D5DE00;stroke-miterlimit:10;}
	.st22{opacity:0.1778;fill:none;stroke:#D5DE00;stroke-miterlimit:10;}
	.st23{opacity:0.1889;fill:none;stroke:#D5DE00;stroke-miterlimit:10;}
	.st24{opacity:0.2;fill:none;stroke:#D5DE00;stroke-miterlimit:10;}
	.st25{opacity:0.2111;fill:none;stroke:#D5DE00;stroke-miterlimit:10;}
	.st26{opacity:0.2222;fill:none;stroke:#D5DE00;stroke-miterlimit:10;}
	.st27{opacity:0.2333;fill:none;stroke:#D5DE00;stroke-miterlimit:10;}
	.st28{opacity:0.2444;fill:none;stroke:#D5DE00;stroke-miterlimit:10;}
	.st29{opacity:0.2556;fill:none;stroke:#D5DE00;stroke-miterlimit:10;}
	.st30{opacity:0.2667;fill:none;stroke:#D5DE00;stroke-miterlimit:10;}
	.st31{opacity:0.2778;fill:none;stroke:#D5DE00;stroke-miterlimit:10;}
	.st32{opacity:0.2889;fill:none;stroke:#D5DE00;stroke-miterlimit:10;}
	.st33{opacity:0.3;fill:none;stroke:#D5DE00;stroke-miterlimit:10;}
	.st34{opacity:0.3111;fill:none;stroke:#D5DE00;stroke-miterlimit:10;}
	.st35{opacity:0.3222;fill:none;stroke:#D5DE00;stroke-miterlimit:10;}
	.st36{opacity:0.3333;fill:none;stroke:#D5DE00;stroke-miterlimit:10;}
	.st37{opacity:0.3444;fill:none;stroke:#D5DE00;stroke-miterlimit:10;}
	.st38{opacity:0.3556;fill:none;stroke:#D5DE00;stroke-miterlimit:10;}
	.st39{opacity:0.3667;fill:none;stroke:#D5DE00;stroke-miterlimit:10;}
	.st40{opacity:0.3778;fill:none;stroke:#D5DE00;stroke-miterlimit:10;}
	.st41{opacity:0.3889;fill:none;stroke:#D5DE00;stroke-miterlimit:10;}
	.st42{opacity:0.4;fill:none;stroke:#D5DE00;stroke-miterlimit:10;}
	.st43{opacity:0.4111;fill:none;stroke:#D5DE00;stroke-miterlimit:10;}
	.st44{opacity:0.4222;fill:none;stroke:#D5DE00;stroke-miterlimit:10;}
	.st45{opacity:0.4333;fill:none;stroke:#D5DE00;stroke-miterlimit:10;}
	.st46{opacity:0.4444;fill:none;stroke:#D5DE00;stroke-miterlimit:10;}
	.st47{opacity:0.4556;fill:none;stroke:#D5DE00;stroke-miterlimit:10;}
	.st48{opacity:0.4667;fill:none;stroke:#D5DE00;stroke-miterlimit:10;}
	.st49{opacity:0.4778;fill:none;stroke:#D5DE00;stroke-miterlimit:10;}
	.st50{opacity:0.4889;fill:none;stroke:#D5DE00;stroke-miterlimit:10;}
	.st51{opacity:0.5;fill:none;stroke:#D5DE00;stroke-miterlimit:10;}
	.st52{opacity:0.5111;fill:none;stroke:#D5DE00;stroke-miterlimit:10;}
	.st53{opacity:0.5222;fill:none;stroke:#D5DE00;stroke-miterlimit:10;}
	.st54{opacity:0.5333;fill:none;stroke:#D5DE00;stroke-miterlimit:10;}
	.st55{opacity:0.5444;fill:none;stroke:#D5DE00;stroke-miterlimit:10;}
	.st56{opacity:0.5556;fill:none;stroke:#D5DE00;stroke-miterlimit:10;}
	.st57{opacity:0.5667;fill:none;stroke:#D5DE00;stroke-miterlimit:10;}
	.st58{opacity:0.5778;fill:none;stroke:#D5DE00;stroke-miterlimit:10;}
	.st59{opacity:0.5889;fill:none;stroke:#D5DE00;stroke-miterlimit:10;}
	.st60{opacity:0.6;fill:none;stroke:#D5DE00;stroke-miterlimit:10;}
	.st61{opacity:0.6111;fill:none;stroke:#D5DE00;stroke-miterlimit:10;}
	.st62{opacity:0.6222;fill:none;stroke:#D5DE00;stroke-miterlimit:10;}
	.st63{opacity:0.6333;fill:none;stroke:#D5DE00;stroke-miterlimit:10;}
	.st64{opacity:0.6444;fill:none;stroke:#D5DE00;stroke-miterlimit:10;}
	.st65{opacity:0.6556;fill:none;stroke:#D5DE00;stroke-miterlimit:10;}
	.st66{opacity:0.6667;fill:none;stroke:#D5DE00;stroke-miterlimit:10;}
	.st67{opacity:0.6778;fill:none;stroke:#D5DE00;stroke-miterlimit:10;}
	.st68{opacity:0.6889;fill:none;stroke:#D5DE00;stroke-miterlimit:10;}
	.st69{opacity:0.7;fill:none;stroke:#D5DE00;stroke-miterlimit:10;}
	.st70{opacity:0.7111;fill:none;stroke:#D5DE00;stroke-miterlimit:10;}
	.st71{opacity:0.7222;fill:none;stroke:#D5DE00;stroke-miterlimit:10;}
	.st72{opacity:0.7333;fill:none;stroke:#D5DE00;stroke-miterlimit:10;}
	.st73{opacity:0.7444;fill:none;stroke:#D5DE00;stroke-miterlimit:10;}
	.st74{opacity:0.7556;fill:none;stroke:#D5DE00;stroke-miterlimit:10;}
	.st75{opacity:0.7667;fill:none;stroke:#D5DE00;stroke-miterlimit:10;}
	.st76{opacity:0.7778;fill:none;stroke:#D5DE00;stroke-miterlimit:10;}
	.st77{opacity:0.7889;fill:none;stroke:#D5DE00;stroke-miterlimit:10;}
	.st78{opacity:0.8;fill:none;stroke:#D5DE00;stroke-miterlimit:10;}
	.st79{opacity:0.8111;fill:none;stroke:#D5DE00;stroke-miterlimit:10;}
	.st80{opacity:0.8222;fill:none;stroke:#D5DE00;stroke-miterlimit:10;}
	.st81{opacity:0.8333;fill:none;stroke:#D5DE00;stroke-miterlimit:10;}
	.st82{opacity:0.8444;fill:none;stroke:#D5DE00;stroke-miterlimit:10;}
	.st83{opacity:0.8556;fill:none;stroke:#D5DE00;stroke-miterlimit:10;}
	.st84{opacity:0.8667;fill:none;stroke:#D5DE00;stroke-miterlimit:10;}
	.st85{opacity:0.8778;fill:none;stroke:#D5DE00;stroke-miterlimit:10;}
	.st86{opacity:0.8889;fill:none;stroke:#D5DE00;stroke-miterlimit:10;}
	.st87{opacity:0.9;fill:none;stroke:#D5DE00;stroke-miterlimit:10;}
	.st88{opacity:0.9111;fill:none;stroke:#D5DE00;stroke-miterlimit:10;}
	.st89{opacity:0.9222;fill:none;stroke:#D5DE00;stroke-miterlimit:10;}
	.st90{opacity:0.9333;fill:none;stroke:#D5DE00;stroke-miterlimit:10;}
	.st91{opacity:0.9444;fill:none;stroke:#D5DE00;stroke-miterlimit:10;}
	.st92{opacity:0.9556;fill:none;stroke:#D5DE00;stroke-miterlimit:10;}
	.st93{opacity:0.9667;fill:none;stroke:#D5DE00;stroke-miterlimit:10;}
	.st94{opacity:0.9778;fill:none;stroke:#D5DE00;stroke-miterlimit:10;}
	.st95{opacity:0.9889;fill:none;stroke:#D5DE00;stroke-miterlimit:10;}
	.st96{opacity:0.75;fill:url(#SVGID_00000158011941456670395540000015037231800016900519_);}
	.st97{opacity:0.75;fill:url(#SVGID_00000065076116635033910960000004434578620695426485_);}
	.st98{opacity:0.75;fill:url(#SVGID_00000154416518943920178500000010442300648457153721_);}
	.st99{fill:none;stroke:#F2EBE0;stroke-width:0.25;stroke-miterlimit:10;}
</style>
<g>
	<radialGradient id="SVGID_1_" cx="131.5" cy="109.5" r="80.5" gradientUnits="userSpaceOnUse">
		<stop  offset="0" style="stop-color:#D5DE00"/>
		<stop  offset="0.1002" style="stop-color:#D8E01B"/>
		<stop  offset="0.4297" style="stop-color:#E3E46E"/>
		<stop  offset="0.6997" style="stop-color:#EBE8AC"/>
		<stop  offset="0.8966" style="stop-color:#F0EAD2"/>
		<stop  offset="1" style="stop-color:#F2EBE0"/>
	</radialGradient>
	<circle class="st0" cx="131.5" cy="109.5" r="80.5"/>
	<g>
		<g>
			<path d="M104.11,31.25c-1.13-2.2-2.3-4.5-2.95-5.96l-0.02,0.01c0.58,2.69,1.31,7.05,2.22,12.52l-2.73,1.4
				c-3.29-3.52-6.82-7.09-8.75-9.16l-0.02,0.01c0.86,1.44,2.25,3.86,3.37,6.04l2.4,4.66l-2.79,1.44l-6.57-12.77l4.48-2.31
				c3.32,3.3,6.28,6.16,7.56,7.71l0.02-0.01c-0.5-2.29-1.07-6.24-1.78-10.69l4.5-2.32l6.57,12.77l-2.99,1.54L104.11,31.25z"/>
			<path d="M126.97,22.77c0.89,3.88-0.91,7.94-6,9.11c-4.75,1.09-8.21-1.54-9.14-5.63c-0.88-3.85,1.21-7.92,5.96-9.01
				C122.68,16.13,126.1,18.96,126.97,22.77z M115.4,25.4c0.61,2.65,2.42,4.42,5.15,3.79c2.82-0.64,3.36-3.27,2.84-5.55
				c-0.57-2.48-2.27-4.36-5.11-3.71C115.57,20.55,114.86,23.04,115.4,25.4z"/>
			<path d="M135.94,17.96l-5.06,0.08l-0.04-2.78l13.59-0.22l0.04,2.78l-5.04,0.08l0.19,11.59l-3.49,0.05L135.94,17.96z"/>
			<path d="M153.48,16.22l-1.92,14.23l-3.45-0.46l1.92-14.23L153.48,16.22z"/>
			<path d="M172.85,28.68c-1.2,3.79-4.81,6.38-9.79,4.81c-4.64-1.47-6.29-5.48-5.03-9.48c1.19-3.77,5.06-6.22,9.7-4.75
				C172.52,20.78,174.03,24.95,172.85,28.68z M161.56,25.08c-0.82,2.59-0.15,5.03,2.52,5.88c2.76,0.87,4.56-1.12,5.26-3.34
				c0.77-2.43,0.25-4.91-2.52-5.79C164.15,20.98,162.29,22.77,161.56,25.08z"/>
			<path d="M174.38,37.35l7.37-12.33l3.54,2.12c0.3,7.36,0.54,10.11,0.43,12.03l0.04,0.02c0.65-1.37,2.05-3.66,3.26-5.69l1.82-3.04
				l2.74,1.64l-7.37,12.33l-3.32-1.99c-0.07-2.53-0.35-11.01-0.24-12.86l-0.04-0.02c-0.81,1.58-1.85,3.34-3.16,5.53l-2.34,3.91
				L174.38,37.35z"/>
			<path d="M204.8,62.99l-1.65-1.92c0.19-0.27,0.61-0.76,0.96-1.13c-1.41,0.02-2.75-0.46-4.51-2.51c-3.04-3.53-2.31-7.58,0.88-10.33
				c3.18-2.74,7.54-2.85,10.89,1.04c3.01,3.49,2.41,6.64,1.08,8.29l-2.29-2.66c0.37-0.69,0.76-2.12-0.78-3.91
				c-1.92-2.23-4.34-1.83-6.37-0.08c-2.14,1.84-2.86,4.23-0.95,6.45c1.59,1.84,3.27,1.86,4.56,0.74l0.17-0.15l-2.28-2.65l2.04-1.76
				l4.49,5.21L204.8,62.99z"/>
			<path d="M213.81,67.32l-4.89,2.6l-1.62-3.05l12.69-6.74l3.67,6.91c1.56,2.93,1,5.37-1.18,6.53c-1.64,0.87-3.11,0.43-4.17-0.61
				c0.07,0.63,0.3,2.25-1.98,3.47l-0.63,0.34c-0.87,0.46-1.86,0.97-2.36,1.46l-1.68-3.16c0.45-0.51,1.18-0.93,2.53-1.65l0.42-0.22
				c1.28-0.68,1.57-1.44,0.58-3.29L213.81,67.32z M216.12,66.09l1.69,3.17c0.79,1.49,1.68,1.86,2.75,1.29c1-0.53,1.22-1.5,0.45-2.95
				l-1.7-3.2L216.12,66.09z"/>
			<path d="M218.83,84.26l-3.48-0.33l-0.96-3.46l15.39,1.73l1.2,4.31l-12.21,9.71l-1.01-3.63l2.78-2.16L218.83,84.26z M222.98,88.73
				c2.81-2.17,4.26-3.25,5.22-3.87l0-0.02c-1.12-0.02-3.43-0.17-6.43-0.46L222.98,88.73z"/>
			<path d="M233.4,98.49l0.45,7.42c0.2,3.33-1.35,5.65-4.17,5.82c-2.93,0.18-4.82-1.81-5.03-5.32l-0.23-3.87l-5.15,0.31l-0.21-3.5
				L233.4,98.49z M227.12,102.39l0.22,3.6c0.09,1.47,0.65,2.38,2.08,2.29c1.16-0.07,1.84-0.83,1.73-2.52l-0.22-3.6L227.12,102.39z"
				/>
			<path d="M233.8,118.48l-0.56,3.44l-5.33-0.86l-1.05,6.53l5.33,0.86l-0.56,3.44l-14.18-2.29l0.56-3.44l6.11,0.99l1.05-6.53
				l-6.11-0.99l0.56-3.44L233.8,118.48z"/>
			<path d="M228.23,142.47l-13.59-4.67l1.13-3.3l13.59,4.67L228.23,142.47z"/>
			<path d="M210.29,157.09c-1.9-1.79-3.01-4.66-0.86-8.62c2.45-4.51,6.75-5,10.2-3.12c3.45,1.87,5.29,5.98,2.88,10.43
				c-2.1,3.87-5.29,4.63-7.61,3.85l1.68-3.1c0.86,0.13,2.4,0.08,3.56-2.07c1.28-2.36,0.15-4.56-2.16-5.81
				c-2.32-1.26-4.93-1.22-6.28,1.26c-0.97,1.79-0.7,2.96,0.25,4.12L210.29,157.09z"/>
			<path d="M205.77,162.5c-1.21-0.49-2.47-0.27-4.03,1.54c-1.45,1.69-1.36,2.63-0.65,3.23c0.75,0.65,1.61,0.51,3.97-1.46
				c3.89-3.23,5.71-2.86,7.18-1.61c2.18,1.87,1.49,4.92-0.72,7.5c-3.21,3.74-6.01,3.11-7.38,2.14l2.27-2.65
				c0.67,0.31,1.71,0.57,3.25-1.23c1.08-1.26,1.23-2.24,0.52-2.85c-0.63-0.54-1.33-0.37-3.46,1.37c-4.3,3.5-6.11,3.08-7.69,1.72
				c-1.89-1.62-2.14-4.42,1-8.07c2.93-3.41,5.77-3.64,8.02-2.29L205.77,162.5z"/>
		</g>
	</g>
	<path class="st12" d="M190.57,187.81C175.08,199.84,155.63,207,134.5,207C83.97,207,43,166.03,43,115.5
		c0-27.46,12.1-52.1,31.26-68.87"/>
</g>
</svg>
