<?xml version="1.0" encoding="utf-8"?>
<!-- Generator: Adobe Illustrator 27.0.0, SVG Export Plug-In . SVG Version: 6.00 Build 0)  -->
<svg version="1.1" id="Layer_1" xmlns="http://www.w3.org/2000/svg" xmlns:xlink="http://www.w3.org/1999/xlink" x="0px" y="0px"
	 viewBox="0 0 1365 435" style="enable-background:new 0 0 1365 435;" xml:space="preserve">
<style type="text/css">
	.st0{opacity:0.75;fill:url(#SVGID_1_);}
	.st1{fill:none;stroke:#000000;}
	.st2{opacity:0.75;fill:url(#SVGID_00000109720046043269883490000000989693326501269913_);}
	.st3{fill:none;stroke:#2F312E;stroke-miterlimit:10;}
	.st4{opacity:0.75;fill:url(#SVGID_00000177457772038338346130000007732574506480273805_);}
	.st5{fill:none;stroke:#F2EBE0;stroke-miterlimit:10;}
	.st6{fill:none;stroke:#D5DE00;stroke-miterlimit:10;}
	.st7{fill:none;stroke:#000000;stroke-width:0.5;stroke-miterlimit:10;}
	.st8{fill:#F2EBE0;}
	.st9{fill:#D5DE00;}
	.st10{fill:#F2EBE0;stroke:#000000;stroke-width:0.5;stroke-miterlimit:10;}
	.st11{fill:none;stroke:#F2EBE0;stroke-width:0.5;stroke-miterlimit:10;}
	.st12{fill:none;stroke:#000000;stroke-width:0.25;stroke-miterlimit:10;}
	.st13{fill:none;stroke:#D5DE00;stroke-width:6;stroke-miterlimit:10;}
	.st14{opacity:0.4;}
	.st15{opacity:0.1;fill:none;stroke:#D5DE00;stroke-miterlimit:10;}
	.st16{opacity:0.1111;fill:none;stroke:#D5DE00;stroke-miterlimit:10;}
	.st17{opacity:0.1222;fill:none;stroke:#D5DE00;stroke-miterlimit:10;}
	.st18{opacity:0.1333;fill:none;stroke:#D5DE00;stroke-miterlimit:10;}
	.st19{opacity:0.1444;fill:none;stroke:#D5DE00;stroke-miterlimit:10;}
	.st20{opacity:0.1556;fill:none;stroke:#D5DE00;stroke-miterlimit:10;}
	.st21{opacity:0.1667;fill:none;stroke:#D5DE00;stroke-miterlimit:10;}
	.st22{opacity:0.1778;fill:none;stroke:#D5DE00;stroke-miterlimit:10;}
	.st23{opacity:0.1889;fill:none;stroke:#D5DE00;stroke-miterlimit:10;}
	.st24{opacity:0.2;fill:none;stroke:#D5DE00;stroke-miterlimit:10;}
	.st25{opacity:0.2111;fill:none;stroke:#D5DE00;stroke-miterlimit:10;}
	.st26{opacity:0.2222;fill:none;stroke:#D5DE00;stroke-miterlimit:10;}
	.st27{opacity:0.2333;fill:none;stroke:#D5DE00;stroke-miterlimit:10;}
	.st28{opacity:0.2444;fill:none;stroke:#D5DE00;stroke-miterlimit:10;}
	.st29{opacity:0.2556;fill:none;stroke:#D5DE00;stroke-miterlimit:10;}
	.st30{opacity:0.2667;fill:none;stroke:#D5DE00;stroke-miterlimit:10;}
	.st31{opacity:0.2778;fill:none;stroke:#D5DE00;stroke-miterlimit:10;}
	.st32{opacity:0.2889;fill:none;stroke:#D5DE00;stroke-miterlimit:10;}
	.st33{opacity:0.3;fill:none;stroke:#D5DE00;stroke-miterlimit:10;}
	.st34{opacity:0.3111;fill:none;stroke:#D5DE00;stroke-miterlimit:10;}
	.st35{opacity:0.3222;fill:none;stroke:#D5DE00;stroke-miterlimit:10;}
	.st36{opacity:0.3333;fill:none;stroke:#D5DE00;stroke-miterlimit:10;}
	.st37{opacity:0.3444;fill:none;stroke:#D5DE00;stroke-miterlimit:10;}
	.st38{opacity:0.3556;fill:none;stroke:#D5DE00;stroke-miterlimit:10;}
	.st39{opacity:0.3667;fill:none;stroke:#D5DE00;stroke-miterlimit:10;}
	.st40{opacity:0.3778;fill:none;stroke:#D5DE00;stroke-miterlimit:10;}
	.st41{opacity:0.3889;fill:none;stroke:#D5DE00;stroke-miterlimit:10;}
	.st42{opacity:0.4;fill:none;stroke:#D5DE00;stroke-miterlimit:10;}
	.st43{opacity:0.4111;fill:none;stroke:#D5DE00;stroke-miterlimit:10;}
	.st44{opacity:0.4222;fill:none;stroke:#D5DE00;stroke-miterlimit:10;}
	.st45{opacity:0.4333;fill:none;stroke:#D5DE00;stroke-miterlimit:10;}
	.st46{opacity:0.4444;fill:none;stroke:#D5DE00;stroke-miterlimit:10;}
	.st47{opacity:0.4556;fill:none;stroke:#D5DE00;stroke-miterlimit:10;}
	.st48{opacity:0.4667;fill:none;stroke:#D5DE00;stroke-miterlimit:10;}
	.st49{opacity:0.4778;fill:none;stroke:#D5DE00;stroke-miterlimit:10;}
	.st50{opacity:0.4889;fill:none;stroke:#D5DE00;stroke-miterlimit:10;}
	.st51{opacity:0.5;fill:none;stroke:#D5DE00;stroke-miterlimit:10;}
	.st52{opacity:0.5111;fill:none;stroke:#D5DE00;stroke-miterlimit:10;}
	.st53{opacity:0.5222;fill:none;stroke:#D5DE00;stroke-miterlimit:10;}
	.st54{opacity:0.5333;fill:none;stroke:#D5DE00;stroke-miterlimit:10;}
	.st55{opacity:0.5444;fill:none;stroke:#D5DE00;stroke-miterlimit:10;}
	.st56{opacity:0.5556;fill:none;stroke:#D5DE00;stroke-miterlimit:10;}
	.st57{opacity:0.5667;fill:none;stroke:#D5DE00;stroke-miterlimit:10;}
	.st58{opacity:0.5778;fill:none;stroke:#D5DE00;stroke-miterlimit:10;}
	.st59{opacity:0.5889;fill:none;stroke:#D5DE00;stroke-miterlimit:10;}
	.st60{opacity:0.6;fill:none;stroke:#D5DE00;stroke-miterlimit:10;}
	.st61{opacity:0.6111;fill:none;stroke:#D5DE00;stroke-miterlimit:10;}
	.st62{opacity:0.6222;fill:none;stroke:#D5DE00;stroke-miterlimit:10;}
	.st63{opacity:0.6333;fill:none;stroke:#D5DE00;stroke-miterlimit:10;}
	.st64{opacity:0.6444;fill:none;stroke:#D5DE00;stroke-miterlimit:10;}
	.st65{opacity:0.6556;fill:none;stroke:#D5DE00;stroke-miterlimit:10;}
	.st66{opacity:0.6667;fill:none;stroke:#D5DE00;stroke-miterlimit:10;}
	.st67{opacity:0.6778;fill:none;stroke:#D5DE00;stroke-miterlimit:10;}
	.st68{opacity:0.6889;fill:none;stroke:#D5DE00;stroke-miterlimit:10;}
	.st69{opacity:0.7;fill:none;stroke:#D5DE00;stroke-miterlimit:10;}
	.st70{opacity:0.7111;fill:none;stroke:#D5DE00;stroke-miterlimit:10;}
	.st71{opacity:0.7222;fill:none;stroke:#D5DE00;stroke-miterlimit:10;}
	.st72{opacity:0.7333;fill:none;stroke:#D5DE00;stroke-miterlimit:10;}
	.st73{opacity:0.7444;fill:none;stroke:#D5DE00;stroke-miterlimit:10;}
	.st74{opacity:0.7556;fill:none;stroke:#D5DE00;stroke-miterlimit:10;}
	.st75{opacity:0.7667;fill:none;stroke:#D5DE00;stroke-miterlimit:10;}
	.st76{opacity:0.7778;fill:none;stroke:#D5DE00;stroke-miterlimit:10;}
	.st77{opacity:0.7889;fill:none;stroke:#D5DE00;stroke-miterlimit:10;}
	.st78{opacity:0.8;fill:none;stroke:#D5DE00;stroke-miterlimit:10;}
	.st79{opacity:0.8111;fill:none;stroke:#D5DE00;stroke-miterlimit:10;}
	.st80{opacity:0.8222;fill:none;stroke:#D5DE00;stroke-miterlimit:10;}
	.st81{opacity:0.8333;fill:none;stroke:#D5DE00;stroke-miterlimit:10;}
	.st82{opacity:0.8444;fill:none;stroke:#D5DE00;stroke-miterlimit:10;}
	.st83{opacity:0.8556;fill:none;stroke:#D5DE00;stroke-miterlimit:10;}
	.st84{opacity:0.8667;fill:none;stroke:#D5DE00;stroke-miterlimit:10;}
	.st85{opacity:0.8778;fill:none;stroke:#D5DE00;stroke-miterlimit:10;}
	.st86{opacity:0.8889;fill:none;stroke:#D5DE00;stroke-miterlimit:10;}
	.st87{opacity:0.9;fill:none;stroke:#D5DE00;stroke-miterlimit:10;}
	.st88{opacity:0.9111;fill:none;stroke:#D5DE00;stroke-miterlimit:10;}
	.st89{opacity:0.9222;fill:none;stroke:#D5DE00;stroke-miterlimit:10;}
	.st90{opacity:0.9333;fill:none;stroke:#D5DE00;stroke-miterlimit:10;}
	.st91{opacity:0.9444;fill:none;stroke:#D5DE00;stroke-miterlimit:10;}
	.st92{opacity:0.9556;fill:none;stroke:#D5DE00;stroke-miterlimit:10;}
	.st93{opacity:0.9667;fill:none;stroke:#D5DE00;stroke-miterlimit:10;}
	.st94{opacity:0.9778;fill:none;stroke:#D5DE00;stroke-miterlimit:10;}
	.st95{opacity:0.9889;fill:none;stroke:#D5DE00;stroke-miterlimit:10;}
	.st96{opacity:0.75;fill:url(#SVGID_00000009581755101525275270000018283141855553742757_);}
	.st97{opacity:0.75;fill:url(#SVGID_00000083800674844915179560000009231211967747689111_);}
	.st98{opacity:0.75;fill:url(#SVGID_00000042734350854321317660000008533620678501442181_);}
	.st99{fill:none;stroke:#F2EBE0;stroke-width:0.25;stroke-miterlimit:10;}
</style>
<g class="st14">
	<path class="st15" d="M0.43,187.34c80.9-24,296.08-103.23,685.78,10.39s679.22-118.39,679.22-118.39"/>
	<path class="st16" d="M0.43,188.85c80.9-24,296.08-103.23,685.78,10.39s679.22-118.39,679.22-118.39"/>
	<path class="st17" d="M0.43,190.37c80.9-24,296.08-103.23,685.78,10.39s679.22-118.39,679.22-118.39"/>
	<path class="st18" d="M0.43,191.89c80.9-24,296.08-103.23,685.78,10.39s679.22-118.39,679.22-118.39"/>
	<path class="st19" d="M0.43,193.41c80.9-24,296.08-103.23,685.78,10.39s679.22-118.39,679.22-118.39"/>
	<path class="st20" d="M0.43,194.93c80.9-24,296.08-103.23,685.78,10.39s679.22-118.39,679.22-118.39"/>
	<path class="st21" d="M0.43,196.45c80.9-24,296.08-103.23,685.78,10.39s679.22-118.39,679.22-118.39"/>
	<path class="st22" d="M0.43,197.97c80.9-24,296.08-103.23,685.78,10.39s679.22-118.39,679.22-118.39"/>
	<path class="st23" d="M0.43,199.48c80.9-24,296.08-103.23,685.78,10.39s679.22-118.39,679.22-118.39"/>
	<path class="st24" d="M0.43,201c80.9-24,296.08-103.23,685.78,10.39S1365.43,93,1365.43,93"/>
	<path class="st25" d="M0.43,202.52c80.9-24,296.08-103.23,685.78,10.39s679.22-118.39,679.22-118.39"/>
	<path class="st26" d="M0.43,204.04c80.9-24,296.08-103.23,685.78,10.39s679.22-118.39,679.22-118.39"/>
	<path class="st27" d="M0.43,205.56c80.9-24,296.08-103.23,685.78,10.39s679.22-118.39,679.22-118.39"/>
	<path class="st28" d="M0.43,207.08c80.9-24,296.08-103.23,685.78,10.39s679.22-118.39,679.22-118.39"/>
	<path class="st29" d="M0.43,208.6c80.9-24,296.08-103.23,685.78,10.39s679.22-118.39,679.22-118.39"/>
	<path class="st30" d="M0.43,210.11c80.9-24,296.08-103.23,685.78,10.39s679.22-118.39,679.22-118.39"/>
	<path class="st31" d="M0.43,211.63c80.9-24,296.08-103.23,685.78,10.39s679.22-118.39,679.22-118.39"/>
	<path class="st32" d="M0.43,213.15c80.9-24,296.08-103.23,685.78,10.39s679.22-118.39,679.22-118.39"/>
	<path class="st33" d="M0.43,214.67c80.9-24,296.08-103.23,685.78,10.39s679.22-118.39,679.22-118.39"/>
	<path class="st34" d="M0.43,216.19c80.9-24,296.08-103.23,685.78,10.39s679.22-118.39,679.22-118.39"/>
	<path class="st35" d="M0.43,217.71c80.9-24,296.08-103.23,685.78,10.39s679.22-118.39,679.22-118.39"/>
	<path class="st36" d="M0.43,219.22c80.9-24,296.08-103.23,685.78,10.39s679.22-118.39,679.22-118.39"/>
	<path class="st37" d="M0.43,220.74c80.9-24,296.08-103.23,685.78,10.39s679.22-118.39,679.22-118.39"/>
	<path class="st38" d="M0.43,222.26c80.9-24,296.08-103.23,685.78,10.39s679.22-118.39,679.22-118.39"/>
	<path class="st39" d="M0.43,223.78c80.9-24,296.08-103.23,685.78,10.39s679.22-118.39,679.22-118.39"/>
	<path class="st40" d="M0.43,225.3c80.9-24,296.08-103.23,685.78,10.39s679.22-118.39,679.22-118.39"/>
	<path class="st41" d="M0.43,226.82c80.9-24,296.08-103.23,685.78,10.39s679.22-118.39,679.22-118.39"/>
	<path class="st42" d="M0.43,228.34c80.9-24,296.08-103.23,685.78,10.39s679.22-118.39,679.22-118.39"/>
	<path class="st43" d="M0.43,229.85c80.9-24,296.08-103.23,685.78,10.39s679.22-118.39,679.22-118.39"/>
	<path class="st44" d="M0.43,231.37c80.9-24,296.08-103.23,685.78,10.39s679.22-118.39,679.22-118.39"/>
	<path class="st45" d="M0.43,232.89c80.9-24,296.08-103.23,685.78,10.39s679.22-118.39,679.22-118.39"/>
	<path class="st46" d="M0.43,234.41c80.9-24,296.08-103.23,685.78,10.39s679.22-118.39,679.22-118.39"/>
	<path class="st47" d="M0.43,235.93c80.9-24,296.08-103.23,685.78,10.39s679.22-118.39,679.22-118.39"/>
	<path class="st48" d="M0.43,237.45c80.9-24,296.08-103.23,685.78,10.39s679.22-118.39,679.22-118.39"/>
	<path class="st49" d="M0.43,238.97c80.9-24,296.08-103.23,685.78,10.39s679.22-118.39,679.22-118.39"/>
	<path class="st50" d="M0.43,240.48c80.9-24,296.08-103.23,685.78,10.39s679.22-118.39,679.22-118.39"/>
	<path class="st51" d="M0.43,242c80.9-24,296.08-103.23,685.78,10.39S1365.43,134,1365.43,134"/>
	<path class="st52" d="M0.43,243.52c80.9-24,296.08-103.23,685.78,10.39s679.22-118.39,679.22-118.39"/>
	<path class="st53" d="M0.43,245.04c80.9-24,296.08-103.23,685.78,10.39s679.22-118.39,679.22-118.39"/>
	<path class="st54" d="M0.43,246.56c80.9-24,296.08-103.23,685.78,10.39s679.22-118.39,679.22-118.39"/>
	<path class="st55" d="M0.43,248.08c80.9-24,296.08-103.23,685.78,10.39s679.22-118.39,679.22-118.39"/>
	<path class="st56" d="M0.43,249.6c80.9-24,296.08-103.23,685.78,10.39s679.22-118.39,679.22-118.39"/>
	<path class="st57" d="M0.43,251.11c80.9-24,296.08-103.23,685.78,10.39s679.22-118.39,679.22-118.39"/>
	<path class="st58" d="M0.43,252.63c80.9-24,296.08-103.23,685.78,10.39s679.22-118.39,679.22-118.39"/>
	<path class="st59" d="M0.43,254.15c80.9-24,296.08-103.23,685.78,10.39s679.22-118.39,679.22-118.39"/>
	<path class="st60" d="M0.43,255.67c80.9-24,296.08-103.23,685.78,10.39s679.22-118.39,679.22-118.39"/>
	<path class="st61" d="M0.43,257.19c80.9-24,296.08-103.23,685.78,10.39s679.22-118.39,679.22-118.39"/>
	<path class="st62" d="M0.43,258.71c80.9-24,296.08-103.23,685.78,10.39s679.22-118.39,679.22-118.39"/>
	<path class="st63" d="M0.43,260.22c80.9-24,296.08-103.23,685.78,10.39s679.22-118.39,679.22-118.39"/>
	<path class="st64" d="M0.43,261.74c80.9-24,296.08-103.23,685.78,10.39s679.22-118.39,679.22-118.39"/>
	<path class="st65" d="M0.43,263.26c80.9-24,296.08-103.23,685.78,10.39s679.22-118.39,679.22-118.39"/>
	<path class="st66" d="M0.43,264.78c80.9-24,296.08-103.23,685.78,10.39s679.22-118.39,679.22-118.39"/>
	<path class="st67" d="M0.43,266.3c80.9-24,296.08-103.23,685.78,10.39s679.22-118.39,679.22-118.39"/>
	<path class="st68" d="M0.43,267.82c80.9-24,296.08-103.23,685.78,10.39s679.22-118.39,679.22-118.39"/>
	<path class="st69" d="M0.43,269.34c80.9-24,296.08-103.23,685.78,10.39s679.22-118.39,679.22-118.39"/>
	<path class="st70" d="M0.43,270.85c80.9-24,296.08-103.23,685.78,10.39s679.22-118.39,679.22-118.39"/>
	<path class="st71" d="M0.43,272.37c80.9-24,296.08-103.23,685.78,10.39s679.22-118.39,679.22-118.39"/>
	<path class="st72" d="M0.43,273.89c80.9-24,296.08-103.23,685.78,10.39s679.22-118.39,679.22-118.39"/>
	<path class="st73" d="M0.43,275.41c80.9-24,296.08-103.23,685.78,10.39s679.22-118.39,679.22-118.39"/>
	<path class="st74" d="M0.43,276.93c80.9-24,296.08-103.23,685.78,10.39s679.22-118.39,679.22-118.39"/>
	<path class="st75" d="M0.43,278.45c80.9-24,296.08-103.23,685.78,10.39s679.22-118.39,679.22-118.39"/>
	<path class="st76" d="M0.43,279.97c80.9-24,296.08-103.23,685.78,10.39s679.22-118.39,679.22-118.39"/>
	<path class="st77" d="M0.43,281.48c80.9-24,296.08-103.23,685.78,10.39s679.22-118.39,679.22-118.39"/>
	<path class="st78" d="M0.43,283c80.9-24,296.08-103.23,685.78,10.39S1365.43,175,1365.43,175"/>
	<path class="st79" d="M0.43,284.52c80.9-24,296.08-103.23,685.78,10.39s679.22-118.39,679.22-118.39"/>
	<path class="st80" d="M0.43,286.04c80.9-24,296.08-103.23,685.78,10.39s679.22-118.39,679.22-118.39"/>
	<path class="st81" d="M0.43,287.56c80.9-24,296.08-103.23,685.78,10.39s679.22-118.39,679.22-118.39"/>
	<path class="st82" d="M0.43,289.08c80.9-24,296.08-103.23,685.78,10.39s679.22-118.39,679.22-118.39"/>
	<path class="st83" d="M0.43,290.6c80.9-24,296.08-103.23,685.78,10.39s679.22-118.39,679.22-118.39"/>
	<path class="st84" d="M0.43,292.11c80.9-24,296.08-103.23,685.78,10.39s679.22-118.39,679.22-118.39"/>
	<path class="st85" d="M0.43,293.63c80.9-24,296.08-103.23,685.78,10.39s679.22-118.39,679.22-118.39"/>
	<path class="st86" d="M0.43,295.15c80.9-24,296.08-103.23,685.78,10.39s679.22-118.39,679.22-118.39"/>
	<path class="st87" d="M0.43,296.67c80.9-24,296.08-103.23,685.78,10.39s679.22-118.39,679.22-118.39"/>
	<path class="st88" d="M0.43,298.19c80.9-24,296.08-103.23,685.78,10.39s679.22-118.39,679.22-118.39"/>
	<path class="st89" d="M0.43,299.71c80.9-24,296.08-103.23,685.78,10.39s679.22-118.39,679.22-118.39"/>
	<path class="st90" d="M0.43,301.22c80.9-24,296.08-103.23,685.78,10.39s679.22-118.39,679.22-118.39"/>
	<path class="st91" d="M0.43,302.74c80.9-24,296.08-103.23,685.78,10.39s679.22-118.39,679.22-118.39"/>
	<path class="st92" d="M0.43,304.26c80.9-24,296.08-103.23,685.78,10.39s679.22-118.39,679.22-118.39"/>
	<path class="st93" d="M0.43,305.78c80.9-24,296.08-103.23,685.78,10.39s679.22-118.39,679.22-118.39"/>
	<path class="st94" d="M0.43,307.3c80.9-24,296.08-103.23,685.78,10.39s679.22-118.39,679.22-118.39"/>
	<path class="st95" d="M0.43,308.82c80.9-24,296.08-103.23,685.78,10.39s679.22-118.39,679.22-118.39"/>
	<path class="st6" d="M0.43,310.34c80.9-24,296.08-103.23,685.78,10.39s679.22-118.39,679.22-118.39"/>
</g>
</svg>
