<?xml version="1.0" encoding="utf-8"?>
<!-- Generator: Adobe Illustrator 27.0.0, SVG Export Plug-In . SVG Version: 6.00 Build 0)  -->
<svg version="1.1" id="Layer_1" xmlns="http://www.w3.org/2000/svg" xmlns:xlink="http://www.w3.org/1999/xlink" x="0px" y="0px"
	 viewBox="0 0 243 232" style="enable-background:new 0 0 243 232;" xml:space="preserve">
<style type="text/css">
	.st0{opacity:0.75;fill:url(#SVGID_1_);}
	.st1{fill:none;stroke:#000000;}
	.st2{opacity:0.75;fill:url(#SVGID_00000138562530602988143190000003228273870117611199_);}
	.st3{fill:none;stroke:#2F312E;stroke-miterlimit:10;}
	.st4{opacity:0.75;fill:url(#SVGID_00000168797644918436445330000011500439321073373883_);}
	.st5{fill:none;stroke:#F2EBE0;stroke-miterlimit:10;}
	.st6{fill:none;stroke:#D5DE00;stroke-miterlimit:10;}
	.st7{fill:none;stroke:#000000;stroke-width:0.5;stroke-miterlimit:10;}
	.st8{fill:#F2EBE0;}
	.st9{fill:#D5DE00;}
	.st10{fill:#F2EBE0;stroke:#000000;stroke-width:0.5;stroke-miterlimit:10;}
	.st11{fill:none;stroke:#F2EBE0;stroke-width:0.5;stroke-miterlimit:10;}
	.st12{fill:none;stroke:#000000;stroke-width:0.25;stroke-miterlimit:10;}
	.st13{fill:none;stroke:#D5DE00;stroke-width:6;stroke-miterlimit:10;}
	.st14{opacity:0.4;}
	.st15{opacity:0.1;fill:none;stroke:#D5DE00;stroke-miterlimit:10;}
	.st16{opacity:0.1111;fill:none;stroke:#D5DE00;stroke-miterlimit:10;}
	.st17{opacity:0.1222;fill:none;stroke:#D5DE00;stroke-miterlimit:10;}
	.st18{opacity:0.1333;fill:none;stroke:#D5DE00;stroke-miterlimit:10;}
	.st19{opacity:0.1444;fill:none;stroke:#D5DE00;stroke-miterlimit:10;}
	.st20{opacity:0.1556;fill:none;stroke:#D5DE00;stroke-miterlimit:10;}
	.st21{opacity:0.1667;fill:none;stroke:#D5DE00;stroke-miterlimit:10;}
	.st22{opacity:0.1778;fill:none;stroke:#D5DE00;stroke-miterlimit:10;}
	.st23{opacity:0.1889;fill:none;stroke:#D5DE00;stroke-miterlimit:10;}
	.st24{opacity:0.2;fill:none;stroke:#D5DE00;stroke-miterlimit:10;}
	.st25{opacity:0.2111;fill:none;stroke:#D5DE00;stroke-miterlimit:10;}
	.st26{opacity:0.2222;fill:none;stroke:#D5DE00;stroke-miterlimit:10;}
	.st27{opacity:0.2333;fill:none;stroke:#D5DE00;stroke-miterlimit:10;}
	.st28{opacity:0.2444;fill:none;stroke:#D5DE00;stroke-miterlimit:10;}
	.st29{opacity:0.2556;fill:none;stroke:#D5DE00;stroke-miterlimit:10;}
	.st30{opacity:0.2667;fill:none;stroke:#D5DE00;stroke-miterlimit:10;}
	.st31{opacity:0.2778;fill:none;stroke:#D5DE00;stroke-miterlimit:10;}
	.st32{opacity:0.2889;fill:none;stroke:#D5DE00;stroke-miterlimit:10;}
	.st33{opacity:0.3;fill:none;stroke:#D5DE00;stroke-miterlimit:10;}
	.st34{opacity:0.3111;fill:none;stroke:#D5DE00;stroke-miterlimit:10;}
	.st35{opacity:0.3222;fill:none;stroke:#D5DE00;stroke-miterlimit:10;}
	.st36{opacity:0.3333;fill:none;stroke:#D5DE00;stroke-miterlimit:10;}
	.st37{opacity:0.3444;fill:none;stroke:#D5DE00;stroke-miterlimit:10;}
	.st38{opacity:0.3556;fill:none;stroke:#D5DE00;stroke-miterlimit:10;}
	.st39{opacity:0.3667;fill:none;stroke:#D5DE00;stroke-miterlimit:10;}
	.st40{opacity:0.3778;fill:none;stroke:#D5DE00;stroke-miterlimit:10;}
	.st41{opacity:0.3889;fill:none;stroke:#D5DE00;stroke-miterlimit:10;}
	.st42{opacity:0.4;fill:none;stroke:#D5DE00;stroke-miterlimit:10;}
	.st43{opacity:0.4111;fill:none;stroke:#D5DE00;stroke-miterlimit:10;}
	.st44{opacity:0.4222;fill:none;stroke:#D5DE00;stroke-miterlimit:10;}
	.st45{opacity:0.4333;fill:none;stroke:#D5DE00;stroke-miterlimit:10;}
	.st46{opacity:0.4444;fill:none;stroke:#D5DE00;stroke-miterlimit:10;}
	.st47{opacity:0.4556;fill:none;stroke:#D5DE00;stroke-miterlimit:10;}
	.st48{opacity:0.4667;fill:none;stroke:#D5DE00;stroke-miterlimit:10;}
	.st49{opacity:0.4778;fill:none;stroke:#D5DE00;stroke-miterlimit:10;}
	.st50{opacity:0.4889;fill:none;stroke:#D5DE00;stroke-miterlimit:10;}
	.st51{opacity:0.5;fill:none;stroke:#D5DE00;stroke-miterlimit:10;}
	.st52{opacity:0.5111;fill:none;stroke:#D5DE00;stroke-miterlimit:10;}
	.st53{opacity:0.5222;fill:none;stroke:#D5DE00;stroke-miterlimit:10;}
	.st54{opacity:0.5333;fill:none;stroke:#D5DE00;stroke-miterlimit:10;}
	.st55{opacity:0.5444;fill:none;stroke:#D5DE00;stroke-miterlimit:10;}
	.st56{opacity:0.5556;fill:none;stroke:#D5DE00;stroke-miterlimit:10;}
	.st57{opacity:0.5667;fill:none;stroke:#D5DE00;stroke-miterlimit:10;}
	.st58{opacity:0.5778;fill:none;stroke:#D5DE00;stroke-miterlimit:10;}
	.st59{opacity:0.5889;fill:none;stroke:#D5DE00;stroke-miterlimit:10;}
	.st60{opacity:0.6;fill:none;stroke:#D5DE00;stroke-miterlimit:10;}
	.st61{opacity:0.6111;fill:none;stroke:#D5DE00;stroke-miterlimit:10;}
	.st62{opacity:0.6222;fill:none;stroke:#D5DE00;stroke-miterlimit:10;}
	.st63{opacity:0.6333;fill:none;stroke:#D5DE00;stroke-miterlimit:10;}
	.st64{opacity:0.6444;fill:none;stroke:#D5DE00;stroke-miterlimit:10;}
	.st65{opacity:0.6556;fill:none;stroke:#D5DE00;stroke-miterlimit:10;}
	.st66{opacity:0.6667;fill:none;stroke:#D5DE00;stroke-miterlimit:10;}
	.st67{opacity:0.6778;fill:none;stroke:#D5DE00;stroke-miterlimit:10;}
	.st68{opacity:0.6889;fill:none;stroke:#D5DE00;stroke-miterlimit:10;}
	.st69{opacity:0.7;fill:none;stroke:#D5DE00;stroke-miterlimit:10;}
	.st70{opacity:0.7111;fill:none;stroke:#D5DE00;stroke-miterlimit:10;}
	.st71{opacity:0.7222;fill:none;stroke:#D5DE00;stroke-miterlimit:10;}
	.st72{opacity:0.7333;fill:none;stroke:#D5DE00;stroke-miterlimit:10;}
	.st73{opacity:0.7444;fill:none;stroke:#D5DE00;stroke-miterlimit:10;}
	.st74{opacity:0.7556;fill:none;stroke:#D5DE00;stroke-miterlimit:10;}
	.st75{opacity:0.7667;fill:none;stroke:#D5DE00;stroke-miterlimit:10;}
	.st76{opacity:0.7778;fill:none;stroke:#D5DE00;stroke-miterlimit:10;}
	.st77{opacity:0.7889;fill:none;stroke:#D5DE00;stroke-miterlimit:10;}
	.st78{opacity:0.8;fill:none;stroke:#D5DE00;stroke-miterlimit:10;}
	.st79{opacity:0.8111;fill:none;stroke:#D5DE00;stroke-miterlimit:10;}
	.st80{opacity:0.8222;fill:none;stroke:#D5DE00;stroke-miterlimit:10;}
	.st81{opacity:0.8333;fill:none;stroke:#D5DE00;stroke-miterlimit:10;}
	.st82{opacity:0.8444;fill:none;stroke:#D5DE00;stroke-miterlimit:10;}
	.st83{opacity:0.8556;fill:none;stroke:#D5DE00;stroke-miterlimit:10;}
	.st84{opacity:0.8667;fill:none;stroke:#D5DE00;stroke-miterlimit:10;}
	.st85{opacity:0.8778;fill:none;stroke:#D5DE00;stroke-miterlimit:10;}
	.st86{opacity:0.8889;fill:none;stroke:#D5DE00;stroke-miterlimit:10;}
	.st87{opacity:0.9;fill:none;stroke:#D5DE00;stroke-miterlimit:10;}
	.st88{opacity:0.9111;fill:none;stroke:#D5DE00;stroke-miterlimit:10;}
	.st89{opacity:0.9222;fill:none;stroke:#D5DE00;stroke-miterlimit:10;}
	.st90{opacity:0.9333;fill:none;stroke:#D5DE00;stroke-miterlimit:10;}
	.st91{opacity:0.9444;fill:none;stroke:#D5DE00;stroke-miterlimit:10;}
	.st92{opacity:0.9556;fill:none;stroke:#D5DE00;stroke-miterlimit:10;}
	.st93{opacity:0.9667;fill:none;stroke:#D5DE00;stroke-miterlimit:10;}
	.st94{opacity:0.9778;fill:none;stroke:#D5DE00;stroke-miterlimit:10;}
	.st95{opacity:0.9889;fill:none;stroke:#D5DE00;stroke-miterlimit:10;}
	.st96{opacity:0.75;fill:url(#SVGID_00000137835193447567769490000011381825788013484720_);}
	.st97{opacity:0.75;fill:url(#SVGID_00000105392442755317620090000017671381239988075905_);}
	.st98{opacity:0.75;fill:url(#SVGID_00000138572966792456842670000002408099349090656184_);}
	.st99{fill:none;stroke:#F2EBE0;stroke-width:0.25;stroke-miterlimit:10;}
</style>
<g>
	<path class="st99" d="M213.81,130.67c-7.46,43.6-45.44,76.78-91.17,76.78c-51.09,0-92.5-41.41-92.5-92.5
		c0-42.93,29.25-79.03,68.91-89.46"/>
	<g>
		<g>
			<path class="st9" d="M110.1,15.41l3.44-0.54l1.79,11.44l7.95-1.25l-0.02,2.83l-10.94,1.71L110.1,15.41z"/>
			<path class="st9" d="M139.03,22.24l-8.01-0.36l-0.15,3.27l8.9,0.4l-0.53,2.77l-11.99-0.54l0.65-14.35l11.92,0.54l-0.13,2.79
				l-8.44-0.38l-0.12,2.72l8.01,0.36L139.03,22.24z"/>
			<path class="st9" d="M149.54,18.61l-4.91-1.21l0.67-2.7l13.19,3.27l-0.67,2.7l-4.89-1.21l-2.79,11.25l-3.39-0.84L149.54,18.61z"
				/>
			<path class="st9" d="M160.53,24.98c1.13-1.41,2.53-3.49,3.55-5.63l3.16,1.28c-1.16,2.13-3.03,4.27-4.27,5.34L160.53,24.98z"/>
			<path class="st9" d="M169.37,33.7c-0.28,1.28,0.15,2.48,2.2,3.71c1.92,1.14,2.82,0.89,3.3,0.09c0.51-0.85,0.22-1.67-2.11-3.66
				c-3.84-3.29-3.79-5.14-2.81-6.79c1.47-2.46,4.59-2.31,7.51-0.57c4.23,2.53,4.08,5.39,3.37,6.9l-3-1.79
				c0.19-0.71,0.27-1.78-1.77-2.99c-1.43-0.85-2.42-0.83-2.89-0.03c-0.43,0.71-0.13,1.38,1.94,3.17c4.19,3.64,4.08,5.49,3.01,7.28
				c-1.28,2.14-3.98,2.87-8.12,0.4c-3.86-2.3-4.57-5.06-3.62-7.5L169.37,33.7z"/>
			<path class="st9" d="M195.65,44.73l-3.43-3.71l2.04-1.88l9.21,9.98l-2.04,1.88l-3.42-3.7l-8.51,7.86l-2.37-2.56L195.65,44.73z"/>
			<path class="st9" d="M199.22,62.42l-3.44,0.61l-1.85-3.07l15.29-2.45l2.3,3.83l-9.17,12.62l-1.94-3.23l2.11-2.83L199.22,62.42z
				 M204.41,65.62c2.13-2.84,3.23-4.27,4-5.13l-0.01-0.02c-1.09,0.28-3.35,0.75-6.32,1.27L204.41,65.62z"/>
			<path class="st9" d="M216.97,72.2l1.15,3.29l-10.91,3.83l2.67,7.59l-2.79,0.49l-3.67-10.44L216.97,72.2z"/>
			<path class="st9" d="M222.37,89.44l0.43,3.46l-6.24,0.77c2.15,1.82,4.21,3.57,7.07,5.98l0.52,4.24l-6.96-5.94l-7.25,8.07
				l-0.53-4.3l5.58-6.01l-1.74-1.63l-4.71,0.58l-0.43-3.46L222.37,89.44z"/>
			<path class="st9" d="M209.66,109.3l3.6,0.09l-0.08,3.24l-3.6-0.09L209.66,109.3z M214.96,109.6l6.69-0.17l2.38,0.06l-0.09,3.59
				l-2.41-0.06l-6.64-0.5L214.96,109.6z"/>
		</g>
	</g>
</g>
</svg>
